<?xml version="1.0" encoding="UTF-8" standalone="no"?>
<svg width="50px" height="50px" viewBox="0 0 50 50" version="1.1" xmlns="http://www.w3.org/2000/svg" xmlns:xlink="http://www.w3.org/1999/xlink">
    <!-- Generator: Sketch 44.1 (41455) - http://www.bohemiancoding.com/sketch -->
    <title>icon-amenity-breakfast</title>
    <desc>Created with Sketch.</desc>
    <defs>
        <rect id="path-1" x="0" y="0" width="50" height="50" rx="25"></rect>
    </defs>
    <g id="Icons" stroke="none" stroke-width="1" fill="none" fill-rule="evenodd">
        <g id="icon-amenity-breakfast">
            <g id="Rectangle">
                <use fill="#FFFFFF" fill-rule="evenodd" xlink:href="#path-1"></use>
                <rect stroke="#933031" stroke-width="1.2" x="0.6" y="0.6" width="48.8" height="48.8" rx="24.4"></rect>
            </g>
            <g id="Group-2" stroke-width="1" fill-rule="evenodd" transform="translate(10.000000, 10.000000)" fill="#933031">
                <path d="M24.8035359,16.2012676 C28.1660221,16.116 29.7281768,14.5721408 29.7281768,12.6749577 C29.7281768,11.0298592 28.5522928,9.65138028 26.0487017,9.2568169 C26.0611326,8.63949296 26.0616298,8.04709859 26.0616298,7.5 L10.5,7.5 C10.5,10.1671268 10.5024862,13.877831 11.9456354,16.5757183 C14.8319337,16.7192958 17.398674,17.4403944 19.3299448,18.5512394 C19.9287017,18.8957746 20.4680387,19.2763099 20.9348619,19.6894648 C21.084116,19.8223099 21.225,19.9588732 21.3598343,20.0984789 C24.1257182,19.9740845 26.0619613,19.6874366 26.0619613,19.3535493 C26.0619613,19.0845634 24.7964088,18.8465915 22.8557735,18.6989577 C23.7157459,18.0381972 24.3437569,17.1760563 24.8035359,16.2012676 Z M27.7266298,12.7120563 C27.7087293,13.7356056 27.2125691,14.424169 25.3823204,14.6469296 C25.7351105,13.4132958 25.9053315,12.0893239 25.9868785,10.8101408 C27.3355525,11.1305915 27.7426243,11.8187324 27.7266298,12.7120563 Z M12.3788122,8.53926761 L14.8114641,8.53926761 C13.7203591,12.1766197 15.5607182,17.0121127 15.5607182,17.0121127 C11.5833978,13.9036056 12.3788122,8.53926761 12.3788122,8.53926761 Z" id="Shape" fill-rule="nonzero"></path>
                <path d="M20.5666336,2.77004964 C19.2528491,3.21810598 18.165059,3.96734542 18.0032911,5.46134542 C17.938153,6.06371162 18.8607773,6.05686655 18.9254182,5.46134542 C19.2344513,2.60289471 25.4225729,4.03292288 24.1327386,0.322218658 C23.9355839,-0.245161624 23.0448657,-0.00102077855 23.2439264,0.572359503 C23.81028,2.19920457 21.6609706,2.39712007 20.5666336,2.77004964 Z" id="Shape" fill-rule="nonzero"></path>
                <path d="M23.706526,4.02043795 C22.5002276,4.31046612 21.3975204,4.83736753 21.0212773,6.13117035 C20.8521337,6.7137619 21.7418575,6.96111401 21.9100895,6.38114218 C22.3256144,4.95263514 24.1658906,4.92880415 25.3407801,4.58071964 C26.6027691,4.20728302 27.3243436,3.3153957 27.1511392,1.94731119 C27.0765536,1.35483232 26.1539293,1.34697316 26.2295923,1.94731119 C26.4385149,3.60179007 24.9455591,3.72229711 23.706526,4.02043795 Z" id="Shape" fill-rule="nonzero"></path>
                <path d="M11.0828453,30.3334648 C17.1943094,30.3334648 22.1661878,27.5673803 22.1661878,24.1669014 C22.1661878,22.8207042 21.385442,21.5754085 20.0656077,20.5604789 C19.9910221,20.5030986 19.915442,20.4473239 19.8377072,20.3914648 C19.0594475,19.8333803 18.1129558,19.3522817 17.0410773,18.9707324 C15.7939227,18.5261408 14.3782044,18.2165915 12.8591436,18.0796056 C12.2808564,18.0278873 11.6877348,18 11.0833425,18 C4.97187845,17.9999155 0,20.766 0,24.1674085 C-0.000497237569,27.5672958 4.97138122,30.3334648 11.0828453,30.3334648 Z M6.5038674,21.5601972 C6.92560773,21.5601972 7.26820442,21.9092958 7.26820442,22.3396056 C7.26820442,22.5938873 7.40825967,22.8561972 7.6548895,23.1013521 C8.01762431,22.3294648 9.39356354,21.7540563 11.0405801,21.7540563 C12.7287845,21.7540563 14.135884,22.3584507 14.4543646,23.1597465 C14.7390331,22.8983662 14.8974862,22.6142535 14.8974862,22.3396901 C14.8974862,21.9093803 15.2401657,21.5602817 15.6619061,21.5602817 C16.0836464,21.5602817 16.4259945,21.9093803 16.4259945,22.3396901 C16.4259945,24.257831 14.0791989,25.7604507 11.0829282,25.7604507 C8.08665746,25.7604507 5.73953039,24.2579155 5.73953039,22.3396901 C5.73944751,21.9092958 6.08187845,21.5601972 6.5038674,21.5601972 Z" id="Shape" fill-rule="nonzero"></path>
            </g>
        </g>
    </g>
</svg>