<?xml version="1.0" encoding="UTF-8" standalone="no"?>
<svg width="50px" height="50px" viewBox="0 0 50 50" version="1.1" xmlns="http://www.w3.org/2000/svg" xmlns:xlink="http://www.w3.org/1999/xlink">
    <!-- Generator: Sketch 44.1 (41455) - http://www.bohemiancoding.com/sketch -->
    <title>icon-amenity-shuttle</title>
    <desc>Created with Sketch.</desc>
    <defs>
        <rect id="path-1" x="0" y="0" width="50" height="50" rx="25"></rect>
    </defs>
    <g id="Icons" stroke="none" stroke-width="1" fill="none" fill-rule="evenodd">
        <g id="icon-amenity-shuttle">
            <g id="Rectangle">
                <use fill="#FFFFFF" fill-rule="evenodd" xlink:href="#path-1"></use>
                <rect stroke="#933031" stroke-width="1.2" x="0.6" y="0.6" width="48.8" height="48.8" rx="24.4"></rect>
            </g>
            <g id="technical-service-van" stroke-width="1" fill-rule="evenodd" transform="translate(10.000000, 17.000000)" fill="#933031">
                <path d="M29.2511894,9.54488987 L29.1190308,9.54488987 L29.1190308,2.01555066 C29.1190308,0.96092511 28.2610573,0.102951542 27.2062996,0.102951542 L13.2379295,0.102951542 L8.68334802,0.102951542 C8.6760793,0.102951542 8.66881057,0.1030837 8.66140969,0.103348018 C8.60471366,0.101762115 8.54682819,0.1069163 8.49026432,0.12 C8.30577093,0.162819383 8.1485022,0.282819383 8.05837004,0.449603524 L7.14066079,2.14784141 L5.84814978,4.43167401 C5.80189427,4.45982379 5.75048458,4.48017621 5.69524229,4.48572687 L2.90154185,4.77290749 C2.00088106,4.86555066 1.3215859,5.61819383 1.3215859,6.52361233 L1.3215859,9.54475771 L0.660792952,9.54475771 C0.464669604,9.54475771 0.278590308,9.63198238 0.153039648,9.78264317 C0.0274889868,9.93343612 -0.0245814978,10.1320705 0.0108370044,10.325022 L0.407312775,12.4809251 C0.465066079,12.7945374 0.738370044,13.0222467 1.05713656,13.0222467 L2.92400881,13.0222467 C3.22414097,14.3094714 4.38013216,15.2715859 5.75748899,15.2715859 C7.13484581,15.2715859 8.290837,14.3094714 8.59096916,13.0222467 L20.6439648,13.0222467 C20.9440969,14.3094714 22.1000881,15.2715859 23.4774449,15.2715859 C24.8548018,15.2715859 26.010793,14.3094714 26.3109251,13.0222467 L29.2510573,13.0222467 C29.6160793,13.0222467 29.9118502,12.7263436 29.9118502,12.3614537 L29.9118502,10.2055507 C29.9119824,9.84066079 29.6160793,9.54488987 29.2511894,9.54488987 Z M5.75762115,13.95 C4.88180617,13.95 4.16907489,13.2374009 4.16907489,12.3614537 C4.16907489,11.4855066 4.88167401,10.7729075 5.75762115,10.7729075 C6.63356828,10.7729075 7.3461674,11.4855066 7.3461674,12.3614537 C7.3461674,13.2374009 6.63356828,13.95 5.75762115,13.95 Z M12.5771366,3.69687225 C12.5771366,3.9823348 12.3449339,4.21453744 12.0594714,4.21453744 L7.48955947,4.21453744 L9.06859031,1.42453744 L12.5770044,1.42453744 L12.5770044,3.69687225 L12.5771366,3.69687225 Z M23.4775771,13.95 C22.60163,13.95 21.8890308,13.2374009 21.8890308,12.3614537 C21.8890308,11.4855066 22.60163,10.7729075 23.4775771,10.7729075 C24.3535242,10.7729075 25.0661233,11.4855066 25.0661233,12.3614537 C25.0661233,13.2374009 24.3535242,13.95 23.4775771,13.95 Z" id="Shape" fill-rule="nonzero"></path>
            </g>
        </g>
    </g>
</svg>