<?xml version="1.0" encoding="UTF-8" standalone="no"?>
<svg width="50px" height="50px" viewBox="0 0 50 50" version="1.1" xmlns="http://www.w3.org/2000/svg" xmlns:xlink="http://www.w3.org/1999/xlink">
    <!-- Generator: Sketch 44.1 (41455) - http://www.bohemiancoding.com/sketch -->
    <title>icon-amenity-restrictedroom</title>
    <desc>Created with Sketch.</desc>
    <defs>
        <rect id="path-1" x="0" y="0" width="50" height="50" rx="25"></rect>
    </defs>
    <g id="Icons" stroke="none" stroke-width="1" fill="none" fill-rule="evenodd">
        <g id="icon-amenity-restrictedroom">
            <g id="Rectangle">
                <use fill="#FFFFFF" fill-rule="evenodd" xlink:href="#path-1"></use>
                <rect stroke="#933031" stroke-width="1.2" x="0.6" y="0.6" width="48.8" height="48.8" rx="24.4"></rect>
            </g>
            <path d="M21.4842477,12 L21.4842477,13.1466396 L17,13.1466396 L17,36.0244223 L18.6578234,36.0244223 L18.6578234,14.8044629 L21.4842477,14.8044629 L21.4842477,38 L32.4728772,36.0244223 L32.4728772,32.7917117 L32.4728772,13.9796954 L21.4842477,12 Z M23.5057543,25.8910741 C23.1363695,25.8910741 22.8368812,25.5014173 22.8368812,25.0207472 C22.8368812,24.5401299 23.1363695,24.1504731 23.5057543,24.1504731 C23.8751391,24.1504731 24.1746274,24.5401299 24.1746274,25.0207472 C24.1746274,25.5014173 23.8751391,25.8910741 23.5057543,25.8910741 Z" id="Shape" fill="#933031" fill-rule="nonzero"></path>
        </g>
    </g>
</svg>