<?xml version="1.0" encoding="UTF-8" standalone="no"?>
<svg width="50px" height="50px" viewBox="0 0 50 50" version="1.1" xmlns="http://www.w3.org/2000/svg" xmlns:xlink="http://www.w3.org/1999/xlink">
    <!-- Generator: Sketch 44.1 (41455) - http://www.bohemiancoding.com/sketch -->
    <title>icon-amenity-mealservice</title>
    <desc>Created with Sketch.</desc>
    <defs>
        <rect id="path-1" x="0" y="0" width="50" height="50" rx="25"></rect>
    </defs>
    <g id="Icons" stroke="none" stroke-width="1" fill="none" fill-rule="evenodd">
        <g id="icon-amenity-mealservice">
            <g id="Rectangle">
                <use fill="#FFFFFF" fill-rule="evenodd" xlink:href="#path-1"></use>
                <rect stroke="#933031" stroke-width="1.2" x="0.6" y="0.6" width="48.8" height="48.8" rx="24.4"></rect>
            </g>
            <path d="M29.2751181,18.799524 C29.305107,18.6163026 29.3188561,18.4421476 29.3104871,18.2811439 L30.4666052,17.4942583 C30.9158413,17.2722804 31.3717528,17.302369 31.6125609,17.343417 C31.6313911,17.3469041 32.307786,17.4873838 32.6815018,17.2329262 C33.1416974,16.9199852 33.2625498,16.2909151 32.9480148,15.8315166 C32.7688782,15.5676937 32.4887159,15.4201402 32.1947048,15.3962288 C32.2803875,15.1150701 32.246214,14.7988413 32.0678745,14.53731 C31.7550332,14.075321 31.1259631,13.956262 30.6656679,14.2699004 C30.4085203,14.4447528 30.2551882,14.9041513 30.2070664,15.3361513 C30.1856458,15.5006421 30.0767491,16.0645535 29.623428,16.4734391 L28.5143358,17.2294391 C27.7843395,17.0306753 26.5952435,17.1768339 25.4032583,17.5207601 C26.6235387,17.7490148 27.8403321,18.1396679 29.0334133,18.6883358 L29.2751181,18.799524 Z" id="Shape" fill="#933031" fill-rule="nonzero"></path>
            <path d="M14.3530849,29.4187934 L23.5482288,29.4187934 C23.2930738,29.1860554 23.0631255,28.9251218 22.8653579,28.6345978 C21.9998635,27.36231 21.8505166,25.8248044 22.4448155,24.3049336 C22.9572177,22.994786 23.9751476,21.7940332 25.388214,20.8329926 C26.0108081,20.409262 26.7654133,20.021 27.5739188,19.6920185 C26.5043801,19.276059 25.3652989,18.9767675 24.1712214,18.8473469 C23.3321292,18.7560849 22.5087786,18.708262 21.7125277,18.708262 C16.6008598,18.708262 12.597786,20.7069594 12.597786,25.8566863 C12.597786,27.6120849 13.4755351,29.4187934 14.3530849,29.4187934 Z" id="Shape" fill="#933031" fill-rule="nonzero"></path>
            <path d="M26.2291993,22.068417 C23.9089926,23.6463727 22.8788081,25.9973653 24.1010812,27.7939114 C24.7340369,28.7241661 25.7791661,29.1756937 26.9618856,29.1756937 C28.0632066,29.1756937 29.2838856,28.7843432 30.4025424,28.0235609 C32.3909779,26.6693764 34.4069114,23.3909188 34.3134576,21.5060996 L35.710583,20.5565166 C36.1405904,20.3436052 36.6430295,20.2929926 37.0948561,20.3729963 C37.4992583,20.4445314 38.0490221,20.4703358 38.3881661,20.2392915 C38.9435092,19.8603948 39.0883727,19.1019041 38.7112694,18.5439705 C38.493476,18.2267454 38.1541328,18.0485055 37.7993469,18.0202103 C37.9021661,17.6799705 37.8628118,17.298583 37.6459151,16.9805609 C37.2661218,16.4222288 36.5064354,16.2795572 35.9504945,16.6582546 C35.6402435,16.8690738 35.4550295,17.4262103 35.396048,17.9472804 C35.3711402,18.1444502 35.2391292,18.8266236 34.6914576,19.3229852 L33.3501255,20.2358044 C33.0738487,20.1598856 32.742476,20.1246162 32.3735424,20.1246162 C30.5579668,20.1247159 27.828476,20.9799483 26.2291993,22.068417 Z" id="Shape" fill="#933031" fill-rule="nonzero"></path>
            <path d="M37.8261476,27.5790074 L35.6453247,27.1428229 C35.644428,27.1353506 35.6437306,27.1275793 35.6428339,27.1200074 C35.586941,26.6267343 35.3106642,25.9066015 34.7807269,25.0956052 C34.6524022,25.3383063 34.5276642,25.555203 34.4173727,25.737428 C33.5279668,27.2074834 32.3712509,28.4909299 31.2430295,29.2592841 C31.2128413,29.2798081 31.182155,29.2989373 31.1517675,29.3191624 C33.3991439,29.3191624 35.3217232,29.3191624 37.6538856,29.3191624 C38.1390886,29.3191624 38.5324317,28.9258192 38.5324317,28.4406162 C38.5324317,28.0216679 38.2368266,27.6611033 37.8261476,27.5790074 Z" id="Shape" fill="#933031" fill-rule="nonzero"></path>
            <path d="M37.977786,31.0128893 L12.9781771,31.0128893 C12.6759963,31.0128893 12.3950369,31.168214 12.2341328,31.4241661 C12.073428,31.6800185 12.0554945,32.000631 12.1866089,32.2729225 L12.9719004,33.9024871 C13.3388413,34.6636679 14.1091882,35.1475756 14.9541587,35.1475756 L36.0016052,35.1475756 C36.8465756,35.1475756 37.6170221,34.6636679 37.9839631,33.9024871 L38.7692546,32.2729225 C38.900369,32.0007306 38.8825351,31.6801181 38.7217306,31.4241661 C38.5610258,31.1681144 38.2800664,31.0128893 37.977786,31.0128893 Z" id="Shape" fill="#933031" fill-rule="nonzero"></path>
        </g>
    </g>
</svg>