<?xml version="1.0" encoding="UTF-8" standalone="no"?>
<svg width="50px" height="50px" viewBox="0 0 50 50" version="1.1" xmlns="http://www.w3.org/2000/svg" xmlns:xlink="http://www.w3.org/1999/xlink">
    <!-- Generator: Sketch 44.1 (41455) - http://www.bohemiancoding.com/sketch -->
    <title>icon-amenity-meeting</title>
    <desc>Created with Sketch.</desc>
    <defs>
        <rect id="path-1" x="0" y="0" width="50" height="50" rx="25"></rect>
    </defs>
    <g id="Icons" stroke="none" stroke-width="1" fill="none" fill-rule="evenodd">
        <g id="icon-amenity-meeting">
            <g id="Rectangle">
                <use fill="#FFFFFF" fill-rule="evenodd" xlink:href="#path-1"></use>
                <rect stroke="#933031" stroke-width="1.2" x="0.6" y="0.6" width="48.8" height="48.8" rx="24.4"></rect>
            </g>
            <path d="M16.7872426,34.9123673 L16.7952608,34.8939728 C16.9315102,34.5988345 17.1800136,34.3744444 17.5342268,34.2259909 L18.6574739,33.7087619 L18.7170204,33.6586485 C18.6742177,33.6094785 18.6324172,33.5589524 18.5919728,33.5066576 C18.0841769,32.8469887 17.8051927,31.9705351 17.7817279,30.9700363 L17.6261406,30.8989932 L17.0471247,30.4100635 L16.1167256,31.335805 L16.1160771,31.335805 L16.0091882,31.335746 L16.0085397,31.335746 L15.0781995,30.4100635 L14.4990658,30.8989932 L13.2938685,31.4537188 C13.1155238,31.5271202 12.9403039,31.6381361 12.851102,31.831102 C12.851102,31.831102 11.5410794,34.9500408 12.2516871,34.9500408 L16.7715011,34.9500408 C16.7803447,34.9291701 16.7857687,34.9161406 16.7872426,34.9123673 Z" id="Shape" fill="#933031" fill-rule="nonzero"></path>
            <path d="M13.8891565,27.5839637 C13.9100272,29.510263 14.9866395,30.6581542 16.0626621,30.6581542 C16.9819773,30.6581542 18.2151791,29.510263 18.2362268,27.5839637 C18.249551,26.2476463 17.6130522,25.447483 16.0626621,25.447483 C14.5122132,25.447424 13.8755964,26.2476463 13.8891565,27.5839637 Z" id="Shape" fill="#933031" fill-rule="nonzero"></path>
            <path d="M23.5395782,34.225932 C23.9041678,34.3785125 24.1623401,34.6155782 24.2868571,34.9136054 C24.2882132,34.9166122 24.2933424,34.929288 24.3022449,34.9499819 L25.7196871,34.9499819 C25.7285306,34.9291111 25.7340136,34.9161406 25.7355465,34.9123084 L25.7438594,34.8939138 C25.8798141,34.5987755 26.1284354,34.3743855 26.4823537,34.225932 L27.6058957,33.7087029 L27.6654422,33.6585896 C27.6224626,33.6094195 27.5806621,33.5588934 27.5402177,33.5065986 C27.0324807,32.8469297 26.7534376,31.9704762 26.7303265,30.9699773 L26.5747982,30.8989342 L25.9957823,30.4100045 L25.0650295,31.335746 L25.0646757,31.335746 L24.9574921,31.3356871 L24.9571383,31.3356871 L24.0265034,30.4100045 L23.4474875,30.8989342 L23.2917234,30.9700952 C23.2668435,31.9425306 22.9572608,32.8445125 22.415034,33.5173288 C22.3842585,33.555356 22.3529524,33.5919683 22.3210567,33.6284626 L22.416449,33.7087029 L23.5395782,34.225932 Z" id="Shape" fill="#933031" fill-rule="nonzero"></path>
            <path d="M25.010907,30.6581542 C25.9301633,30.6581542 27.1636599,29.5102041 27.1844127,27.5839048 C27.1979138,26.2475873 26.5612381,25.447424 25.010907,25.447424 C23.460517,25.447424 22.8240771,26.2475873 22.8375193,27.5839048 C22.8582132,29.5102041 23.9349433,30.6581542 25.010907,30.6581542 Z" id="Shape" fill="#933031" fill-rule="nonzero"></path>
            <path d="M37.1708299,31.8310431 C37.0931247,31.6459773 36.9064082,31.5270612 36.7280635,31.4536599 L35.5228073,30.8989342 L34.9437324,30.4100045 L34.0134512,31.335746 L34.0126848,31.335746 L33.9058549,31.3356871 L33.9051474,31.3356871 L32.9748662,30.4100045 L32.3957914,30.8989342 L32.2400862,30.9700952 C32.2150295,31.9425306 31.9054467,32.8445125 31.3629252,33.5173288 C31.3322676,33.555356 31.3009025,33.5919683 31.2690658,33.6284626 L31.364458,33.7087029 L32.4878231,34.225932 C32.8524717,34.3785125 33.110644,34.6155782 33.235102,34.9136054 C33.2363991,34.9166122 33.2418231,34.929288 33.2504898,34.9499819 L37.7703628,34.9499819 C38.4807937,34.9500408 37.1708299,31.8310431 37.1708299,31.8310431 Z" id="Shape" fill="#933031" fill-rule="nonzero"></path>
            <path d="M31.7857052,27.5839637 C31.806576,29.510263 32.8832472,30.6581542 33.9592109,30.6581542 C34.8785261,30.6581542 36.1118458,29.510263 36.1326576,27.5839637 C36.1461587,26.2476463 35.509542,25.447483 33.9592109,25.447483 C32.4087029,25.447424 31.7720272,26.2476463 31.7857052,27.5839637 Z" id="Shape" fill="#933031" fill-rule="nonzero"></path>
            <path d="M23.3055193,34.760966 L22.1004399,34.2058277 L21.5213061,33.7179592 L20.590966,34.6430522 L20.5901995,34.6430522 L20.4833107,34.6430522 L20.4827211,34.6430522 L19.552322,33.7179592 L18.9733061,34.2058277 L17.767932,34.760966 C17.5896463,34.8338367 17.4143673,34.9447347 17.3252834,35.138644 C17.3252834,35.138644 16.0152018,38.2577007 16.7258095,38.2577007 L24.3478776,38.2577007 C25.0584263,38.2577007 23.7484626,35.138644 23.7484626,35.138644 C23.6706984,34.9526349 23.4840408,34.8338367 23.3055193,34.760966 Z" id="Shape" fill="#933031" fill-rule="nonzero"></path>
            <path d="M20.5366667,28.7551429 C18.9862766,28.7551429 18.3497778,29.5547166 18.36322,30.8911519 C18.3842086,32.8168617 19.4608798,33.9657551 20.5366667,33.9657551 C21.4560408,33.9657551 22.6894785,32.8168617 22.7101723,30.8911519 C22.7239093,29.5546576 22.0870567,28.7551429 20.5366667,28.7551429 Z" id="Shape" fill="#933031" fill-rule="nonzero"></path>
            <path d="M32.253941,34.760966 L31.0485669,34.2058277 L30.46961,33.7179592 L29.5391519,34.6430522 L29.5386213,34.6430522 L29.4316145,34.6430522 L29.4310249,34.6430522 L28.5007438,33.7179592 L27.921551,34.2058277 L26.7165306,34.760966 C26.538127,34.8338367 26.3630249,34.9447347 26.2735283,35.138644 C26.2735283,35.138644 24.9636236,38.2577007 25.6741723,38.2577007 L33.2962404,38.2577007 C34.0068481,38.2577007 32.6967075,35.138644 32.6967075,35.138644 C32.6189433,34.9526349 32.4321678,34.8338367 32.253941,34.760966 Z" id="Shape" fill="#933031" fill-rule="nonzero"></path>
            <path d="M29.4851474,33.965932 C30.4044036,33.965932 31.6376644,32.8169796 31.6586531,30.8913288 C31.6719773,29.5547166 31.0355964,28.7553197 29.4851474,28.7553197 C27.9347574,28.7553197 27.2979048,29.5548345 27.3117596,30.8913288 C27.3323946,32.8169206 28.4089478,33.965932 29.4851474,33.965932 Z" id="Shape" fill="#933031" fill-rule="nonzero"></path>
            <path d="M24.2581451,20.2965351 C24.2894512,20.3120408 24.3232336,20.3195873 24.356898,20.3195873 C24.4048889,20.3195873 24.4527029,20.3041406 24.492263,20.2738957 L26.788517,18.5187483 C26.8437596,18.4765941 26.876127,18.411093 26.876127,18.3416417 C26.876127,18.2721315 26.8437007,18.2066893 26.788517,18.1644172 L24.492263,16.4093878 C24.4249342,16.3579184 24.3341406,16.3490748 24.2580862,16.3866893 C24.1820317,16.4242449 24.1339229,16.5017143 24.1339229,16.5865533 L24.1339229,20.0966122 C24.1339819,20.1814512 24.1820317,20.2588617 24.2581451,20.2965351 Z" id="Shape" fill="#933031" fill-rule="nonzero"></path>
            <path d="M13.2482948,24.6832834 L36.7734603,24.6832834 C36.9450839,24.6832834 37.0842222,24.5441451 37.0842222,24.3725215 L37.0842222,12.3107619 C37.0842222,12.1391383 36.9450839,12 36.7734603,12 L13.2482948,12 C13.0766712,12 12.9375329,12.1391383 12.9375329,12.3107619 L12.9375329,24.3725215 C12.9375329,24.5441451 13.0767302,24.6832834 13.2482948,24.6832834 Z M25.010966,14.7269932 C27.0072472,14.7269932 28.6256145,16.3453016 28.6256145,18.3416417 C28.6256145,20.3379819 27.0073061,21.9562313 25.010966,21.9562313 C23.0146848,21.9562313 21.3963175,20.3379819 21.3963175,18.3416417 C21.3962585,16.3453016 23.0146848,14.7269932 25.010966,14.7269932 Z" id="Shape" fill="#933031" fill-rule="nonzero"></path>
        </g>
    </g>
</svg>