<?xml version="1.0" encoding="UTF-8" standalone="no"?>
<svg width="50px" height="50px" viewBox="0 0 50 50" version="1.1" xmlns="http://www.w3.org/2000/svg" xmlns:xlink="http://www.w3.org/1999/xlink">
    <!-- Generator: Sketch 44.1 (41455) - http://www.bohemiancoding.com/sketch -->
    <title>icon-amenity-executive</title>
    <desc>Created with Sketch.</desc>
    <defs>
        <rect id="path-1" x="0" y="0" width="50" height="50" rx="25"></rect>
    </defs>
    <g id="Icons" stroke="none" stroke-width="1" fill="none" fill-rule="evenodd">
        <g id="icon-amenity-executive">
            <g id="Rectangle">
                <use fill="#FFFFFF" fill-rule="evenodd" xlink:href="#path-1"></use>
                <rect stroke="#933031" stroke-width="1.2" x="0.6" y="0.6" width="48.8" height="48.8" rx="24.4"></rect>
            </g>
            <path d="M25.205275,13.0000898 C25.171912,13.0000898 25.1404024,13.0084306 25.1088929,13.0084306 C25.0106573,13.0056503 24.9133484,12.9991631 24.8141861,13.0000898 L25.205275,13.0000898 Z M25.0532878,28.0820356 C25.0356796,28.0820356 25.0199248,28.0792553 25.0023165,28.0792553 C24.989342,28.0792553 24.9772942,28.0820356 24.9643197,28.0820356 L25.0532878,28.0820356 Z M19.5409729,22.5326506 C19.5548741,22.5298703 19.5650684,22.5150423 19.5798964,22.5113353 C20.4519691,25.6669225 22.7095345,28.028284 25.0032433,28.0783286 C27.09214,27.9819465 29.6573868,25.6632155 30.5118512,22.5233831 C30.9047936,22.5474786 31.2977361,22.0841031 31.4080194,21.4390844 C31.5220098,20.7662632 31.282908,20.1657285 30.8779179,20.0962222 C30.8519688,20.0915885 30.8250931,20.10827 30.8000708,20.1091967 C30.6823734,14.9166109 28.2153622,13.0853509 25.1088929,13.0065771 C21.9051147,13.0223318 19.0368203,15.2483877 19.2184635,20.1110502 C19.1878808,20.1110502 19.1591515,20.0915885 19.1294954,20.097149 C18.7226518,20.1666553 18.4854035,20.7671899 18.5993939,21.4400112 C18.710604,22.1109789 19.1332024,22.6003034 19.5409729,22.5326506 Z M29.3191227,28.9800573 L26.4081978,34.6758689 L25.9485293,30.9716452 L26.6667613,30.3822316 L24.9263229,30.3822316 L23.3350915,30.3822316 L24.0542503,30.9716452 L23.593655,34.6758689 L20.6864371,28.9800573 C15.6300837,29.6612193 12,31.8279631 12,37.0956158 L37.9999993,37.0956158 C38.0018528,31.8270364 34.3726959,29.662146 29.3191227,28.9800573 Z" id="Shape" fill="#933031" fill-rule="nonzero"></path>
        </g>
    </g>
</svg>