<?xml version="1.0" encoding="UTF-8" standalone="no"?>
<svg width="50px" height="50px" viewBox="0 0 50 50" version="1.1" xmlns="http://www.w3.org/2000/svg" xmlns:xlink="http://www.w3.org/1999/xlink">
    <!-- Generator: Sketch 44.1 (41455) - http://www.bohemiancoding.com/sketch -->
    <title>icon-amenity-spa</title>
    <desc>Created with Sketch.</desc>
    <defs>
        <rect id="path-1" x="0" y="0" width="50" height="50" rx="25"></rect>
    </defs>
    <g id="Icons" stroke="none" stroke-width="1" fill="none" fill-rule="evenodd">
        <g id="icon-amenity-spa">
            <g id="Rectangle">
                <use fill="#FFFFFF" fill-rule="evenodd" xlink:href="#path-1"></use>
                <rect stroke="#933031" stroke-width="1.2" x="0.6" y="0.6" width="48.8" height="48.8" rx="24.4"></rect>
            </g>
            <path d="M36.7092434,25.9061171 C38.5963499,26.1943935 39.9500008,26.7757415 39.9500008,26.7757415 C39.9500008,26.7757415 38.0652919,31.6731196 33.9303799,33.4148276 C32.7079259,33.9292863 31.425714,34.1103428 30.2261917,34.1103428 C29.6530819,34.1103428 29.1089287,34.0618356 28.5891214,33.9958069 C30.9089191,32.9269896 33.974522,31.0144306 35.8091867,27.8476328 C36.1758492,27.2147651 36.4675069,26.5629003 36.7092434,25.9061171 Z M14.140814,27.8466491 C15.9756017,31.0140002 19.0410816,32.927051 21.3613712,33.9958683 C20.8416253,34.0618971 20.2969804,34.1104042 19.7238705,34.1104042 C18.523795,34.1104042 17.2415831,33.9292863 16.0196209,33.4148891 C11.8841555,31.6731811 10,26.775803 10,26.775803 C10,26.775803 11.3536508,26.1943935 13.2413107,25.9061786 C13.4826168,26.5624084 13.7747664,27.2138429 14.140814,27.8466491 Z M28.9469308,31.4827798 C30.1342187,29.5903245 31.2916277,27.001432 31.2916277,24.0943842 C31.2916277,21.8969917 30.630418,19.881209 29.7950375,18.2103866 C32.3849752,16.4769783 34.9870858,15.8304621 34.9870858,15.8304621 C34.9870858,15.8304621 36.7699235,22.029664 34.0068601,26.8032843 C32.7407558,28.9888727 30.743048,30.4903812 28.9469308,31.4827798 Z M21.0036232,31.4827798 C19.2075675,30.4903812 17.2097983,28.9888727 15.9437554,26.8032843 C13.1806306,22.0297255 14.9634068,15.8304621 14.9634068,15.8304621 C14.9634068,15.8304621 17.5655174,16.4769783 20.1554551,18.2103866 C19.3200746,19.881209 18.6588649,21.8969917 18.6588649,24.0943842 C18.6588649,27.001432 19.8162739,29.5903245 21.0036232,31.4827798 Z M24.9754922,15 C24.9754922,15 29.2088326,19.0713424 29.2088326,24.0944456 C29.2088326,29.1166881 24.9754922,33.1883995 24.9754922,33.1883995 C24.9754922,33.1883995 20.741783,29.1166267 20.741783,24.0944456 C20.741783,19.0713424 24.9754922,15 24.9754922,15 Z" id="Combined-Shape" fill="#933031" fill-rule="nonzero"></path>
        </g>
    </g>
</svg>