<?xml version="1.0" encoding="UTF-8" standalone="no"?>
<svg width="50px" height="50px" viewBox="0 0 50 50" version="1.1" xmlns="http://www.w3.org/2000/svg" xmlns:xlink="http://www.w3.org/1999/xlink">
    <!-- Generator: Sketch 44.1 (41455) - http://www.bohemiancoding.com/sketch -->
    <title>icon-amenity-nonsmoking</title>
    <desc>Created with Sketch.</desc>
    <defs>
        <rect id="path-1" x="0" y="0" width="50" height="50" rx="25"></rect>
    </defs>
    <g id="Icons" stroke="none" stroke-width="1" fill="none" fill-rule="evenodd">
        <g id="icon-amenity-nonsmoking">
            <g id="Rectangle">
                <use fill="#FFFFFF" fill-rule="evenodd" xlink:href="#path-1"></use>
                <rect stroke="#933031" stroke-width="1.2" x="0.6" y="0.6" width="48.8" height="48.8" rx="24.4"></rect>
            </g>
            <g id="no-smoking-sign" stroke-width="1" fill-rule="evenodd" transform="translate(12.000000, 13.000000)" fill="#933031">
                <path d="M13.2094648,13.3218873 L14.3080563,14.4204789 L7.04929577,14.4204789 L0.549295775,14.4204789 C0.246084507,14.4204789 0,14.1743944 0,13.8711831 L0,9.78369014 C0,9.48047887 0.246084507,9.23439437 0.549295775,9.23439437 L7.04929577,9.23439437 L9.12197183,9.23439437 L10.2205634,10.3329859 L7.59859155,10.3329859 L7.59859155,13.3218873 L13.2094648,13.3218873 Z M24.070507,4.69098592 C24.3147606,5.01140845 24.545831,5.31388732 24.6754648,5.63980282 C24.9720845,6.3828169 24.6714366,7.34884507 24.0056901,7.79267606 C23.7530141,7.96112676 23.6849014,8.30205634 23.8533521,8.5543662 C23.9591831,8.71329577 24.133493,8.79898592 24.3107324,8.79898592 C24.4154648,8.79898592 24.5212958,8.76932394 24.6150423,8.70670423 C25.7074085,7.97870423 26.1823662,6.45276056 25.6960563,5.23295775 C25.5100282,4.76752113 25.2221972,4.38997183 24.9438873,4.02487324 C24.6937746,3.69676056 24.4575775,3.38695775 24.3297746,3.05225352 C24.0829577,2.4051831 24.2799718,1.60211268 24.7988732,1.14290141 C25.0259155,0.941859155 25.0471549,0.594704225 24.8461127,0.367661972 C24.6458028,0.140985915 24.2979155,0.118647887 24.0708732,0.320422535 C23.2088451,1.08357746 22.8928169,2.36819718 23.3033239,3.44371831 C23.4882535,3.92709859 23.7841408,4.31526761 24.070507,4.69098592 Z M25.5422535,9.78369014 L25.5422535,13.8711831 C25.5422535,14.1743944 25.296169,14.4204789 24.9929577,14.4204789 L23.0704225,14.4204789 L17.8444225,14.4204789 L24.9486479,21.5247042 C25.2346479,21.8107042 25.2346479,22.2743099 24.9486479,22.5603099 C24.8054648,22.703493 24.618338,22.7749014 24.4308451,22.7749014 C24.2433521,22.7749014 24.0562254,22.703493 23.9130423,22.5603099 L3.60264789,2.24991549 C3.31664789,1.96391549 3.31664789,1.50030986 3.60264789,1.21430986 C3.88864789,0.928309859 4.35225352,0.928309859 4.63825352,1.21430986 L12.6579718,9.23402817 L23.0704225,9.23402817 L24.9929577,9.23402817 C25.296169,9.23439437 25.5422535,9.48047887 25.5422535,9.78369014 Z M22.5211268,10.3329859 L13.7565634,10.3329859 L16.7454648,13.3218873 L22.5211268,13.3218873 L22.5211268,10.3329859 Z M24.443662,10.3329859 L23.6197183,10.3329859 L23.6197183,13.3218873 L24.443662,13.3218873 L24.443662,10.3329859 Z" id="Shape" fill-rule="nonzero"></path>
            </g>
        </g>
    </g>
</svg>