<?xml version="1.0" encoding="UTF-8" standalone="no"?>
<svg width="50px" height="50px" viewBox="0 0 50 50" version="1.1" xmlns="http://www.w3.org/2000/svg" xmlns:xlink="http://www.w3.org/1999/xlink">
    <!-- Generator: Sketch 44.1 (41455) - http://www.bohemiancoding.com/sketch -->
    <title>icon-amenity-gamesroom</title>
    <desc>Created with Sketch.</desc>
    <defs>
        <rect id="path-1" x="0" y="0" width="50" height="50" rx="25"></rect>
    </defs>
    <g id="Icons" stroke="none" stroke-width="1" fill="none" fill-rule="evenodd">
        <g id="icon-amenity-gamesroom">
            <g id="Rectangle">
                <use fill="#FFFFFF" fill-rule="evenodd" xlink:href="#path-1"></use>
                <rect stroke="#933031" stroke-width="1.2" x="0.6" y="0.6" width="48.8" height="48.8" rx="24.4"></rect>
            </g>
            <path d="M35.4337518,33.205303 L33.6359565,33.205303 L29.7625532,27.0266763 L25.5032987,27.0266763 L24.4972428,27.0266763 L20.2379884,27.0266763 L16.3643142,33.205303 L14.566519,33.205303 C13.1492947,33.205303 12,32.0564144 12,30.638784 L12.5702473,21.6560354 C12.5702473,21.6271981 12.5737673,21.6047239 12.5744443,21.5777821 C12.5740381,21.5489448 12.5702473,21.5211906 12.5702473,21.4920825 C12.5702473,18.4590222 15.0292695,16 18.0623298,16 C19.3197982,16 20.190197,16.4272793 21.1158334,17.1387346 C22.3005993,16.7949886 22.8900715,16.4986279 24.496972,16.4100852 L25.503028,16.4100852 C27.1097931,16.4986279 27.6994007,16.7949886 28.8841666,17.1387346 C29.8100738,16.4272793 30.6802018,16 31.9376702,16 C34.9707305,16 37.4297527,18.4590222 37.4297527,21.4920825 C37.4297527,21.5211906 37.4258265,21.5489448 37.4255557,21.5777821 C37.4262327,21.6044532 37.4297527,21.6273335 37.4297527,21.6560354 L38,30.638784 C37.9998646,32.0564144 36.8513822,33.205303 35.4337518,33.205303 Z M30.7064668,23.3809928 C31.3650569,23.3809928 31.8989497,22.8471 31.8989497,22.1885099 C31.8989497,21.5299197 31.3650569,20.9960269 30.7064668,20.9960269 C30.0478766,20.9960269 29.5139838,21.5299197 29.5139838,22.1885099 C29.5139838,22.8471 30.0478766,23.3809928 30.7064668,23.3809928 Z M32.6303068,21.4581005 C33.2888969,21.4581005 33.8227897,20.9242077 33.8227897,20.2656176 C33.8227897,19.6070275 33.2888969,19.0731347 32.6303068,19.0731347 C31.9717166,19.0731347 31.4378238,19.6070275 31.4378238,20.2656176 C31.4378238,20.9242077 31.9717166,21.4581005 32.6303068,21.4581005 Z M17.5012888,19.8989914 L15.7455986,19.8989914 L15.7455986,21.5669512 L14.0777742,21.5669512 L14.0777742,23.3226413 L15.7455986,23.3226413 L15.7455986,24.9904657 L17.5012888,24.9904657 L17.5012888,23.3226413 L19.1692486,23.3226413 L19.1692486,21.5669512 L17.5012888,21.5669512 L17.5012888,19.8989914 Z M34.553876,23.3812636 C35.2124661,23.3812636 35.7463589,22.8473708 35.7463589,22.1887806 C35.7463589,21.5301905 35.2124661,20.9962977 34.553876,20.9962977 C33.8952858,20.9962977 33.361393,21.5301905 33.361393,22.1887806 C33.361393,22.8473708 33.8952858,23.3812636 34.553876,23.3812636 Z M32.630036,25.3051035 C33.2886261,25.3051035 33.8225189,24.7712107 33.8225189,24.1126206 C33.8225189,23.4540305 33.2886261,22.9201377 32.630036,22.9201377 C31.9714458,22.9201377 31.437553,23.4540305 31.437553,24.1126206 C31.437553,24.7712107 31.9714458,25.3051035 32.630036,25.3051035 Z" id="Combined-Shape" fill="#933031" fill-rule="nonzero"></path>
        </g>
    </g>
</svg>