<?xml version="1.0" encoding="UTF-8" standalone="no"?>
<svg width="50px" height="50px" viewBox="0 0 50 50" version="1.1" xmlns="http://www.w3.org/2000/svg" xmlns:xlink="http://www.w3.org/1999/xlink">
    <!-- Generator: Sketch 44.1 (41455) - http://www.bohemiancoding.com/sketch -->
    <title>icon-amenity-pets</title>
    <desc>Created with Sketch.</desc>
    <defs>
        <rect id="path-1" x="0" y="0" width="50" height="50" rx="25"></rect>
    </defs>
    <g id="Icons" stroke="none" stroke-width="1" fill="none" fill-rule="evenodd">
        <g id="icon-amenity-pets">
            <g id="Rectangle">
                <use fill="#FFFFFF" fill-rule="evenodd" xlink:href="#path-1"></use>
                <rect stroke="#933031" stroke-width="1.2" x="0.6" y="0.6" width="48.8" height="48.8" rx="24.4"></rect>
            </g>
            <path d="M38.9632441,18.9537761 C38.9068925,18.8043934 38.790572,18.6854077 38.642522,18.6256293 L36.1544826,17.6218338 C35.9999598,16.8180614 35.3894202,16.1743327 34.603797,15.9713906 L34.4695811,14.4253375 C34.4499722,14.1991059 34.2981782,14.006 34.082925,13.9334663 C33.8677354,13.8609961 33.6300177,13.9228686 33.4774621,14.0910986 L32.8389371,14.7954307 L32.4442217,13.4141808 C32.3761936,13.1760824 32.1624635,13.0089312 31.9149097,13.0003643 C31.6658963,12.9915435 31.4425204,13.1436548 31.3581833,13.3765496 L28.4093042,21.5116839 C28.4093042,21.5116839 17.4862865,22.0215774 17.4817174,22.0218313 C15.2418664,22.1564279 13.1198589,20.9579401 12.0770996,18.9682447 C11.9305726,18.6888979 11.5854188,18.5810175 11.3061355,18.727481 C11.0267252,18.8739446 10.9189718,19.2190984 11.0653718,19.4984452 C11.9975854,21.2772026 13.6486633,22.5286153 15.5418374,22.9842514 C15.3453047,23.2132751 14.9230481,23.7809164 14.6761289,24.6733412 C14.4076336,25.6436937 14.3108586,27.1905718 15.2980912,29.1547566 L13.6968921,31.3296255 C13.6033535,31.4566071 13.5665472,31.6166509 13.5951673,31.7718083 L14.2998801,35.593186 C14.3498224,35.8640293 14.5860805,36.0606889 14.8615563,36.0606889 L15.5794052,36.0606889 C15.7487774,36.0606889 15.9093923,35.9854899 16.0179708,35.8555258 C16.1264857,35.7254347 16.1716686,35.5539048 16.1413352,35.3873248 L15.695091,32.9360917 L20.4165086,29.3917127 C20.4248218,29.3854303 20.4085128,29.3985029 20.4165086,29.3917127 C20.8679564,29.0125449 21.195659,28.5949208 21.4300767,28.1655568 C23.8908287,28.5975861 27.2584107,29.1821709 29.4168438,29.5297997 L30.3678412,35.5783366 C30.4115645,35.8560969 30.6508686,36.0607524 30.9320557,36.0607524 L31.5227327,36.0607524 C31.8381877,36.0607524 32.0938642,35.8050758 32.0938642,35.4896208 L32.0938642,29.3497028 C32.6300298,28.9835441 32.8216762,28.3711641 32.9487847,27.7714125 C32.9527826,27.7525652 34.219362,21.90678 34.219362,21.90678 C34.458095,21.9465688 34.699176,21.9674469 34.9420338,21.9674469 C36.6145608,21.9674469 38.1462087,20.9882101 38.9391297,19.411887 C39.0108384,19.269358 39.0195957,19.1032221 38.9632441,18.9537761 Z" id="Shape" fill="#933031" fill-rule="nonzero"></path>
        </g>
    </g>
</svg>