<?xml version="1.0" encoding="UTF-8" standalone="no"?>
<svg width="50px" height="50px" viewBox="0 0 50 50" version="1.1" xmlns="http://www.w3.org/2000/svg" xmlns:xlink="http://www.w3.org/1999/xlink">
    <!-- Generator: Sketch 44.1 (41455) - http://www.bohemiancoding.com/sketch -->
    <title>icon-amenity-fitness</title>
    <desc>Created with Sketch.</desc>
    <defs>
        <rect id="path-1" x="0" y="0" width="50" height="50" rx="25"></rect>
    </defs>
    <g id="Icons" stroke="none" stroke-width="1" fill="none" fill-rule="evenodd">
        <g id="icon-amenity-fitness">
            <g id="Rectangle">
                <use fill="#FFFFFF" fill-rule="evenodd" xlink:href="#path-1"></use>
                <rect stroke="#933031" stroke-width="1.2" x="0.6" y="0.6" width="48.8" height="48.8" rx="24.4"></rect>
            </g>
            <g id="Group-4" stroke-width="1" fill-rule="evenodd" transform="translate(11.000000, 12.000000)" fill="#933031">
                <path d="M27.0634464,4.62753216 L26.3202183,4.62753216 C26.3202183,3.23741131 26.3202183,3.53776998 26.3202183,2.13891618 C26.3202183,1.88156725 26.1116101,1.67295906 25.8542612,1.67295906 L24.581271,1.67295906 C24.323922,1.67295906 24.1153138,1.88156725 24.1153138,2.13891618 C24.1153138,3.53782456 24.1153138,3.23724756 24.1153138,4.62753216 L22.4882027,4.62753216 C22.5560468,3.91481481 22.0311969,3.29073684 21.3358363,3.21721637 C20.6205536,3.14178558 19.986269,3.66461598 19.9118207,4.36881871 L19.8844756,4.62747758 L17.6418558,4.62747758 C16.9802807,6.05591423 15.5523899,6.97816764 13.9706901,6.97816764 C12.3672125,6.97816764 10.9514386,6.03495517 10.2995244,4.62747758 L8.06509162,4.62747758 L8.03774659,4.36881871 C7.96269786,3.65937622 7.32262768,3.14216764 6.61373099,3.21716179 C5.91929825,3.29068226 5.39341131,3.91405068 5.46136452,4.62758674 L3.8299961,4.62758674 C3.8299961,3.23746589 3.8299961,3.53782456 3.8299961,2.13897076 C3.8299961,1.88162183 3.62138791,1.67301365 3.36403899,1.67301365 L2.09104873,1.67301365 C1.83369981,1.67301365 1.62509162,1.88162183 1.62509162,2.13897076 C1.62509162,3.53787914 1.62509162,3.23730214 1.62509162,4.62758674 L0.88197271,4.62758674 C0.394838207,4.62753216 0,5.02237037 0,5.50950487 C0,5.9965848 0.394838207,6.39147758 0.88197271,6.39147758 L1.6251462,6.39147758 C1.6251462,7.78159844 1.6251462,7.48123977 1.6251462,8.88009357 C1.6251462,9.1374425 1.83380897,9.34605068 2.09110331,9.34605068 L3.36409357,9.34605068 C3.6214425,9.34605068 3.83005068,9.13738791 3.83005068,8.88009357 C3.83005068,7.48118519 3.83005068,7.78176218 3.83005068,6.39147758 L5.64710331,6.39147758 C5.70293957,6.91922027 6.09755945,10.6507524 6.15585185,11.2026199 C6.27292788,12.3100117 7.66801559,12.7782066 8.41888499,11.9185575 L10.2389396,9.83569591 L10.2389396,14.790768 L5.52959064,16.7041014 C4.97985185,16.9274464 4.5882885,17.4236413 4.49877583,18.0102222 L3.55922027,24.1697856 C3.41894737,25.0892008 4.0505575,25.9481404 4.96991813,26.0883587 C5.88927875,26.228577 6.7482729,25.5970214 6.88849123,24.6776608 L7.68384405,19.4639298 L12.0403821,17.6939259 L15.9076569,17.6939259 L20.2641949,19.4639298 L21.0595478,24.6776608 C21.1998207,25.5971306 22.0587602,26.228577 22.9781209,26.0883587 C23.8974815,25.9480858 24.529037,25.0891462 24.3888187,24.1697856 L23.4492086,18.0101676 C23.3596959,17.4235867 22.9681326,16.9274464 22.4183938,16.7040468 L17.6717115,14.7754854 L17.6717115,9.79126706 L19.5304639,11.9185029 C20.2613021,12.7550097 21.673037,12.3405224 21.7934971,11.2025653 C21.8517349,10.6516257 22.2466277,6.91823782 22.3023548,6.391423 L24.1153684,6.391423 C24.1153684,7.78154386 24.1153684,7.48118519 24.1153684,8.88003899 C24.1153684,9.13738791 24.3240312,9.3459961 24.5813255,9.3459961 L25.8543158,9.3459961 C26.1116647,9.3459961 26.3202729,9.13733333 26.3202729,8.88003899 C26.3202729,7.4811306 26.3202729,7.7817076 26.3202729,6.391423 L27.063501,6.391423 C27.5505809,6.391423 27.9454737,5.9965848 27.9454737,5.50945029 C27.9454191,5.02237037 27.5505809,4.62753216 27.0634464,4.62753216 Z M8.4197037,7.98136452 C8.34989474,7.32104483 8.32063938,7.04502924 8.25153996,6.391423 L9.80895127,6.391423 C9.24469396,7.03727875 8.99182066,7.32666667 8.4197037,7.98136452 Z M19.5296998,7.98136452 C18.8859727,7.24468616 19.7128733,8.19095517 18.1403977,6.391423 L19.697809,6.391423 C19.5672515,7.62604288 19.5993996,7.32191813 19.5296998,7.98136452 Z" id="Shape" fill-rule="nonzero"></path>
                <circle id="Oval" fill-rule="nonzero" cx="13.9706901" cy="2.93377778" r="2.9082885"></circle>
            </g>
        </g>
    </g>
</svg>