<?xml version="1.0" encoding="UTF-8" standalone="no"?>
<svg width="50px" height="50px" viewBox="0 0 50 50" version="1.1" xmlns="http://www.w3.org/2000/svg" xmlns:xlink="http://www.w3.org/1999/xlink">
    <!-- Generator: Sketch 44.1 (41455) - http://www.bohemiancoding.com/sketch -->
    <title>icon-amenity-inroomsafe</title>
    <desc>Created with Sketch.</desc>
    <defs>
        <rect id="path-1" x="0" y="0" width="50" height="50" rx="25"></rect>
    </defs>
    <g id="Icons" stroke="none" stroke-width="1" fill="none" fill-rule="evenodd">
        <g id="icon-amenity-inroomsafe">
            <g id="Rectangle">
                <use fill="#FFFFFF" fill-rule="evenodd" xlink:href="#path-1"></use>
                <rect stroke="#933031" stroke-width="1.2" x="0.6" y="0.6" width="48.8" height="48.8" rx="24.4"></rect>
            </g>
            <path d="M34.9878923,12 L15.011964,12 C13.9025096,12 13,12.9025096 13,14.011964 L13,33.9878923 C13,35.0489159 13.8257675,35.9208148 14.8682523,35.9948264 L14.8682523,36.550847 C14.8682523,36.947635 15.1900228,37.2694056 15.5868109,37.2694056 L17.6227747,37.2694056 C18.0195628,37.2694056 18.3413333,36.947635 18.3413333,36.550847 L18.3413333,35.9998563 L31.4430991,35.9998563 L31.4430991,36.5507033 C31.4430991,36.9474913 31.7648697,37.2692619 32.1616577,37.2692619 L34.1976216,37.2692619 C34.5944096,37.2692619 34.9161801,36.9474913 34.9161801,36.5507033 L34.9161801,35.9998563 L34.988036,35.9998563 C36.0974904,35.9998563 37,35.0973467 37,33.9878923 L37,14.011964 C36.9998563,12.9025096 36.097203,12 34.9878923,12 Z M34.9160364,32.0118562 C34.9160364,33.061814 34.061814,33.9160364 33.0118562,33.9160364 L16.7724325,33.9160364 C15.7224747,33.9160364 14.8682523,33.061814 14.8682523,32.0118562 L14.8682523,15.8442884 C14.8682523,14.7943306 15.7224747,13.9401081 16.7724325,13.9401081 L33.0118562,13.9401081 C34.061814,13.9401081 34.9160364,14.7943306 34.9160364,15.8442884 L34.9160364,32.0118562 Z M22.4912965,23.9640002 C22.4912965,24.8752762 21.7498877,25.6166849 20.8386117,25.6166849 C19.9273358,25.6166849 19.185927,24.8752762 19.185927,23.9640002 C19.185927,23.0527242 19.9273358,22.3113155 20.8386117,22.3113155 C21.7498877,22.3113155 22.4912965,23.0527242 22.4912965,23.9640002 Z M33.0118562,15.3772253 L16.7724325,15.3772253 C16.5149011,15.3772253 16.3053694,15.586757 16.3053694,15.8442884 L16.3053694,32.0118562 C16.3053694,32.2693876 16.5149011,32.4789193 16.7724325,32.4789193 L33.0118562,32.4789193 C33.2693876,32.4789193 33.4789193,32.2693876 33.4789193,32.0118562 L33.4789193,15.8442884 C33.4789193,15.586757 33.2693876,15.3772253 33.0118562,15.3772253 Z M20.8386117,27.0538021 C19.1349094,27.0538021 17.7488099,25.6677026 17.7488099,23.9640002 C17.7488099,22.2602978 19.1349094,20.8741984 20.8386117,20.8741984 C22.5423141,20.8741984 23.9284136,22.2602978 23.9284136,23.9640002 C23.9284136,25.6677026 22.5423141,27.0538021 20.8386117,27.0538021 Z M26.5346255,27.0657301 L26.1855498,27.0657301 C25.7887617,27.0657301 25.4669912,26.7439596 25.4669912,26.3471716 C25.4669912,25.9503835 25.7887617,25.628613 26.1855498,25.628613 L26.5346255,25.628613 C26.9314136,25.628613 27.2531841,25.9503835 27.2531841,26.3471716 C27.2531841,26.7439596 26.9314136,27.0657301 26.5346255,27.0657301 Z M26.5346255,24.7184867 L26.1855498,24.7184867 C25.7887617,24.7184867 25.4669912,24.3967162 25.4669912,23.9999281 C25.4669912,23.6031401 25.7887617,23.2813696 26.1855498,23.2813696 L26.5346255,23.2813696 C26.9314136,23.2813696 27.2531841,23.6031401 27.2531841,23.9999281 C27.2531841,24.3967162 26.9314136,24.7184867 26.5346255,24.7184867 Z M26.5346255,22.3712433 L26.1855498,22.3712433 C25.7887617,22.3712433 25.4669912,22.0494728 25.4669912,21.6526847 C25.4669912,21.2558967 25.7887617,20.9341261 26.1855498,20.9341261 L26.5346255,20.9341261 C26.9314136,20.9341261 27.2531841,21.2558967 27.2531841,21.6526847 C27.2531841,22.0494728 26.9314136,22.3712433 26.5346255,22.3712433 Z M28.9777247,27.0657301 L28.6286489,27.0657301 C28.2318609,27.0657301 27.9100904,26.7439596 27.9100904,26.3471716 C27.9100904,25.9503835 28.2318609,25.628613 28.6286489,25.628613 L28.9777247,25.628613 C29.3745127,25.628613 29.6962833,25.9503835 29.6962833,26.3471716 C29.6962833,26.7439596 29.3745127,27.0657301 28.9777247,27.0657301 Z M28.9777247,24.7184867 L28.6286489,24.7184867 C28.2318609,24.7184867 27.9100904,24.3967162 27.9100904,23.9999281 C27.9100904,23.6031401 28.2318609,23.2813696 28.6286489,23.2813696 L28.9777247,23.2813696 C29.3745127,23.2813696 29.6962833,23.6031401 29.6962833,23.9999281 C29.6962833,24.3967162 29.3745127,24.7184867 28.9777247,24.7184867 Z M28.9777247,22.3712433 L28.6286489,22.3712433 C28.2318609,22.3712433 27.9100904,22.0494728 27.9100904,21.6526847 C27.9100904,21.2558967 28.2318609,20.9341261 28.6286489,20.9341261 L28.9777247,20.9341261 C29.3745127,20.9341261 29.6962833,21.2558967 29.6962833,21.6526847 C29.6962833,22.0494728 29.3745127,22.3712433 28.9777247,22.3712433 Z M31.4208238,27.0657301 L31.0717481,27.0657301 C30.67496,27.0657301 30.3531895,26.7439596 30.3531895,26.3471716 C30.3531895,25.9503835 30.67496,25.628613 31.0717481,25.628613 L31.4208238,25.628613 C31.8176119,25.628613 32.1393824,25.9503835 32.1393824,26.3471716 C32.1393824,26.7439596 31.8176119,27.0657301 31.4208238,27.0657301 Z M31.4208238,24.7184867 L31.0717481,24.7184867 C30.67496,24.7184867 30.3531895,24.3967162 30.3531895,23.9999281 C30.3531895,23.6031401 30.67496,23.2813696 31.0717481,23.2813696 L31.4208238,23.2813696 C31.8176119,23.2813696 32.1393824,23.6031401 32.1393824,23.9999281 C32.1393824,24.3967162 31.8176119,24.7184867 31.4208238,24.7184867 Z M31.4208238,22.3712433 L31.0717481,22.3712433 C30.67496,22.3712433 30.3531895,22.0494728 30.3531895,21.6526847 C30.3531895,21.2558967 30.67496,20.9341261 31.0717481,20.9341261 L31.4208238,20.9341261 C31.8176119,20.9341261 32.1393824,21.2558967 32.1393824,21.6526847 C32.1393824,22.0494728 31.8176119,22.3712433 31.4208238,22.3712433 Z" id="Shape" fill="#933031" fill-rule="nonzero"></path>
        </g>
    </g>
</svg>