<?xml version="1.0" encoding="UTF-8" standalone="no"?>
<svg width="50px" height="50px" viewBox="0 0 50 50" version="1.1" xmlns="http://www.w3.org/2000/svg" xmlns:xlink="http://www.w3.org/1999/xlink">
    <!-- Generator: Sketch 44.1 (41455) - http://www.bohemiancoding.com/sketch -->
    <title>icon-amenity-rate</title>
    <desc>Created with Sketch.</desc>
    <defs>
        <rect id="path-1" x="0" y="0" width="50" height="50" rx="25"></rect>
    </defs>
    <g id="Icons" stroke="none" stroke-width="1" fill="none" fill-rule="evenodd">
        <g id="icon-amenity-rate">
            <g id="Rectangle">
                <use fill="#FFFFFF" fill-rule="evenodd" xlink:href="#path-1"></use>
                <rect stroke="#933031" stroke-width="1.2" x="0.6" y="0.6" width="48.8" height="48.8" rx="24.4"></rect>
            </g>
            <g id="Group-2" stroke-width="1" fill-rule="evenodd" transform="translate(15.000000, 12.000000)" fill="#933031">
                <path d="M18.6862837,0 L2.14282717,0 C1.0024975,0 0.044955045,0.927602398 0.044955045,2.06793207 L0.044955045,24.6353646 C0.044955045,25.7756943 1.0024975,26.7032967 2.14282717,26.7032967 L16.6765235,26.7032967 L20.7242757,22.6255145 L20.7242757,2.06793207 C20.7242757,0.927602398 19.8266134,0 18.6862837,0 Z M1.48351648,24.6353646 L1.48351648,2.06793207 C1.48351648,1.72096903 1.79586414,1.43856144 2.14282717,1.43856144 L18.6862837,1.43856144 C19.0332468,1.43856144 19.2857143,1.72096903 19.2857143,2.06793207 L19.2857143,21.5784216 L15.5994006,21.5784216 L15.5994006,25.2647353 L2.14282717,25.2647353 C1.79586414,25.2647353 1.48351648,24.9823277 1.48351648,24.6353646 Z" id="Shape" fill-rule="nonzero"></path>
                <rect id="Rectangle-path" fill-rule="nonzero" x="3.01198801" y="4.40559441" width="7.37262737" height="1.43856144" rx="0.719280719"></rect>
                <rect id="Rectangle-path" fill-rule="nonzero" x="3.01198801" y="7.37262737" width="14.8351648" height="1.43856144" rx="0.719280719"></rect>
                <rect id="Rectangle-path" fill-rule="nonzero" x="3.01198801" y="10.3396603" width="14.8351648" height="1.43856144" rx="0.719280719"></rect>
                <rect id="Rectangle-path" fill-rule="nonzero" x="3.01198801" y="13.3066933" width="14.8351648" height="1.43856144" rx="0.719280719"></rect>
                <path d="M8.02519481,20.4931169 L6.87587606,19.2716865 L6.87587606,19.2716865 C6.60366066,18.9823915 6.14846683,18.9685449 5.85917083,19.2407592 L5.85917083,19.2407592 L5.85917083,19.2407592 C5.56987271,19.5129756 5.55601872,19.9681707 5.82822674,20.2574767 L8.09226773,22.6637263 L11.7371043,18.2755507 L11.7371043,18.2755507 C11.9908986,17.9699967 11.9489392,17.5165554 11.6433852,17.262761 C11.6433757,17.2627531 11.6433662,17.2627452 11.6433566,17.2627373 L11.6433566,17.2627373 L11.6433566,17.2627373 C11.3377692,17.0089417 10.8843022,17.0509153 10.6304908,17.3564897 L8.02519481,20.4931169 Z" id="Shape" fill-rule="nonzero"></path>
            </g>
        </g>
    </g>
</svg>