<?xml version="1.0" encoding="UTF-8" standalone="no"?>
<svg width="50px" height="50px" viewBox="0 0 50 50" version="1.1" xmlns="http://www.w3.org/2000/svg" xmlns:xlink="http://www.w3.org/1999/xlink">
    <!-- Generator: Sketch 44.1 (41455) - http://www.bohemiancoding.com/sketch -->
    <title>icon-amenity-convention</title>
    <desc>Created with Sketch.</desc>
    <defs>
        <rect id="path-1" x="0" y="0" width="50" height="50" rx="25"></rect>
    </defs>
    <g id="Icons" stroke="none" stroke-width="1" fill="none" fill-rule="evenodd">
        <g id="icon-amenity-convention">
            <g id="Rectangle">
                <use fill="#FFFFFF" fill-rule="evenodd" xlink:href="#path-1"></use>
                <rect stroke="#933031" stroke-width="1.2" x="0.6" y="0.6" width="48.8" height="48.8" rx="24.4"></rect>
            </g>
            <path d="M21.8849405,14.8318985 C21.8828304,14.7899356 21.8816733,14.7480408 21.8816392,14.7060779 C21.8816392,14.7048868 21.8816733,14.7037296 21.8816733,14.7026065 C21.8816733,14.7017898 21.8816392,14.7008368 21.8816392,14.6999179 C21.8816392,14.6923966 21.8822178,14.6849774 21.8822178,14.6773539 C21.8825581,14.6447502 21.8832048,14.6120443 21.8847363,14.5792023 C21.8856552,14.5561279 21.8874589,14.5332916 21.8890244,14.5103192 C21.8901816,14.4938132 21.8912026,14.4773752 21.8927681,14.460835 C21.8953206,14.430988 21.8985878,14.4014472 21.9021272,14.3719745 C21.9030121,14.364283 21.903965,14.3566596 21.904986,14.3490361 C22.0772278,13.0238533 23.2094767,12 24.5815572,12 C26.0726176,12 27.2815091,13.2088575 27.2814751,14.699952 C27.2814751,14.720508 27.280352,14.7407577 27.2798755,14.7611776 C27.2804881,14.7625389 27.2808625,14.7638322 27.2814751,14.7651254 C27.2807944,14.7663506 27.2802839,14.7676779 27.2796713,14.7689372 C27.2429836,16.2281085 26.0495091,17.399938 24.5814891,17.399938 C23.1347058,17.399938 21.9537555,16.2618354 21.8849405,14.8318985 Z M24.5278188,22.4544054 C22.7715381,22.4544054 21.0120242,22.4544054 19.2229014,22.4544054 C19.1316245,20.8898334 18.9286508,20.5027063 19.2436617,19.6200906 C19.8038133,18.2009422 21.6179504,18.0941462 21.8658138,18.0599088 C22.1399509,18.022098 22.4231067,18.0512304 22.7196375,18.0512304 C23.0388685,19.1343694 23.1570656,20.2521202 23.7510122,21.2565065 C23.8594758,20.6032743 23.7510122,21.2565065 24.0438334,19.4156875 C23.735459,18.3119924 24.0438334,19.4156875 23.6637171,18.0600449 C23.9609967,18.0600449 25.1483793,18.0600449 25.4454887,18.0600449 C25.2041596,18.9156043 25.4454887,18.0600449 25.0653384,19.4156875 C25.3581596,21.2565065 25.249696,20.6032743 25.3581596,21.2565065 C25.9521402,20.2521202 26.0704054,19.1343354 26.3896023,18.0512304 C26.6861332,18.0512304 26.969289,18.022098 27.243358,18.0599088 C27.4912895,18.0941462 29.3053585,18.2009422 29.8655442,19.6200906 C30.180521,20.5026723 29.9775813,20.8897993 29.8863384,22.4544054 C28.0974539,22.4544054 26.3378039,22.4544054 24.5815572,22.4544054 C24.5637238,22.4544054 24.5456182,22.4544054 24.5278188,22.4544054 Z M19.2382504,25.4458853 L29.7692984,25.4458853 L28.4079724,38 L20.5996105,38 L19.2382504,25.4458853 Z M34.0445769,22.9551351 L33.0235824,27.3517418 L30.1448202,27.3517418 L30.4142607,24.8670155 L18.5932541,24.8670155 L18.8626946,27.3517418 L16.0209945,27.3517418 L15,22.9551351 L34.0445769,22.9551351 Z" id="Combined-Shape" fill="#933031" fill-rule="nonzero"></path>
        </g>
    </g>
</svg>