<?xml version="1.0" encoding="UTF-8" standalone="no"?>
<svg width="50px" height="50px" viewBox="0 0 50 50" version="1.1" xmlns="http://www.w3.org/2000/svg" xmlns:xlink="http://www.w3.org/1999/xlink">
    <!-- Generator: Sketch 44.1 (41455) - http://www.bohemiancoding.com/sketch -->
    <title>icon-amenity-wheelchair</title>
    <desc>Created with Sketch.</desc>
    <defs>
        <rect id="path-1" x="0" y="0" width="50" height="50" rx="25"></rect>
    </defs>
    <g id="Icons" stroke="none" stroke-width="1" fill="none" fill-rule="evenodd">
        <g id="icon-amenity-wheelchair">
            <g id="Rectangle">
                <use fill="#FFFFFF" fill-rule="evenodd" xlink:href="#path-1"></use>
                <rect stroke="#933031" stroke-width="1.2" x="0.6" y="0.6" width="48.8" height="48.8" rx="24.4"></rect>
            </g>
            <path d="M34.7304372,35.8912987 L33.0349027,28.5440166 C32.845895,27.7878841 32.1692351,27.2599117 31.3898956,27.2599117 L28.0954126,27.2599117 C27.6293424,26.4946893 27.0216943,25.8237169 26.3032922,25.284014 L26.3032922,20.4777231 C26.3032922,19.1998642 24.9346873,18.4183919 23.8493909,18.9609893 L20.458322,20.6565238 C19.8801777,20.945469 19.5267911,21.5266601 19.5267911,22.1732575 L19.5267911,24.3418699 C19.5162794,24.3454754 19.5056153,24.3466433 19.4952052,24.3507058 C16.7645461,25.417264 15,28.0011653 15,30.9335781 C15,34.8291585 18.1692057,37.9983643 22.0647861,37.9983643 C25.9866205,37.9983643 29.2804433,34.7509047 29.1170293,30.6509806 L30.0661813,30.6509806 L31.4404737,36.7142593 C31.6669072,37.6182668 32.5770084,38.1791962 33.4970119,37.9478369 C34.4034568,37.7212511 34.9567691,36.7987085 34.7304372,35.8912987 Z M22.0646846,36.3028298 C19.1040881,36.3028298 16.6954837,33.8941745 16.6954837,30.9336289 C16.6954837,28.9243172 17.7914949,27.1389 19.5267403,26.2111269 L19.5267403,28.3903018 C19.5267403,29.3252858 20.2816541,30.0858363 21.2166381,30.0858363 C22.151622,30.0858363 22.9121725,29.3252858 22.9121725,28.3903018 L22.9121725,25.61526 C22.9541178,25.6300881 22.9963678,25.6444084 23.0416139,25.6527365 C25.5865659,26.1201778 27.4339363,28.3411964 27.4339363,30.9336797 C27.4338855,33.8941745 25.025281,36.3028298 22.0646846,36.3028298 Z M24.8906092,12 C26.2930344,12 27.4339363,13.1408511 27.4339363,14.5433271 C27.4339363,15.9458031 26.2930852,17.0866541 24.8906092,17.0866541 C23.4881332,17.0866541 22.3472821,15.9458031 22.3472821,14.5433271 C22.3472821,13.1408511 23.488184,12 24.8906092,12 Z" id="Combined-Shape" fill="#933031" fill-rule="nonzero"></path>
        </g>
    </g>
</svg>