<?xml version="1.0" encoding="UTF-8" standalone="no"?>
<svg width="50px" height="50px" viewBox="0 0 50 50" version="1.1" xmlns="http://www.w3.org/2000/svg" xmlns:xlink="http://www.w3.org/1999/xlink">
    <!-- Generator: Sketch 44.1 (41455) - http://www.bohemiancoding.com/sketch -->
    <title>icon-amenity-dataport</title>
    <desc>Created with Sketch.</desc>
    <defs>
        <rect id="path-1" x="0" y="0" width="50" height="50" rx="25"></rect>
    </defs>
    <g id="Icons" stroke="none" stroke-width="1" fill="none" fill-rule="evenodd">
        <g id="icon-amenity-dataport">
            <g id="Rectangle">
                <use fill="#FFFFFF" fill-rule="evenodd" xlink:href="#path-1"></use>
                <rect stroke="#933031" stroke-width="1.2" x="0.6" y="0.6" width="48.8" height="48.8" rx="24.4"></rect>
            </g>
            <path d="M36.4102308,28.0405 L19.2307692,28.0405 L19.2307692,20.3886538 C19.2307692,19.7088846 18.6797692,19.1578846 18,19.1578846 C17.3202308,19.1578846 16.7692308,19.7088846 16.7692308,20.3886538 L16.7692308,28.0405 L14.641,28.0405 C14.3011538,28.0405 14,28.2795769 14,28.6194231 L14,36.2348077 C14,36.5746538 14.3011538,36.8866538 14.641,36.8866538 L36.4102308,36.8866538 C36.7500769,36.8866538 37,36.5746538 37,36.2348077 L37,28.6194231 C37,28.2795769 36.7500769,28.0405 36.4102308,28.0405 Z M33.1794615,33.3501923 C32.4996923,33.3501923 31.9486923,32.7991923 31.9486923,32.1194231 C31.9486923,31.4396538 32.4996923,30.8886538 33.1794615,30.8886538 C33.8592308,30.8886538 34.4102308,31.4396538 34.4102308,32.1194231 C34.4102308,32.7991923 33.8592308,33.3501923 33.1794615,33.3501923 Z M26.3931538,20.3373462 C26.3931538,18.5386538 25.6927692,16.8476538 24.4206923,15.5758077 C24.0601538,15.2152692 24.0601538,14.6308846 24.4206923,14.2703462 C24.7811538,13.9098846 25.3655385,13.9098846 25.7261538,14.2703462 C27.3467692,15.8908077 28.2392308,18.0455 28.2392308,20.3373462 C28.2392308,22.6291154 27.3466923,24.7838077 25.7261538,26.4042692 C25.546,26.5845 25.3096154,26.6746538 25.0734615,26.6746538 C24.8372308,26.6746538 24.601,26.5845 24.4207692,26.4042692 C24.0602308,26.0437308 24.0602308,25.4592692 24.4207692,25.0988077 C25.6927692,23.8269615 26.3931538,22.1360385 26.3931538,20.3373462 Z M22.0536154,24.3888077 C21.6931538,24.0283462 21.6931538,23.4438077 22.0535385,23.0833462 C22.7870769,22.3498846 23.1910769,21.3746538 23.1910769,20.3373462 C23.1910769,19.2999615 22.7870769,18.3247308 22.0535385,17.5912692 C21.693,17.2308077 21.693,16.6463462 22.0535385,16.2858077 C22.414,15.9253462 22.9983846,15.9251923 23.359,16.2858077 C24.4411538,17.3678846 25.0372308,18.8068077 25.0372308,20.3373462 C25.0372308,21.8678077 24.4411538,23.3066538 23.359,24.3888077 C23.1787692,24.5690385 22.9424615,24.6591923 22.7063077,24.6591923 C22.4700769,24.6591923 22.2338462,24.5690385 22.0536154,24.3888077 Z" id="Combined-Shape" fill="#933031" fill-rule="nonzero"></path>
        </g>
    </g>
</svg>