<?xml version="1.0" encoding="UTF-8" standalone="no"?>
<svg width="50px" height="50px" viewBox="0 0 50 50" version="1.1" xmlns="http://www.w3.org/2000/svg" xmlns:xlink="http://www.w3.org/1999/xlink">
    <!-- Generator: Sketch 44.1 (41455) - http://www.bohemiancoding.com/sketch -->
    <title>icon-amenity-jacuzzi</title>
    <desc>Created with Sketch.</desc>
    <defs>
        <rect id="path-1" x="0" y="0" width="50" height="50" rx="25"></rect>
    </defs>
    <g id="Icons" stroke="none" stroke-width="1" fill="none" fill-rule="evenodd">
        <g id="icon-amenity-jacuzzi">
            <g id="Rectangle">
                <use fill="#FFFFFF" fill-rule="evenodd" xlink:href="#path-1"></use>
                <rect stroke="#933031" stroke-width="1.2" x="0.6" y="0.6" width="48.8" height="48.8" rx="24.4"></rect>
            </g>
            <path d="M15.8722354,24.5223294 C15.6621867,24.3410861 15.6401095,24.023595 15.8209322,23.8138616 C15.8339683,23.7989333 17.1655387,22.2249342 16.3098896,21.1481978 C15.1688139,19.7118133 15.8636148,18.5391987 16.3901034,18.1194166 C16.6067753,17.9467939 16.92311,17.981802 17.0961532,18.1994201 C17.2678297,18.4150407 17.2332421,18.7286421 17.0203548,18.9017904 C16.8972482,19.0057635 16.3344899,19.5633704 17.0966788,20.5230977 C18.4708267,22.2528987 16.6586042,24.3817713 16.5808083,24.4715519 C16.4816712,24.586143 16.3415336,24.6450156 16.2007651,24.6450156 C16.0841765,24.6450156 15.9671674,24.604751 15.8722354,24.5223294 Z M20.2683311,22.5125686 C20.0583874,22.3313253 20.0363102,22.0139393 20.2170279,21.8039957 C20.2300639,21.7890673 21.5617394,20.2150682 20.7059852,19.1383318 C19.5649095,17.7019473 20.2597104,16.5293327 20.786199,16.1095506 C21.0032915,15.9368228 21.3193108,15.971936 21.4922488,16.1895541 C21.6639253,16.4051748 21.6293377,16.7187761 21.4164504,16.8919244 C21.2933438,16.9958975 20.7305855,17.5536095 21.4927745,18.5132317 C22.8668172,20.2431378 21.0545947,22.3720104 20.9767988,22.461791 C20.8777668,22.5763822 20.7376292,22.6352547 20.5968608,22.6352547 C20.4802721,22.6352547 20.363263,22.5949901 20.2683311,22.5125686 Z M24.1602255,22.5125686 C23.9507024,22.3313253 23.9280996,22.0139393 24.1089223,21.8039957 C24.1219584,21.7890673 25.4533185,20.2150682 24.5978797,19.1383318 C23.4569091,17.7019473 24.1516049,16.5293327 24.6780935,16.1095506 C24.8947654,15.9368228 25.2112053,15.971936 25.3841433,16.1895541 C25.5559249,16.4051748 25.5213373,16.7187761 25.3081347,16.8919244 C25.1856588,16.9958975 24.62248,17.5536095 25.384669,18.5132317 C26.7587117,20.2431378 24.9464892,22.3720104 24.8684831,22.461791 C24.7696613,22.5763822 24.6295237,22.6352547 24.4887553,22.6352547 C24.3721666,22.6352547 24.2551575,22.5949901 24.1602255,22.5125686 Z M34.3783935,24.0907728 C32.8522489,24.0907728 31.6150643,22.8535882 31.6150643,21.3274436 C31.6150643,19.801299 32.8522489,18.5641144 34.3783935,18.5641144 C35.9045381,18.5641144 37.1417227,19.801299 37.1417227,21.3274436 C37.1417227,22.8535882 35.9045381,24.0907728 34.3783935,24.0907728 Z M15.0140632,34.0777609 C13.35144,34.0777609 11.9994745,32.7253749 12.0000002,31.0631722 L12.0000002,28.2027033 C12.0000002,25.8019658 21.8249837,25.5085494 24.3999208,25.473331 C24.5806385,25.5528089 24.7800691,25.5973838 24.9901179,25.5988556 C27.0825106,25.6121019 28.5578981,25.800494 29.5607285,26.0109633 L29.0460144,26.5928551 C27.8263018,26.5183183 26.4799082,26.4731126 24.9996847,26.4731126 C17.5870029,26.4731126 13.3700479,27.5687724 13.012923,28.2027033 C13.2800571,28.6776785 15.7159078,29.4121132 20.0396744,29.7507354 C20.1277729,29.7576739 20.2225997,29.7629304 20.3119598,29.7693433 C20.5884504,29.7895282 20.8656769,29.8096079 21.1570959,29.8268491 C21.3254083,29.8361005 21.5047592,29.8434596 21.6782229,29.8517648 C21.9030949,29.8625932 22.1236567,29.8748933 22.3574647,29.8837242 C22.6154525,29.8936064 22.8873174,29.8994936 23.1557131,29.9067476 C23.3178228,29.9112681 23.4726785,29.9171554 23.6384678,29.920099 C24.0795912,29.9284043 24.533225,29.9328197 25.0000001,29.9328197 C25.3260067,29.9328197 25.6378208,29.9278786 25.9507914,29.9234632 C25.9989407,29.9298761 26.0475105,29.9352377 26.0951342,29.9411249 C26.3222139,29.9464865 26.6386538,29.9518481 27.0086045,29.9528994 C27.1224598,29.7914205 27.2589179,29.6114388 27.4423689,29.3949771 C25.916414,29.3684845 25.0033642,29.051519 24.9321915,29.0249212 C24.4111697,28.8345317 24.1432997,28.2575809 24.3341098,27.7365591 C24.524289,27.2173244 25.0968244,26.9490339 25.6172154,27.1359542 C25.6555877,27.1497261 27.0484486,27.6039908 29.3157768,27.2487581 C29.6311653,26.890687 29.9392999,26.5428135 30.2204162,26.2253224 C30.4049185,26.0177967 30.6310521,25.8243584 30.8740064,25.6424844 C29.8199779,25.3244676 28.0723049,25.0021405 25.2708137,24.9834274 C24.7155196,24.9799582 24.2688243,24.52685 24.2725039,23.9719764 C24.275868,23.4195208 24.7250864,22.9737717 25.2765958,22.9737717 C25.2793292,22.9737717 25.2817472,22.9737717 25.2837446,22.9737717 C26.7196035,22.9833385 27.9138747,23.0696498 28.9177564,23.1994848 C29.2264167,22.6391445 29.5138408,21.802629 28.9942907,21.1486183 C27.8536355,19.7122338 28.5483313,18.5395141 29.0742943,18.1200473 C29.2917021,17.9470042 29.6077214,17.9821174 29.7808697,18.1997355 C29.9525462,18.4153561 29.9177483,18.7289575 29.7042303,18.9021058 C29.5816493,19.0060789 29.018891,19.5637909 29.7808697,20.5234131 C30.5453715,21.486084 30.3236534,22.5709154 29.9624284,23.3601227 C31.8338388,23.705368 32.8386667,24.2077819 33.3410806,24.5558657 C33.6429074,24.5021445 33.9368495,24.4729185 34.2061913,24.4891085 C35.4834098,24.5654325 36.5872696,25.7705321 36.2565322,27.1177668 C36.0931609,27.7870212 35.8718633,28.3811081 35.6461503,28.8811041 C35.7737775,28.8325342 35.9037176,28.7854362 36.0230395,28.7329766 C36.1603387,28.6730528 36.2806069,28.6284778 36.3939365,28.5915774 C36.3986673,28.5892645 36.4046597,28.5872671 36.4096008,28.5848491 C36.4616399,28.5627719 36.5028506,28.5411152 36.547005,28.519038 C36.5975723,28.4945429 36.650032,28.4700477 36.6921889,28.4464987 C36.730456,28.4244215 36.758,28.4038161 36.788908,28.3827902 C36.8231803,28.3596617 36.8600807,28.3362178 36.8860477,28.313615 C36.9097018,28.2930096 36.922843,28.2739811 36.9395586,28.2542168 C36.9557486,28.2351883 36.9728847,28.2164753 36.9827669,28.198393 C36.9110685,28.076653 36.6960787,27.937777 36.3468384,27.7940649 C36.3891005,27.6498272 36.4298908,27.5025408 36.4671066,27.3499979 C36.5107353,27.1724341 36.5338638,26.993714 36.5392254,26.8161502 C37.4327212,27.174747 38,27.6276449 38,28.2027033 L38,31.0631722 C38,32.72548 36.6481396,34.0777609 34.9854113,34.0777609 L15.0140632,34.0777609 Z" id="Combined-Shape" fill="#933031" fill-rule="nonzero"></path>
        </g>
    </g>
</svg>