<?xml version="1.0" encoding="UTF-8" standalone="no"?>
<svg width="50px" height="50px" viewBox="0 0 50 50" version="1.1" xmlns="http://www.w3.org/2000/svg" xmlns:xlink="http://www.w3.org/1999/xlink">
    <!-- Generator: Sketch 44.1 (41455) - http://www.bohemiancoding.com/sketch -->
    <title>icon-amenity-water</title>
    <desc>Created with Sketch.</desc>
    <defs>
        <rect id="path-1" x="0" y="0" width="50" height="50" rx="25"></rect>
    </defs>
    <g id="Icons" stroke="none" stroke-width="1" fill="none" fill-rule="evenodd">
        <g id="icon-amenity-water">
            <g id="Rectangle">
                <use fill="#FFFFFF" fill-rule="evenodd" xlink:href="#path-1"></use>
                <rect stroke="#933031" stroke-width="1.2" x="0.6" y="0.6" width="48.8" height="48.8" rx="24.4"></rect>
            </g>
            <path d="M30.0785063,19.9714618 C28.3058863,17.0456378 26.3342942,14.5133888 25.3167382,13.2643181 C25.1805684,13.0970406 24.9762485,12.9999348 24.7605812,13 C24.5448486,13 24.340594,13.0971058 24.204359,13.2643833 C23.1868682,14.5138453 21.215276,17.0469421 19.4426561,19.9730269 C17.1582908,23.7439774 16,26.8617303 16,29.239484 C16,34.0700544 19.9299456,38 24.760516,38 C29.5910863,38 33.5210319,34.0700544 33.5210319,29.239484 C33.5210972,26.8601651 32.3629368,23.7419557 30.0785063,19.9714618 Z M25.9626968,34.7733373 C25.4511471,34.9041594 24.9201633,34.9704183 24.3841579,34.9704183 C21.1112575,34.9704183 18.4485776,32.4968631 18.4485776,29.4564557 C18.4485776,28.7224563 18.6422674,27.8648737 19.0241036,26.907642 C19.0886016,26.7459077 19.2723787,26.6536279 19.4535471,26.6927572 C19.634585,26.731756 19.7561465,26.8895773 19.7374949,27.0612242 C19.7151913,27.2665223 19.7038438,27.4670597 19.7038438,27.6570322 C19.7038438,30.9657358 22.3699148,33.7364776 25.9053724,34.1016839 C26.0813236,34.119879 26.218602,34.2514837 26.2326233,34.4155004 C26.2467099,34.5795171 26.1333655,34.729643 25.9626968,34.7733373 Z" id="Shape" fill="#933031" fill-rule="nonzero"></path>
        </g>
    </g>
</svg>