<?xml version="1.0" encoding="UTF-8" standalone="no"?>
<svg width="50px" height="50px" viewBox="0 0 50 50" version="1.1" xmlns="http://www.w3.org/2000/svg" xmlns:xlink="http://www.w3.org/1999/xlink">
    <!-- Generator: Sketch 44.1 (41455) - http://www.bohemiancoding.com/sketch -->
    <title>icon-amenity-smokefree</title>
    <desc>Created with Sketch.</desc>
    <defs>
        <rect id="path-1" x="0" y="0" width="50" height="50" rx="25"></rect>
    </defs>
    <g id="Icons" stroke="none" stroke-width="1" fill="none" fill-rule="evenodd">
        <g id="icon-amenity-smokefree">
            <g id="Rectangle">
                <use fill="#FFFFFF" fill-rule="evenodd" xlink:href="#path-1"></use>
                <rect stroke="#933031" stroke-width="1.2" x="0.6" y="0.6" width="48.8" height="48.8" rx="24.4"></rect>
            </g>
            <g id="Group-2" stroke-width="1" fill-rule="evenodd" transform="translate(12.000000, 11.000000)" fill="#933031">
                <path d="M1.21304126,14.8512697 L20.5609409,14.8512697 C23.3660573,14.8512697 25.6480052,12.5691891 25.6480052,9.76420547 C25.6480052,6.96333742 23.3726069,4.68386778 20.5731107,4.67722971 C20.2973209,4.67306985 18.5065904,4.69785199 17.1694172,6.00161356 C16.273543,6.87505106 15.8194104,8.07521446 15.8194104,9.56860362 C15.8194104,10.2280297 16.353908,10.7625715 17.0133783,10.7625715 C17.6728043,10.7625715 18.2072576,10.2279854 18.2072576,9.56860362 C18.2072576,8.75070466 18.4151178,8.12964665 18.8248196,7.72282135 C19.4633578,7.08866422 20.4566789,7.06582925 20.5361145,7.06503268 C20.5472665,7.06538671 20.5458504,7.06520969 20.5608967,7.06520969 C22.0491966,7.06520969 23.2600694,8.27599401 23.2600694,9.76420547 C23.2600694,11.2525054 22.0492851,12.4632898 20.5608967,12.4632898 L1.21304126,12.4632898 C0.553615196,12.4632898 0.0190733932,12.9978758 0.0190733932,13.6572576 C0.0190733932,14.3166837 0.553615196,14.8512697 1.21304126,14.8512697 Z" id="Shape" fill-rule="nonzero"></path>
                <path d="M1.21304126,10.1743056 L10.435226,10.1743056 C13.2401654,10.1743056 15.5222018,7.89222495 15.5222018,5.08724129 C15.5222018,2.28619621 13.246892,0.0066380719 10.4473073,0.000265522876 C10.1682428,-0.00362881264 8.3803445,0.0212418301 7.04352533,1.32464937 C6.14773965,2.19817538 5.69351852,3.39833878 5.69351852,4.89172794 C5.69351852,5.551154 6.22801607,6.08578431 6.88748638,6.08578431 C7.5469567,6.08578431 8.08136574,5.55119826 8.08136574,4.89172794 C8.08136574,4.07382898 8.2892259,3.45277097 8.6989277,3.04594567 C9.33737745,2.41187704 10.3306985,2.38886506 10.4103996,2.38806849 C10.4215516,2.38842252 10.420047,2.38824551 10.4351818,2.38824551 C11.9233932,2.38824551 13.1342661,3.59902982 13.1342661,5.08724129 C13.1342661,6.57554126 11.9234818,7.78632557 10.4351818,7.78632557 L1.21304126,7.78632557 C0.553615196,7.78632557 0.0190733932,8.32091163 0.0190733932,8.98038194 C0.0190733932,9.63985226 0.553615196,10.1743056 1.21304126,10.1743056 Z" id="Shape" fill-rule="nonzero"></path>
                <path d="M20.5609409,16.909072 L1.21304126,16.909072 C0.553615196,16.909072 0.0190733932,17.4436581 0.0190733932,18.1030399 C0.0190733932,18.7623775 0.553570942,19.2970078 1.21304126,19.2970078 L20.5609409,19.2970078 C22.0492409,19.2970078 23.2601137,20.5077921 23.2601137,21.9960035 C23.2601137,23.4843035 22.0493294,24.6950878 20.5609409,24.6950878 C20.5459389,24.6950878 20.5473107,24.6948223 20.5361588,24.6952648 C20.4566347,24.6944683 19.4633136,24.6715448 18.8248638,24.0374762 C18.415162,23.6306509 18.2073019,23.0095929 18.2073019,22.1916054 C18.2073019,21.5321793 17.6728486,20.997549 17.0134225,20.997549 C16.3539965,20.997549 15.8194547,21.5321351 15.8194547,22.1916054 C15.8194547,23.6850831 16.2735873,24.8852465 17.1694615,25.758684 C18.4527778,27.010049 20.1524782,27.0834218 20.5324857,27.0833333 C20.5484613,27.0833333 20.562003,27.0832448 20.573155,27.0830678 C23.3726511,27.0764297 25.6480494,24.7969601 25.6480494,21.996092 C25.6480494,19.1910641 23.3660573,16.909072 20.5609409,16.909072 Z" id="Shape" fill-rule="nonzero"></path>
            </g>
        </g>
    </g>
</svg>