<?xml version="1.0" encoding="UTF-8" standalone="no"?>
<svg width="50px" height="50px" viewBox="0 0 50 50" version="1.1" xmlns="http://www.w3.org/2000/svg" xmlns:xlink="http://www.w3.org/1999/xlink">
    <!-- Generator: Sketch 44.1 (41455) - http://www.bohemiancoding.com/sketch -->
    <title>icon-amenity-balcony</title>
    <desc>Created with Sketch.</desc>
    <defs>
        <rect id="path-1" x="0" y="0" width="50" height="50" rx="25"></rect>
    </defs>
    <g id="Icons" stroke="none" stroke-width="1" fill="none" fill-rule="evenodd">
        <g id="icon-amenity-balcony">
            <g id="Rectangle">
                <use fill="#FFFFFF" fill-rule="evenodd" xlink:href="#path-1"></use>
                <rect stroke="#933031" stroke-width="1.2" x="0.6" y="0.6" width="48.8" height="48.8" rx="24.4"></rect>
            </g>
            <path d="M36.897306,27.7622222 L35.4946238,27.7622222 L32.3386394,27.7622222 L32.3386394,20.3982417 C32.3386394,16.337731 29.0352203,13.0342612 24.9746589,13.0342612 C20.9140975,13.0342612 17.6106784,16.337731 17.6106784,20.3982417 L17.6106784,27.7622222 L14.454694,27.7622222 L13.0520117,27.7622222 C12.4710409,27.7622222 12,28.2332632 12,28.8142339 C12,29.3952047 12.4710409,29.8662456 13.0520117,29.8662456 L13.4026823,29.8662456 L13.4026823,35.1262534 C13.4026823,35.7072242 13.8737232,36.1782651 14.454694,36.1782651 L35.4946745,36.1782651 C36.0756452,36.1782651 36.5466862,35.7072242 36.5466862,35.1262534 L36.5466862,29.8662456 L36.8973567,29.8662456 C37.4783275,29.8662456 37.9493684,29.3952047 37.9493684,28.8142339 C37.9493684,28.2332632 37.4783275,27.7622222 36.897306,27.7622222 Z M17.6106784,34.0742417 L15.506655,34.0742417 L15.506655,29.8662456 L17.6106277,29.8662456 L17.6106277,34.0742417 L17.6106784,34.0742417 Z M23.9226472,15.2440585 L23.9226472,20.3982417 L19.7146511,20.3982417 C19.7146511,17.8580975 21.5246667,15.7328382 23.9226472,15.2440585 Z M19.7146511,22.5022144 L23.9226472,22.5022144 L23.9226472,27.7622222 L19.7146511,27.7622222 L19.7146511,22.5022144 Z M21.8186745,34.0742417 L19.7147018,34.0742417 L19.7147018,29.8662456 L21.8186745,29.8662456 L21.8186745,34.0742417 Z M26.0266706,34.0742417 L23.9226472,34.0742417 L23.9226472,29.8662456 L26.0266706,29.8662456 L26.0266706,34.0742417 Z M30.2346667,34.0742417 L28.1306433,34.0742417 L28.1306433,29.8662456 L30.2346667,29.8662456 L30.2346667,34.0742417 Z M30.2346667,27.7622222 L26.0266706,27.7622222 L26.0266706,22.5022144 L30.2346667,22.5022144 L30.2346667,27.7622222 Z M26.0266706,20.3982417 L26.0266706,15.2440585 C28.4246511,15.7328382 30.2346667,17.8580468 30.2346667,20.3982417 L26.0266706,20.3982417 Z M34.4426628,34.0742417 L32.3386394,34.0742417 L32.3386394,29.8662456 L34.4426628,29.8662456 L34.4426628,34.0742417 Z" id="Shape" fill="#933031" fill-rule="nonzero"></path>
        </g>
    </g>
</svg>