<?xml version="1.0" encoding="UTF-8" standalone="no"?>
<svg width="50px" height="50px" viewBox="0 0 50 50" version="1.1" xmlns="http://www.w3.org/2000/svg" xmlns:xlink="http://www.w3.org/1999/xlink">
    <!-- Generator: Sketch 44.1 (41455) - http://www.bohemiancoding.com/sketch -->
    <title>icon-amenity-roomservice24</title>
    <desc>Created with Sketch.</desc>
    <defs>
        <rect id="path-1" x="0" y="0" width="50" height="50" rx="25"></rect>
    </defs>
    <g id="Icons" stroke="none" stroke-width="1" fill="none" fill-rule="evenodd">
        <g id="icon-amenity-roomservice24">
            <g id="Rectangle">
                <use fill="#FFFFFF" fill-rule="evenodd" xlink:href="#path-1"></use>
                <rect stroke="#933031" stroke-width="1.2" x="0.6" y="0.6" width="48.8" height="48.8" rx="24.4"></rect>
            </g>
            <g id="Group-2" stroke-width="1" fill-rule="evenodd" transform="translate(11.000000, 11.000000)" fill="#933031">
                <g id="Group-3" transform="translate(0.000000, 9.011998)" fill-rule="nonzero">
                    <path d="M6.68136561,9.44050471 C6.69429455,9.22991815 6.70722349,9.01902129 6.7348397,8.80600408 C6.78588315,8.30094799 6.89557228,7.79382327 7.00764032,7.30050666 C7.07585341,7.05444308 7.14975523,6.81137902 7.22727715,6.57374512 C7.32641625,6.34179994 7.42343502,6.11109595 7.5201952,5.88577039 C7.73921143,5.44592787 7.98408554,5.03494274 8.27638301,4.69092952 C8.34578555,4.60228871 8.41456751,4.51638884 8.48190143,4.43017867 C8.55880276,4.35327734 8.63575581,4.27875493 8.7099162,4.20423253 C8.8664598,4.06273821 9.00221367,3.90950442 9.15849869,3.79712608 C9.4699827,3.56642209 9.74557597,3.34709556 10.026134,3.21128998 C10.2965557,3.06043511 10.5284491,2.92949081 10.7375359,2.855589 C11.1473316,2.69066744 11.3798973,2.60776708 11.3798973,2.60776708 C11.3798973,2.60776708 11.1815674,2.76518985 10.8349167,3.02056226 C10.655825,3.13743988 10.4659765,3.32190998 10.2400303,3.51087936 C10.0044651,3.69110878 9.79118927,3.9494807 9.53762691,4.19709575 C9.41081987,4.3235925 9.31235307,4.48251502 9.19242422,4.6288189 C9.13414057,4.7033413 9.07435715,4.77843258 9.01271197,4.85476504 C8.96285798,4.93890658 8.91119393,5.0233067 8.8589093,5.10951687 C8.6350835,5.44122174 8.46778303,5.83058968 8.29344921,6.22564635 C8.22192631,6.43235423 8.14957597,6.64206163 8.07562244,6.85383766 C8.02514786,7.07404336 7.96929484,7.29662798 7.90832196,7.51838515 C7.81668164,7.9741044 7.72685137,8.43892563 7.68806455,8.91688267 C7.66106892,9.09023389 7.64813998,9.26508486 7.63190123,9.4411253 C11.4296996,9.44174589 14.3691199,9.44412482 18.4821258,9.44412482 C18.4959339,9.26384369 18.503743,9.08118363 18.503743,8.89764441 C18.503743,5.43367124 15.9794451,2.58071974 12.7311784,2.20278099 C12.9408858,2.00662312 13.0736918,1.72839234 13.0736918,1.41892525 C13.0748813,0.8240906 12.5929939,0.342772042 11.9993487,0.342772042 C11.4050829,0.342772042 10.9226266,0.8240906 10.9226266,1.41892525 C10.9226266,1.72901293 11.0548121,2.0065714 11.2650884,2.20278099 C8.0170802,2.58071974 5.49345465,5.43367124 5.49345465,8.89764441 C5.49345465,9.08061476 5.50002255,9.26084417 5.51357208,9.44055643 C5.9146795,9.44050471 6.30192709,9.44050471 6.68136561,9.44050471 Z" id="Shape"></path>
                    <rect id="Rectangle-path" x="4.30942238" y="9.84125012" width="15.3798526" height="1.35681462"></rect>
                    <path d="M13.3752981,12.161219 C12.5936145,12.5409678 9.86803888,13.5239809 9.86803888,13.5239809 L6.64619889,13.3221343 C6.64619889,13.3221343 8.48908992,12.8095795 9.2034914,12.6491572 C9.91913405,12.4893038 9.60785691,11.6823828 9.21217964,11.6823828 C8.8165541,11.6823828 5.36845767,11.8247563 5.36845767,11.8247563 L3.07884592,12.6491572 L3.68479946,16.4845012 C3.68479946,16.4845012 4.15618859,15.6775285 4.62638826,15.6775285 C5.09834626,15.6775285 9.18637348,15.7862868 9.74128356,15.6775285 C10.2965039,15.5675291 13.6781973,13.2541798 14.0831834,12.9843787 C14.4863595,12.7158188 14.1600331,11.7809013 13.3752981,12.161219 Z" id="Shape"></path>
                    <polygon id="Shape" points="0 13.0613835 0 18.0329744 3.50787985 17.3761843 2.63031516 12.5986309"></polygon>
                </g>
                <path d="M14.9256366,7.83722939 C15.1727443,7.2498422 15.7560718,6.62803129 16.6756366,5.97177801 C17.473673,5.40059459 17.9901609,4.99145517 18.2251157,4.74434745 C18.58565,4.35950756 18.7659144,3.93821548 18.7659144,3.48045856 C18.7659144,3.10777151 18.6626168,2.79787878 18.4560185,2.55077106 C18.2494203,2.30366334 17.9537056,2.18011134 17.5688657,2.18011134 C17.0422427,2.18011134 16.6837394,2.37657928 16.4933449,2.76952106 C16.3839694,2.99637405 16.3191552,3.35690285 16.2989005,3.85111828 L14.6157407,3.85111828 C14.6440974,3.10169324 14.779802,2.49608587 15.0228588,2.03427801 C15.4846667,1.15522268 16.304971,0.715701617 17.4837963,0.715701617 C18.4155139,0.715701617 19.1568259,0.973945562 19.7077546,1.4904412 C20.2586833,2.00693684 20.5341435,2.69052375 20.5341435,3.54122245 C20.5341435,4.19342479 20.339701,4.7727014 19.9508102,5.27906967 C19.6956006,5.61529821 19.2763339,5.99000511 18.6929977,6.40320162 L18.0002894,6.89538912 C17.5668381,7.20326103 17.2701108,7.42605972 17.1100984,7.56379189 C16.950086,7.70152407 16.8153941,7.86153404 16.7060185,8.04382662 L20.5523727,8.04382662 L20.5523727,9.56900023 L14.5185185,9.56900023 C14.5347223,8.93705262 14.670427,8.35980145 14.9256366,7.83722939 Z M27.5584491,7.67316689 L26.5619213,7.67316689 L26.5619213,9.56900023 L24.8666088,9.56900023 L24.8666088,7.67316689 L21.3787616,7.67316689 L21.3787616,6.16014606 L24.6174769,0.812923839 L26.5619213,0.812923839 L26.5619213,6.31813217 L27.5584491,6.31813217 L27.5584491,7.67316689 Z M24.8666088,6.31813217 L24.8666088,2.51431273 L22.6608796,6.31813217 L24.8666088,6.31813217 Z" id="24"></path>
            </g>
        </g>
    </g>
</svg>