<?xml version="1.0" encoding="UTF-8" standalone="no"?>
<svg width="50px" height="50px" viewBox="0 0 50 50" version="1.1" xmlns="http://www.w3.org/2000/svg" xmlns:xlink="http://www.w3.org/1999/xlink">
    <!-- Generator: Sketch 44.1 (41455) - http://www.bohemiancoding.com/sketch -->
    <title>icon-amenity-tennis</title>
    <desc>Created with Sketch.</desc>
    <defs>
        <rect id="path-1" x="0" y="0" width="50" height="50" rx="25"></rect>
    </defs>
    <g id="Icons" stroke="none" stroke-width="1" fill="none" fill-rule="evenodd">
        <g id="icon-amenity-tennis">
            <g id="Rectangle">
                <use fill="#FFFFFF" fill-rule="evenodd" xlink:href="#path-1"></use>
                <rect stroke="#933031" stroke-width="1.2" x="0.6" y="0.6" width="48.8" height="48.8" rx="24.4"></rect>
            </g>
            <path d="M37.6527398,35.6008922 L34.692452,32.6406044 C34.4689757,32.417128 34.1710072,32.2939374 33.8532292,32.2939374 C33.7917371,32.2939374 33.7314831,32.2999216 33.6724672,32.309001 L30.5458618,29.1823956 C33.454975,25.4658374 32.7480221,19.5749761 28.7510352,15.5779892 C26.687748,13.5144957 24.0642224,12.2561773 21.3637284,12.0349708 C18.6502344,11.8119072 16.1847724,12.6614475 14.4202791,14.4263535 C10.7868797,18.0597528 11.3035785,24.4883605 15.5721212,28.7571096 C15.6596133,28.8446017 15.7493752,28.930443 15.8395499,29.015459 C15.8393436,29.0296971 15.8374864,29.0441415 15.8374864,29.0583796 C15.8374864,31.2989209 17.6603766,33.1216047 19.9009178,33.1216047 C20.8526011,33.1216047 21.7269033,32.790414 22.4200307,32.240493 C22.8861739,32.3034295 23.3475711,32.3362391 23.8011269,32.3362391 C25.8365569,32.3362391 27.7192884,31.7079053 29.2151149,30.5195394 L32.3322282,33.6366527 C32.3217043,33.700621 32.3153075,33.7654147 32.3153075,33.8314465 C32.3153075,34.1494308 32.4382917,34.4473993 32.6617681,34.6708756 L35.6222622,37.6311634 C35.8457386,37.8546398 36.1435007,37.977624 36.4616914,37.977624 C36.7794694,37.977624 37.0776442,37.8544334 37.3011205,37.6311634 L37.6525335,37.2795441 C38.1157878,36.8169089 38.1157878,36.0637337 37.6527398,35.6008922 Z M30.7249731,25.602028 L29.7739089,24.6511702 L30.9282272,23.4968519 C30.951132,24.2174238 30.8834494,24.9247894 30.7249731,25.602028 Z M30.7088778,22.5670417 L29.1994323,24.0764872 L27.3439389,22.2207875 L28.8496702,20.71485 L30.668227,22.5334068 C30.680608,22.5462004 30.6952588,22.5563116 30.7088778,22.5670417 Z M19.8012511,23.7537568 L17.9183133,21.8710254 L19.6043938,20.1851512 L21.4873317,22.0678826 L19.8012511,23.7537568 Z M19.8936956,24.9953609 C19.8286956,24.9953609 19.7647273,25.000726 19.7001399,25.0040276 L19.8012511,24.9029164 L19.8936956,24.9953609 Z M24.3390797,19.2161346 L22.4561419,17.3334031 L23.9620794,15.8274656 L25.8450173,17.7104034 L24.3390797,19.2161346 Z M26.4194938,18.2846736 L28.2749872,20.1403734 L26.7690496,21.6463109 L24.9135563,19.7906112 L26.4194938,18.2846736 Z M23.7643967,19.7908176 L22.0618082,21.4934061 L20.1790768,19.6104682 L21.8816653,17.9078797 L23.7643967,19.7908176 Z M19.6046002,19.0359916 L17.743329,17.1749268 L19.4459175,15.472132 L21.3071887,17.3334031 L19.6046002,19.0359916 Z M19.0299172,19.6104682 L17.3438367,21.2965488 L15.4825655,19.435484 L17.1686461,17.7496098 L19.0299172,19.6104682 Z M22.0616019,22.6425656 L23.9173016,24.498059 L22.4879197,25.9276473 C22.1352686,25.6356629 21.7308239,25.4062025 21.2933633,25.2460754 L20.3757277,24.3284398 L22.0616019,22.6425656 Z M22.6362848,22.0678826 L24.3390797,20.3652942 L26.1945731,22.2209939 L24.4919846,23.923376 L22.6362848,22.0678826 Z M26.7690496,22.7954705 L28.6247494,24.6511702 L26.9219545,26.353965 L25.0664612,24.498059 L26.7690496,22.7954705 Z M30.5900206,21.3064535 L29.4241468,20.1405797 L29.9524011,19.6119127 C30.2190045,20.1676115 30.4315443,20.7352785 30.5900206,21.3064535 Z M29.5539405,18.8614201 L28.8494638,19.5658968 L26.9939704,17.710197 L27.958241,16.7459265 C28.5884319,17.4056254 29.121845,18.117737 29.5539405,18.8614201 Z M25.1768581,14.6122742 C25.9481919,15.0293063 26.6896051,15.5515765 27.3775739,16.1774341 L26.4192875,17.1357205 L24.5363497,15.2527826 L25.1768581,14.6122742 Z M24.4055242,14.2350676 L23.9620794,14.6785124 L23.0223645,13.7387974 C23.4874759,13.8677658 23.9499048,14.0342897 24.4055242,14.2350676 Z M21.401284,13.5169719 C21.4239824,13.4942735 21.4427602,13.4690988 21.4588554,13.4428925 C21.5356174,13.4507337 21.6123794,13.4594004 21.6893477,13.4695115 C21.7062683,13.539464 21.740935,13.6063212 21.7956176,13.6610037 L23.3876028,15.252989 L21.8816653,16.7589265 L20.0206005,14.8976554 L21.401284,13.5169719 Z M20.3703626,13.3987337 L19.4459175,14.3231788 L18.7269964,13.6042577 C19.258965,13.4796226 19.8095051,13.411321 20.3703626,13.3987337 Z M17.8434085,13.8698293 L18.8714409,14.8976554 L17.1688524,16.6002439 L15.7101689,15.1417667 C16.3432487,14.5813218 17.0656778,14.1595438 17.8434085,13.8698293 Z M15.1356923,15.7162433 L16.5943758,17.1749268 L14.9082953,18.860801 L13.8724215,17.8251336 C14.1619297,17.0564823 14.5810252,16.3431326 15.1356923,15.7162433 Z M13.6045801,18.7064517 L14.3338187,19.435484 L13.3928657,20.376437 C13.4056593,19.8058811 13.4758181,19.246468 13.6045801,18.7064517 Z M13.4609609,21.6733427 C13.4522943,21.603803 13.4442466,21.5344696 13.4370244,21.4649298 C13.4632308,21.4486282 13.4884054,21.4302632 13.5108975,21.4073584 L14.9082953,20.0099606 L16.7693601,21.8710254 L15.2634225,23.3769629 L13.6714373,21.7849777 C13.6118023,21.7253427 13.5381356,21.6881998 13.4609609,21.6733427 Z M13.7215802,22.9840738 L14.6889459,23.9516459 L14.2289932,24.4113922 C14.0218185,23.9413284 13.8524057,23.463836 13.7215802,22.9840738 Z M16.2221216,27.3328863 L16.1713597,27.3836483 C15.5452957,26.6956795 15.0230255,25.95406 14.6061998,25.1829325 L15.2634225,24.5259161 L16.9771539,26.2396475 C16.6703124,26.5576318 16.4134075,26.92514 16.2221216,27.3328863 Z M15.8381055,23.9514395 L17.3438367,22.445502 L19.2265682,24.3284398 L18.1766627,25.3783453 C17.9742339,25.473266 17.7808846,25.5851073 17.5976464,25.7111868 L15.8381055,23.9514395 Z M19.9009178,31.9031118 C18.3324564,31.9031118 17.056392,30.626841 17.056392,29.058586 C17.056392,28.8821573 17.0726936,28.7053159 17.1046778,28.5334269 C17.3549795,27.1894735 18.5311708,26.2138538 19.9009178,26.2138538 C21.4693793,26.2138538 22.7454436,27.4899182 22.7454436,29.058586 C22.7454436,30.6270474 21.4693793,31.9031118 19.9009178,31.9031118 Z M24.4919846,25.0723292 L26.3474779,26.9280289 L24.6616037,28.6141095 L23.7134285,27.6659342 C23.5582537,27.242299 23.3374599,26.8504416 23.0584756,26.5060445 L24.4919846,25.0723292 Z M24.0869208,29.1885861 L23.9507302,29.324983 C23.956508,29.238729 23.9639366,29.153094 23.9639366,29.0656018 L24.0869208,29.1885861 Z M23.5021267,30.9334762 C23.505841,30.9266666 23.5087299,30.9192381 23.5124442,30.9124285 L24.6616037,29.763269 L25.6258742,30.7273332 C24.9531754,30.8872539 24.2414764,30.9572064 23.5021267,30.9334762 Z M26.5071923,30.4596981 L25.2362867,29.1885861 L26.9221609,27.5025055 L28.6129875,29.1933321 C27.993114,29.7430468 27.2832722,30.166682 26.5071923,30.4596981 Z M29.187464,28.6188555 L27.4968438,26.9280289 L29.1994323,25.2254404 L30.4589887,26.4852032 C30.1694806,27.2633466 29.7477025,27.9855693 29.187464,28.6188555 Z" id="Shape" fill="#933031" fill-rule="nonzero"></path>
        </g>
    </g>
</svg>