<?xml version="1.0" encoding="UTF-8" standalone="no"?>
<svg width="50px" height="50px" viewBox="0 0 50 50" version="1.1" xmlns="http://www.w3.org/2000/svg" xmlns:xlink="http://www.w3.org/1999/xlink">
    <!-- Generator: Sketch 44.1 (41455) - http://www.bohemiancoding.com/sketch -->
    <title>icon-amenity-disability</title>
    <desc>Created with Sketch.</desc>
    <defs>
        <rect id="path-1" x="0" y="0" width="50" height="50" rx="25"></rect>
    </defs>
    <g id="Icons" stroke="none" stroke-width="1" fill="none" fill-rule="evenodd">
        <g id="icon-amenity-disability">
            <g id="Rectangle">
                <use fill="#FFFFFF" fill-rule="evenodd" xlink:href="#path-1"></use>
                <rect stroke="#933031" stroke-width="1.2" x="0.6" y="0.6" width="48.8" height="48.8" rx="24.4"></rect>
            </g>
            <path d="M24.2995881,17.1243214 C22.9000115,17.1243214 21.7652041,15.977198 21.7652041,14.5621871 C21.7652041,13.1467534 22.9000115,12 24.2995881,12 C25.6975446,12 26.8332927,13.1467534 26.8332927,14.5621871 C26.8332927,15.977198 25.6975446,17.1243214 24.2995881,17.1243214 Z M28.2150996,31.6430469 C28.5202167,31.6405102 28.8078775,31.6378678 29.0561836,31.6358067 L29.9408034,33.393274 C28.6965553,36.1079811 25.9829581,38 22.8346815,38 C18.5145947,38 15,34.4460633 15,30.0782113 C15,26.5029768 17.3557458,23.476571 20.5799097,22.4945983 L20.5799097,24.8962325 C18.6111262,25.7756797 17.2315667,27.7658905 17.2315667,30.0782113 C17.2315667,33.2019635 19.7445748,35.7431699 22.8347338,35.7431699 C25.3865217,35.7431699 27.541783,34.0070532 28.2150996,31.6430469 Z M35.5972275,34.6844088 C35.9708103,35.4250236 35.679491,36.3313705 34.9460185,36.7075441 C34.7305865,36.8190538 34.5000502,36.8715849 34.2727019,36.8715849 C33.7303065,36.8715849 33.2076669,36.5704558 32.9457722,36.0485797 L29.965472,30.1233965 L28.4349741,30.1233965 L24.3445351,30.1233965 C23.0871165,30.1233965 22.0678124,29.0926978 22.0678124,27.8212755 L22.0678124,20.4557142 C22.0678124,19.2094476 23.0670471,18.1988841 24.2996404,18.1988841 C25.845138,18.1988841 26.5307367,19.5207236 26.5307367,20.4557142 L26.5307367,23.8553341 L28.0180122,23.8553341 L30.2718956,23.8553341 C30.8888194,23.8553341 31.387888,24.3606687 31.387888,24.9836963 C31.387888,25.2298105 31.2941264,25.4450612 31.1623167,25.6303471 C30.9594803,25.9147762 30.6454784,26.1122171 30.2718956,26.1122171 L26.5307367,26.1122171 L26.5307367,27.1145363 L30.8776872,27.1145363 C31.4378523,27.1145363 31.9499346,27.4323126 32.2032581,27.9371716 L35.5972275,34.6844088 Z" id="Combined-Shape" fill="#933031" fill-rule="nonzero"></path>
        </g>
    </g>
</svg>