<?xml version="1.0" encoding="UTF-8" standalone="no"?>
<svg width="50px" height="50px" viewBox="0 0 50 50" version="1.1" xmlns="http://www.w3.org/2000/svg" xmlns:xlink="http://www.w3.org/1999/xlink">
    <!-- Generator: Sketch 44.1 (41455) - http://www.bohemiancoding.com/sketch -->
    <title>icon-amenity-smoking</title>
    <desc>Created with Sketch.</desc>
    <defs>
        <rect id="path-1" x="0" y="0" width="50" height="50" rx="25"></rect>
    </defs>
    <g id="Icons" stroke="none" stroke-width="1" fill="none" fill-rule="evenodd">
        <g id="icon-amenity-smoking">
            <g id="Rectangle">
                <use fill="#FFFFFF" fill-rule="evenodd" xlink:href="#path-1"></use>
                <rect stroke="#933031" stroke-width="1.2" x="0.6" y="0.6" width="48.8" height="48.8" rx="24.4"></rect>
            </g>
            <path d="M36.2233229,25.5751923 L34.2830673,25.5751923 L18.1142706,25.5751923 L11.5543587,25.5751923 C11.2483527,25.5751923 11,25.8605921 11,26.2122454 L11,30.9527698 C11,31.3044231 11.2483527,31.5898229 11.5543587,31.5898229 L18.1142706,31.5898229 L34.2830673,31.5898229 L36.2233229,31.5898229 C36.5293289,31.5898229 36.7776816,31.3044231 36.7776816,30.9527698 L36.7776816,26.2122454 C36.7776816,25.8605921 36.5293289,25.5751923 36.2233229,25.5751923 Z M18.6686293,26.8492985 L33.7287085,26.8492985 L33.7287085,30.3157167 L18.6686293,30.3157167 L18.6686293,26.8492985 Z M35.6689641,30.3157167 L34.837426,30.3157167 L34.837426,26.8492985 L35.6689641,26.8492985 L35.6689641,30.3157167 Z M36.393115,18.8598034 C35.9788243,17.6120287 36.2970262,16.1221739 37.167739,15.2370948 C37.3972435,15.003084 37.7479678,15.0289908 37.950124,15.2918814 C38.1530193,15.5551966 38.131584,15.9578142 37.9024491,16.1909756 C37.3787649,16.723552 37.1795653,17.6549236 37.4290267,18.4057969 C37.5580075,18.7939745 37.7960122,19.1532725 38.0487998,19.5333808 C38.3296749,19.9568088 38.6201589,20.3946766 38.8079017,20.9344729 C39.2983244,22.3491555 38.8193585,24.1193136 37.7169237,24.9636213 C37.6223131,25.0362454 37.5155067,25.0706463 37.409809,25.0706463 C37.2309359,25.0706463 37.0550194,24.971266 36.9482129,24.7869453 C36.7782096,24.4943256 36.8473196,24.0989279 37.1019551,23.903565 C37.7734683,23.3888261 38.0772569,22.2684621 37.7779032,21.4063169 C37.6470745,21.0283321 37.4138743,20.6775282 37.1673694,20.3059139 C36.8776246,19.8705943 36.57901,19.4199854 36.393115,18.8598034 Z M32.644594,17.7828803 C32.2303032,16.5351056 32.5485051,15.0452508 33.4192179,14.1601717 C33.6487225,13.9261609 33.9994468,13.9520677 34.2016029,14.2149583 C34.4044982,14.4782736 34.383063,14.8808911 34.1539281,15.1140525 C33.6302438,15.6466289 33.4310443,16.5780005 33.6805057,17.3288738 C33.8094865,17.7170515 34.0474912,18.0763494 34.3002788,18.4564577 C34.5811539,18.8798857 34.8716379,19.3177535 35.0593807,19.8575498 C35.5498034,21.2722324 35.0708374,23.0423906 33.9684027,23.8866983 C33.8737921,23.9593223 33.7669857,23.9937232 33.6612879,23.9937232 C33.4824148,23.9937232 33.3064983,23.8943429 33.1996919,23.7100222 C33.0296885,23.4174025 33.0987986,23.0220049 33.353434,22.8266419 C34.0249473,22.311903 34.3287359,21.191539 34.0293821,20.3293938 C33.8985535,19.951409 33.6653532,19.6006051 33.4188484,19.2289908 C33.1291035,18.7936712 32.830489,18.3430623 32.644594,17.7828803 Z" id="Shape" fill="#933031" fill-rule="nonzero"></path>
        </g>
    </g>
</svg>