<?xml version="1.0" encoding="UTF-8" standalone="no"?>
<svg width="50px" height="50px" viewBox="0 0 50 50" version="1.1" xmlns="http://www.w3.org/2000/svg" xmlns:xlink="http://www.w3.org/1999/xlink">
    <!-- Generator: Sketch 44.1 (41455) - http://www.bohemiancoding.com/sketch -->
    <title>icon-amenity-businesscenter</title>
    <desc>Created with Sketch.</desc>
    <defs>
        <rect id="path-1" x="0" y="0" width="50" height="50" rx="25"></rect>
    </defs>
    <g id="Icons" stroke="none" stroke-width="1" fill="none" fill-rule="evenodd">
        <g id="icon-amenity-businesscenter">
            <g id="Rectangle">
                <use fill="#FFFFFF" fill-rule="evenodd" xlink:href="#path-1"></use>
                <rect stroke="#933031" stroke-width="1.2" x="0.6" y="0.6" width="48.8" height="48.8" rx="24.4"></rect>
            </g>
            <g id="Group-2" stroke-width="1" fill-rule="evenodd" transform="translate(12.000000, 14.000000)" fill="#933031">
                <path d="M1.76180698,17.6129624 L1.76180698,21.8252827 C1.76180698,22.0815455 1.97002053,22.2950979 2.23162218,22.2950979 L5.48829569,22.2950979 C5.74455852,22.2950979 5.95811088,22.0868843 5.95811088,21.8252827 L5.95811088,14.4150157 L3.59301848,16.7801081 C3.09117043,17.2766174 2.45051335,17.5649131 1.76180698,17.6129624 Z" id="Shape" fill-rule="nonzero"></path>
                <path d="M7.58110883,14.3616277 L7.58110883,21.8252827 C7.58110883,22.0815455 7.78932238,22.2950979 8.05092402,22.2950979 L11.3075975,22.2950979 C11.5638604,22.2950979 11.7774127,22.0868843 11.7774127,21.8252827 L11.7774127,17.4314428 C11.0353183,17.4154264 10.3412731,17.1217919 9.81806982,16.5985886 L7.58110883,14.3616277 Z" id="Shape" fill-rule="nonzero"></path>
                <path d="M13.4004107,16.9669665 L13.4004107,21.8252827 C13.4004107,22.0815455 13.6086242,22.2950979 13.8702259,22.2950979 L17.1268994,22.2950979 C17.3831622,22.2950979 17.5967146,22.0868843 17.5967146,21.8252827 L17.5967146,12.8614223 L13.8648871,16.5932498 C13.7207392,16.7373977 13.5659138,16.8601903 13.4004107,16.9669665 Z" id="Shape" fill-rule="nonzero"></path>
                <path d="M23.1010267,7.35177139 L19.2197125,11.2330856 L19.2197125,21.8252827 C19.2197125,22.0815455 19.4279261,22.2950979 19.6895277,22.2950979 L22.9462012,22.2950979 C23.2024641,22.2950979 23.4160164,22.0868843 23.4160164,21.8252827 L23.4160164,7.64540589 C23.3092402,7.55464613 23.2291581,7.474564 23.1704312,7.42117591 L23.1010267,7.35177139 Z" id="Shape" fill-rule="nonzero"></path>
                <path d="M25.7650924,0.475385352 C25.6102669,0.309882272 25.3753593,0.224461328 25.076386,0.224461328 C25.049692,0.224461328 25.0176591,0.224461328 24.9909651,0.224461328 C23.4747433,0.293865845 21.9638604,0.368609172 20.4476386,0.438013689 C20.2447639,0.448691307 19.9671458,0.459368925 19.7482546,0.678260096 C19.6788501,0.747664613 19.625462,0.827746749 19.5827515,0.923845311 C19.3585216,1.40967693 19.6735113,1.72466667 19.8229979,1.87415332 L20.2020534,2.25854757 C20.463655,2.52548802 20.7305955,2.79242847 20.9975359,3.05403012 L11.8361396,12.2207652 L7.71991786,8.10454346 C7.47433265,7.85895825 7.14332649,7.72014921 6.79096509,7.72014921 C6.4386037,7.72014921 6.11293634,7.85895825 5.86735113,8.10454346 L0.384394251,13.5821615 C-0.128131417,14.0946872 -0.128131417,14.9222026 0.384394251,15.4347283 L0.629979466,15.6803135 C0.875564682,15.9258987 1.20657084,16.0647077 1.55893224,16.0647077 C1.91129363,16.0647077 2.23696099,15.9258987 2.4825462,15.6803135 L6.79096509,11.3718946 L10.9071869,15.4881164 C11.1527721,15.7337016 11.4837782,15.8725106 11.8361396,15.8725106 C12.188501,15.8725106 12.5141684,15.7337016 12.7650924,15.4881164 L23.1010267,5.15218207 L24.2702259,6.31604244 C24.4090349,6.45485147 24.601232,6.6470486 24.8948665,6.6470486 C25.0176591,6.6470486 25.1404517,6.61501574 25.2685832,6.54561123 C25.3540041,6.49756194 25.4287474,6.44417385 25.4928131,6.38010815 C25.7223819,6.15053936 25.7650924,5.85690486 25.77577,5.62733607 C25.8184805,4.64499521 25.8665298,3.66265435 25.9145791,2.67497467 L25.9839836,1.19612457 C26,0.886473648 25.9305955,0.646227242 25.7650924,0.475385352 Z" id="Shape" fill-rule="nonzero"></path>
            </g>
        </g>
    </g>
</svg>