<?xml version="1.0" encoding="UTF-8" standalone="no"?>
<svg width="50px" height="50px" viewBox="0 0 50 50" version="1.1" xmlns="http://www.w3.org/2000/svg" xmlns:xlink="http://www.w3.org/1999/xlink">
    <!-- Generator: Sketch 44.1 (41455) - http://www.bohemiancoding.com/sketch -->
    <title>icon-amenity-hypoallergenic</title>
    <desc>Created with Sketch.</desc>
    <defs>
        <rect id="path-1" x="0" y="0" width="50" height="50" rx="25"></rect>
    </defs>
    <g id="Icons" stroke="none" stroke-width="1" fill="none" fill-rule="evenodd">
        <g id="icon-amenity-hypoallergenic">
            <g id="Rectangle">
                <use fill="#FFFFFF" fill-rule="evenodd" xlink:href="#path-1"></use>
                <rect stroke="#933031" stroke-width="1.2" x="0.6" y="0.6" width="48.8" height="48.8" rx="24.4"></rect>
            </g>
            <path d="M19.050114,16.8351657 C19.050114,16.8351657 17.7516196,16.7084709 18.962123,15.6236418 C19.6780355,14.9817887 22.174411,12.526498 22.174411,12.526498 C22.174411,12.526498 22.6741965,12 23.4868491,12 C24.2995017,12 30.6364514,12 30.6364514,12 L30.6364514,14.1774458 L27.1784172,14.1774458 L25.5762148,18.0967845 L21.6754458,18.0967845 L21.5595674,16.7903079 L19.050114,16.8351657 Z M31.0722143,13.9326636 L31.0722143,12.2721978 L32.3794121,12.7351208 L32.3794121,13.5786288 L31.0722143,13.9326636 Z M21.0501672,18.5322919 L26.2790495,18.5322919 L26.2790495,20.2742303 L21.0501672,20.2742303 L21.0501672,18.5322919 Z M28.4577732,31.3246322 C28.4577732,36.7137571 28.4578188,38.1290308 28.4578188,38.1290308 C28.4578188,38.1290308 28.5716011,39 27.9214425,39 C27.271284,39 18.6340818,39 18.6340818,39 C18.6340818,39 18.0000542,38.8911118 18.0000542,37.5846807 C18.0000542,36.2782497 18.0000542,31.5967845 18.0000542,31.5967845 C18.0000542,31.5967845 17.9456009,26.0988169 21.2890325,20.7096921 C22.1016851,20.6826864 25.719616,20.7096921 25.719616,20.7096921 C25.719616,20.7096921 26.2071893,20.8912636 26.2071893,21.6372686 C26.2071893,22.1816187 25.7182945,22.1611708 25.7182945,22.814819 C25.7182945,23.1958595 26.279095,23.3225997 26.279095,24.1208402 C26.279095,24.5746094 25.694326,24.8986328 25.694326,25.3340946 C25.694326,25.7695564 25.8460205,25.9716213 26.0777774,26.1893977 C26.3095342,26.4071742 28.4577732,27.3508267 28.4577732,31.3246322 Z M32.1628293,19.4032155 C32.1628293,19.4032155 32.518849,19.6754133 32.2609364,20.0071786 C32.1593662,20.1374255 31.945882,20.1927121 31.309257,19.8116716 C30.0852656,19.0791922 28.2621059,17.5162294 27.7666949,14.6128621 L30.1506096,14.6128621 C30.1506096,14.6128621 30.18155,17.3643051 32.1628293,19.4032155 Z" id="Combined-Shape" fill="#933031" fill-rule="nonzero"></path>
        </g>
    </g>
</svg>