<?xml version="1.0" encoding="UTF-8" standalone="no"?>
<svg width="50px" height="50px" viewBox="0 0 50 50" version="1.1" xmlns="http://www.w3.org/2000/svg" xmlns:xlink="http://www.w3.org/1999/xlink">
    <!-- Generator: Sketch 44.1 (41455) - http://www.bohemiancoding.com/sketch -->
    <title>icon-amenity-roomservice</title>
    <desc>Created with Sketch.</desc>
    <defs>
        <rect id="path-1" x="0" y="0" width="50" height="50" rx="25"></rect>
    </defs>
    <g id="Icons" stroke="none" stroke-width="1" fill="none" fill-rule="evenodd">
        <g id="icon-amenity-roomservice">
            <g id="Rectangle">
                <use fill="#FFFFFF" fill-rule="evenodd" xlink:href="#path-1"></use>
                <rect stroke="#933031" stroke-width="1.2" x="0.6" y="0.6" width="48.8" height="48.8" rx="24.4"></rect>
            </g>
            <g id="Group-3" stroke-width="1" fill-rule="evenodd" transform="translate(11.000000, 12.000000)" fill="#933031">
                <path d="M9.49457218,13.4154541 C9.51294488,13.1161995 9.53131759,12.8165039 9.57056168,12.5137953 C9.64309711,11.796084 9.79897113,11.0754331 9.95822572,10.3744042 C10.0551601,10.0247349 10.1601785,9.67932808 10.2703412,9.3416378 C10.4112231,9.0120315 10.5490919,8.68418898 10.6865932,8.3639895 C10.9978268,7.73895013 11.3458058,7.15491864 11.7611759,6.66605774 C11.8598005,6.54009449 11.9575433,6.41802625 12.0532283,6.29551706 C12.1625092,6.18623622 12.2718635,6.08033596 12.3772493,5.9744357 C12.599706,5.77336483 12.7926194,5.55561155 13.0147087,5.39591601 C13.4573438,5.06807349 13.8489764,4.75639895 14.247664,4.56341207 C14.6319475,4.34903937 14.9614803,4.16296063 15.2586037,4.05794226 C15.8409449,3.82358005 16.1714331,3.70577428 16.1714331,3.70577428 C16.1714331,3.70577428 15.8895958,3.92948031 15.3969869,4.29237795 C15.1424882,4.45846719 14.8727034,4.72060892 14.551622,4.98914436 C14.2168714,5.24525984 13.9137953,5.61241995 13.5534698,5.96429396 C13.3732703,6.14405249 13.2333438,6.36988976 13.0629186,6.57779528 C12.9800945,6.68369554 12.8951391,6.7904042 12.8075381,6.89887664 C12.7366929,7.01844619 12.6632756,7.1383832 12.5889764,7.26089239 C12.2709081,7.73226247 12.0331654,8.2855748 11.7854278,8.84697113 C11.68379,9.14071391 11.5809764,9.43871916 11.4758845,9.73966404 C11.4041575,10.0525879 11.3247874,10.3688924 11.2381417,10.684021 C11.107916,11.331622 10.9802625,11.9921575 10.9251444,12.6713596 C10.8867822,12.9177008 10.8684094,13.1661732 10.8453333,13.416336 C16.2422047,13.4172178 20.4192756,13.4205984 26.2640735,13.4205984 C26.2836955,13.1644094 26.2947927,12.9048399 26.2947927,12.644021 C26.2947927,7.72153281 22.7076325,3.66733858 18.0916745,3.13026772 C18.3896798,2.85151706 18.5784042,2.45613648 18.5784042,2.01636745 C18.5800945,1.17107612 17.8953071,0.487097113 17.051706,0.487097113 C16.2072231,0.487097113 15.5216273,1.17107612 15.5216273,2.01636745 C15.5216273,2.45701837 15.7094698,2.85144357 16.0082835,3.13026772 C11.3926929,3.66733858 7.80648819,7.72153281 7.80648819,12.644021 C7.80648819,12.9040315 7.81582152,13.160147 7.83507612,13.4155276 C8.40507087,13.4154541 8.95537008,13.4154541 9.49457218,13.4154541 Z" id="Shape" fill-rule="nonzero"></path>
                <rect id="Rectangle-path" fill-rule="nonzero" x="6.12391601" y="13.9849344" width="21.8555801" height="1.92810499"></rect>
                <path d="M19.0070026,17.2817323 C17.896189,17.8213753 14.0230026,19.2182887 14.0230026,19.2182887 L9.44459843,18.9314541 C9.44459843,18.9314541 12.0634436,18.2030866 13.0786457,17.9751181 C14.0956115,17.747958 13.6532703,16.6012808 13.0909921,16.6012808 C12.5287874,16.6012808 7.62886089,16.803601 7.62886089,16.803601 L4.3752021,17.9751181 L5.23629396,23.4253438 C5.23629396,23.4253438 5.90616273,22.2785932 6.57434121,22.2785932 C7.24501837,22.2785932 13.0543202,22.4331444 13.8428766,22.2785932 C14.631874,22.1222782 19.4374383,18.8348871 20.0129449,18.4514856 C20.5858793,18.0698478 20.1221522,16.7412808 19.0070026,17.2817323 Z" id="Shape" fill-rule="nonzero"></path>
                <polygon id="Shape" fill-rule="nonzero" points="0 18.5609134 0 25.6258058 4.98488189 24.6924724 3.73781627 17.9033176"></polygon>
            </g>
        </g>
    </g>
</svg>