<?xml version="1.0" encoding="UTF-8" standalone="no"?>
<svg width="50px" height="50px" viewBox="0 0 50 50" version="1.1" xmlns="http://www.w3.org/2000/svg" xmlns:xlink="http://www.w3.org/1999/xlink">
    <!-- Generator: Sketch 44.1 (41455) - http://www.bohemiancoding.com/sketch -->
    <title>icon-amenity-kids</title>
    <desc>Created with Sketch.</desc>
    <defs>
        <rect id="path-1" x="0" y="0" width="50" height="50" rx="25"></rect>
    </defs>
    <g id="Icons" stroke="none" stroke-width="1" fill="none" fill-rule="evenodd">
        <g id="icon-amenity-kids">
            <g id="Rectangle">
                <use fill="#FFFFFF" fill-rule="evenodd" xlink:href="#path-1"></use>
                <rect stroke="#933031" stroke-width="1.2" x="0.6" y="0.6" width="48.8" height="48.8" rx="24.4"></rect>
            </g>
            <path d="M18.8320787,22.0244843 C16.9442115,22.0244843 15.4192319,20.4973763 15.4192319,18.6095091 C15.4192319,17.5655419 14.8360576,17.0153574 15.5756674,16.3906798 C16.1705478,15.8851911 17.2634675,15.1998549 18.104175,15.1998549 C18.810795,15.1998549 21.2030867,15.3754457 21.7479503,15.7468468 C22.6567658,16.35769 22.2427972,17.434647 22.2427972,18.6105733 C22.2427972,20.4973763 20.7167534,22.0244843 18.8320787,22.0244843 Z M35.4823441,18.1316893 C37.8075921,18.5456579 39.4379262,22.3330984 36.1251129,22.3618315 C36.2570721,21.1114121 35.715401,19.9471918 35.3929525,19.3789161 C34.9704703,21.1188614 33.4103726,22.4203617 31.5416607,22.4203617 C29.5707869,22.4203617 27.9436454,20.9720036 27.6339671,19.0873289 C27.2987483,19.4395747 26.4282435,20.5356871 26.6283106,22.3607673 C24.5254777,22.3011728 24.1466272,18.8063836 27.5903354,18.2051181 C27.610555,17.8805412 27.6712136,17.5687345 27.7648621,17.2707622 C27.9042705,16.0575894 28.4821239,14.0643676 31.1298205,14.0015806 C34.2021275,13.9292159 35.2726994,16.3598184 35.4078511,17.5559643 C35.4504185,17.7432611 35.4663813,17.9369431 35.4823441,18.1316893 Z M31.5416607,21.2965806 C33.1155929,21.2965806 34.3926169,20.0174281 34.3904886,18.4445602 C34.3904886,18.4115704 34.3819751,18.3785806 34.3809109,18.346655 L34.3053536,18.2828038 C34.3053536,18.2828038 32.2685002,18.5169249 31.6225389,18.3402699 L31.6225389,16.8259322 C31.6225389,16.8259322 30.6041122,18.7478534 30.0177453,18.5435295 C30.0177453,17.4378395 29.6825265,17.3229074 29.6825265,17.3229074 C29.6825265,17.3229074 29.263237,18.3019591 28.6981538,18.5073472 C28.733272,20.0493537 29.993269,21.2965806 31.5416607,21.2965806 Z M16.4546856,18.2764187 C16.4323377,18.4126346 16.4131823,18.5488505 16.4131823,18.6903873 C16.4131823,20.0951138 17.5295142,21.230601 18.9065718,21.230601 C20.2910787,21.230601 21.4063464,20.0951138 21.4063464,18.6903873 C21.4063464,18.5488505 21.387191,18.4126346 21.3659073,18.2796112 C20.7593209,18.1604223 19.5663676,18.0114362 18.5000525,18.3690029 C18.0211685,18.6297287 18.554326,17.8592575 18.554326,17.8592575 L17.5071663,18.3690029 C17.5071663,18.3690029 17.0814916,18.1625507 16.4546856,18.2764187 Z M32.3717264,22.5225237 L33.9158613,22.5225237 L37.7107511,27.654032 L36.1251129,28.0488453 L33.731757,24.8413865 L33.5944769,26.5504704 L36.0995724,31.4372158 L33.5572304,31.4372158 L33.5572304,35.6918343 L33.988226,35.6918343 L33.988226,36.1866811 L32.0258657,36.1866811 L32.0258657,35.6918343 L32.0258657,31.4372158 L31.292641,31.4372158 L31.292641,35.6918343 L31.2905127,35.6918343 L31.2905127,36.1866811 L29.3292165,36.1866811 L29.3292165,35.6918343 L29.7602122,35.6918343 L29.7602122,31.4372158 L26.4803887,31.4372158 L29.3238956,26.5504704 L29.149369,25.1617067 L26.0877038,28.6660736 L25.4757964,28.5128307 L24.3711706,28.7852625 L21.6681363,26.0098635 L21.6681363,31.5000028 L20.84552,31.5000028 L20.84552,35.7535571 L21.2754514,35.7535571 L21.2754514,36.2526607 L19.3162837,36.2526607 L19.3162837,35.7535571 L19.3162837,31.5000028 L18.5809307,31.5000028 L18.5809307,35.7535571 L18.5809307,36.2526607 L16.6175062,36.2526607 L16.6175062,35.7535571 L17.0485018,35.7535571 L17.0485018,31.5000028 L16.3706149,31.5000028 L16.3706149,25.9045091 L12.9896936,28.7895193 L12,27.7689642 L16.7228607,22.5842465 L21.2318198,22.5842465 L25.1980437,27.46035 L29.2962267,22.5225237 L30.6956323,22.5225237 L32.3717264,22.5225237 Z" id="Combined-Shape" fill="#933031" fill-rule="nonzero"></path>
        </g>
    </g>
</svg>