<?xml version="1.0" encoding="UTF-8" standalone="no"?>
<svg width="50px" height="50px" viewBox="0 0 50 50" version="1.1" xmlns="http://www.w3.org/2000/svg" xmlns:xlink="http://www.w3.org/1999/xlink">
    <!-- Generator: Sketch 44.1 (41455) - http://www.bohemiancoding.com/sketch -->
    <title>icon-amenity-eco</title>
    <desc>Created with Sketch.</desc>
    <defs>
        <rect id="path-1" x="0" y="0" width="50" height="50" rx="25"></rect>
    </defs>
    <g id="Icons" stroke="none" stroke-width="1" fill="none" fill-rule="evenodd">
        <g id="icon-amenity-eco">
            <g id="Rectangle">
                <use fill="#FFFFFF" fill-rule="evenodd" xlink:href="#path-1"></use>
                <rect stroke="#933031" stroke-width="1.2" x="0.6" y="0.6" width="48.8" height="48.8" rx="24.4"></rect>
            </g>
            <path d="M13.5100934,17.6447582 C12.8116929,16.0155696 12.5438852,14.0963958 12.0161202,12.4013278 C11.9321021,12.1297964 12.1920331,11.905717 12.4362108,12.0401646 C13.5100671,12.6306796 14.9777584,13.136809 16.3272992,13.2765554 C18.5301488,13.5058808 20.7723819,13.5981488 22.7520585,14.3442276 C24.647717,15.0586453 27.1630352,16.6377457 28.3418879,18.6043715 C26.8873508,18.7783361 25.4301618,19.0076879 24.0359601,19.4848715 C23.5686094,19.155343 23.0671264,18.8785391 22.5236343,18.6781595 C21.6519465,18.3591759 20.6069713,18.266908 19.6959,18.0191026 C20.66476,18.47517 21.6598232,18.8996026 22.5787712,19.3820323 C22.8098472,19.5032987 23.0303685,19.6377463 23.2404137,19.7853751 C22.5079071,20.0938401 21.7963526,20.486638 21.1163573,20.9875213 C20.326062,21.5727374 19.6512916,22.2871815 19.0631649,23.1676815 C18.7691015,23.1017758 18.4829149,23.022689 18.2308606,22.9172399 C16.0227598,21.9866252 14.4447948,19.8275811 13.5100934,17.6447582 Z M37.4372809,17.5864053 C37.5029201,17.5495245 37.5685592,17.5336808 37.6288947,17.5363697 C37.8704467,17.5363697 38.0673642,17.7762401 37.9780949,18.0556802 C37.2928223,20.238503 36.9409965,22.7191933 36.0351763,24.8202667 C34.8195656,27.6357578 32.7768755,29.976728 29.92026,31.1735753 C29.2008287,31.4741053 28.4341635,31.6718223 27.6464938,31.8168148 C25.4068862,32.2333388 22.9861146,32.2412211 20.9486756,33.0874502 C20.8042695,33.1480834 20.6782686,33.1770819 20.5705942,33.1770819 C19.2499346,33.1770819 20.7885161,28.8800309 24.3120253,27.0346715 C25.0314566,26.657691 25.7876195,26.3097089 26.5490336,25.9643631 C26.6829374,25.9037035 26.6278006,25.7139215 26.4991478,25.7139215 C26.48602,25.7139215 26.4728922,25.7139215 26.4597643,25.7191676 C25.8139014,25.9063397 25.1784883,26.1040568 24.5562292,26.3307724 C22.2142246,27.1822476 20.2975616,28.5794482 19.3050977,30.9283534 C18.4412866,32.9714298 18.0527029,35.4705473 18.6775875,37.6085279 C18.7642312,37.9116941 18.378273,38.1252285 18.1629767,37.9169665 C17.997566,37.7587929 17.9450547,37.4872878 17.8899178,37.2737533 C17.6457402,36.3062578 17.6299868,35.2754928 17.6011056,34.2842712 C17.5302153,31.8404618 17.8951689,29.3834976 18.6907154,27.0715524 C19.1265593,25.7982281 19.6569235,24.5723822 20.4183376,23.5073726 C20.8961906,22.840407 21.4633128,22.2340483 22.1564621,21.7226465 C22.8942461,21.1769474 23.6766647,20.7683321 24.4879645,20.4572572 C24.7610496,20.3518081 25.0393333,20.2568775 25.3176433,20.1725446 C26.6015712,19.7823566 27.9511382,19.5873021 29.3137805,19.4291284 C32.1047307,19.1075087 34.9534695,18.9414263 37.4372809,17.5864053 Z" id="Combined-Shape" fill="#933031" fill-rule="nonzero"></path>
        </g>
    </g>
</svg>