<?xml version="1.0" encoding="UTF-8" standalone="no"?>
<svg width="50px" height="50px" viewBox="0 0 50 50" version="1.1" xmlns="http://www.w3.org/2000/svg" xmlns:xlink="http://www.w3.org/1999/xlink">
    <!-- Generator: Sketch 44.1 (41455) - http://www.bohemiancoding.com/sketch -->
    <title>icon-amenity-coffee</title>
    <desc>Created with Sketch.</desc>
    <defs>
        <rect id="path-1" x="0" y="0" width="50" height="50" rx="25"></rect>
    </defs>
    <g id="Icons" stroke="none" stroke-width="1" fill="none" fill-rule="evenodd">
        <g id="icon-amenity-coffee">
            <g id="Rectangle">
                <use fill="#FFFFFF" fill-rule="evenodd" xlink:href="#path-1"></use>
                <rect stroke="#933031" stroke-width="1.2" x="0.6" y="0.6" width="48.8" height="48.8" rx="24.4"></rect>
            </g>
            <g id="cup-of-hot-chocolate" stroke-width="1" fill-rule="evenodd" transform="translate(12.000000, 12.000000)" fill="#933031">
                <path d="M19.02732,20.59512 C23.26948,20.42456 25.155,18.4938 25.155,16.13092 C25.155,14.07848 23.73072,12.35156 20.57588,11.82116 C20.58992,11.0578 20.59096,10.32148 20.59096,9.63404 L0.47268,9.63404 C0.47268,14.12892 0.47788,20.65804 4.5162,23.77648 C2.06544,23.9642 0.47268,24.26268 0.47268,24.5986 C0.47268,25.16748 4.9764,25.62768 10.53208,25.62768 C16.08776,25.62768 20.59096,25.16748 20.59096,24.5986 C20.59096,24.26268 18.9982,23.96368 16.54796,23.77648 C17.64412,22.93044 18.44544,21.83532 19.02732,20.59512 Z M20.501,13.77584 C22.27108,14.18612 22.58724,15.054 22.56696,16.17772 C22.5446,17.4538 22.17488,18.31752 19.75792,18.61496 C20.19524,17.06172 20.4022,15.39408 20.501,13.77584 Z M2.90108,11.19404 L6.04604,11.19404 C4.63632,15.35404 7.0148,21.9362 7.01428,21.9362 C1.87252,17.99512 2.90108,11.19404 2.90108,11.19404 Z" id="Shape" fill-rule="nonzero"></path>
                <path d="M12.17788,6.92276 C12.57776,3.2994 20.57744,5.11212 18.91032,0.4082 C18.65552,-0.31096 17.50372,-0.00104 17.76112,0.72488 C18.49224,2.7872 15.7144,3.03836 14.3,3.51104 C12.60116,4.07888 11.19508,5.0284 10.98604,6.92276 C10.9018,7.68612 12.09468,7.6778 12.17788,6.92276 Z" id="Shape" fill-rule="nonzero"></path>
                <path d="M17.85628,4.38724 C16.29628,4.75488 14.87044,5.42308 14.38424,7.06316 C14.16532,7.80208 15.31556,8.11512 15.53344,7.37984 C16.07008,5.56868 18.44908,5.53852 19.968,5.09756 C21.59924,4.62384 22.53264,3.49388 22.30852,1.75916 C22.21076,1.00776 21.01892,0.9984 21.11668,1.75916 C21.3876,3.85684 19.45736,4.0092 17.85628,4.38724 Z" id="Shape" fill-rule="nonzero"></path>
            </g>
        </g>
    </g>
</svg>