<?xml version="1.0" encoding="UTF-8" standalone="no"?>
<svg width="50px" height="50px" viewBox="0 0 50 50" version="1.1" xmlns="http://www.w3.org/2000/svg" xmlns:xlink="http://www.w3.org/1999/xlink">
    <!-- Generator: Sketch 44.1 (41455) - http://www.bohemiancoding.com/sketch -->
    <title>Group 4</title>
    <desc>Created with Sketch.</desc>
    <defs>
        <rect id="path-1" x="0" y="0" width="50" height="50" rx="25"></rect>
    </defs>
    <g id="Pages" stroke="none" stroke-width="1" fill="none" fill-rule="evenodd">
        <g id="Sabre---Details" transform="translate(-102.000000, -805.000000)">
            <g id="Group-4" transform="translate(102.000000, 805.000000)">
                <g id="Rectangle">
                    <use fill="#FFFFFF" fill-rule="evenodd" xlink:href="#path-1"></use>
                    <rect stroke="#933031" stroke-width="1.2" x="0.6" y="0.6" width="48.8" height="48.8" rx="24.4"></rect>
                </g>
                <g id="Group" transform="translate(10.000000, 14.000000)" fill-rule="nonzero" fill="#933031">
                    <path d="M4.87040816,10.4494898 C4.24591837,11.0739796 4.24591837,12.0903061 4.87040816,12.7209184 C5.49489796,13.3454082 6.51122449,13.3454082 7.14183673,12.7209184 C11.4642857,8.39846939 18.4989796,8.39846939 22.8214286,12.7209184 C23.1336735,13.0331633 23.5438776,13.1923469 23.9540816,13.1923469 C24.3642857,13.1923469 24.7744898,13.0331633 25.0867347,12.7209184 C25.7112245,12.0964286 25.7112245,11.080102 25.0867347,10.4494898 C19.5153061,4.87193878 10.4418367,4.87193878 4.87040816,10.4494898 Z" id="Shape"></path>
                    <path d="M9.20510204,14.7841837 C8.58061224,15.4086735 8.58061224,16.425 9.20510204,17.0556122 C9.82959184,17.680102 10.8459184,17.680102 11.4765306,17.0556122 C13.405102,15.1209184 16.5520408,15.1209184 18.4806122,17.0556122 C18.7928571,17.3678571 19.2030612,17.5270408 19.6132653,17.5270408 C20.0234694,17.5270408 20.4336735,17.3678571 20.7459184,17.0556122 C21.3704082,16.4311224 21.3704082,15.4147959 20.7459184,14.7903061 C17.5683673,11.6005102 12.3887755,11.6005102 9.20510204,14.7841837 Z" id="Shape"></path>
                    <circle id="Oval" cx="14.9785714" cy="20.5515306" r="2.13673469"></circle>
                    <path d="M29.4887755,6.04132653 C21.4867347,-1.95459184 8.47040816,-1.95459184 0.468367347,6.04132653 C-0.156122449,6.66581633 -0.156122449,7.68214286 0.468367347,8.3127551 C1.09285714,8.9372449 2.10918367,8.9372449 2.73979592,8.3127551 C9.48673469,1.55969388 20.4704082,1.55969388 27.2234694,8.3127551 C27.5357143,8.625 27.9459184,8.78418367 28.3561224,8.78418367 C28.7663265,8.78418367 29.1765306,8.625 29.4887755,8.3127551 C30.1132653,7.68826531 30.1132653,6.67193878 29.4887755,6.04132653 Z" id="Shape"></path>
                </g>
            </g>
        </g>
    </g>
</svg>