<?xml version="1.0" encoding="UTF-8" standalone="no"?>
<svg width="50px" height="50px" viewBox="0 0 50 50" version="1.1" xmlns="http://www.w3.org/2000/svg" xmlns:xlink="http://www.w3.org/1999/xlink">
    <!-- Generator: Sketch 44.1 (41455) - http://www.bohemiancoding.com/sketch -->
    <title>icon-amenity-kitchen</title>
    <desc>Created with Sketch.</desc>
    <defs>
        <rect id="path-1" x="0" y="0" width="50" height="50" rx="25"></rect>
    </defs>
    <g id="Icons" stroke="none" stroke-width="1" fill="none" fill-rule="evenodd">
        <g id="icon-amenity-kitchen">
            <g id="Rectangle">
                <use fill="#FFFFFF" fill-rule="evenodd" xlink:href="#path-1"></use>
                <rect stroke="#933031" stroke-width="1.2" x="0.6" y="0.6" width="48.8" height="48.8" rx="24.4"></rect>
            </g>
            <g id="Group" stroke-width="1" fill-rule="evenodd" transform="translate(14.000000, 13.000000)" fill="#933031">
                <rect id="Rectangle-path" fill-rule="nonzero" x="1.30032616" y="22.6844055" width="19.5148297" height="2.2670078"></rect>
                <path d="M0.00340986106,7.56345029 L0.00340986106,21.2019006 L22.1121209,21.2019006 L22.1121209,7.56345029 L0.00340986106,7.56345029 Z M18.7763999,11.0188596 L3.3391308,11.0188596 L3.3391308,9.53654971 L18.7763512,9.53654971 L18.7763512,11.0188596 L18.7763999,11.0188596 Z" id="Shape" fill-rule="nonzero"></path>
                <path d="M0.00340986106,0 L0.00340986106,6.08109162 L22.1121209,6.08109162 L22.1121209,0 L0.00340986106,0 Z M4.82081286,4.10804094 L3.3391308,4.10804094 L3.3391308,1.97305068 L4.82081286,1.97305068 L4.82081286,4.10804094 Z M7.29033167,4.10804094 L5.80864961,4.10804094 L5.80864961,1.97305068 L7.29033167,1.97305068 L7.29033167,4.10804094 Z M9.54444468,4.06042885 C8.98142791,4.06042885 8.52504236,3.6038499 8.52504236,3.04059454 C8.52504236,2.47738791 8.98142791,2.02076023 9.54444468,2.02076023 C10.1074127,2.02076023 10.563847,2.47738791 10.563847,3.04059454 C10.563847,3.60380117 10.1074615,4.06042885 9.54444468,4.06042885 Z M12.5710861,4.06042885 C12.008118,4.06042885 11.5516838,3.6038499 11.5516838,3.04059454 C11.5516838,2.47738791 12.0080693,2.02076023 12.5710861,2.02076023 C13.1341028,2.02076023 13.5904884,2.47738791 13.5904884,3.04059454 C13.5904884,3.60380117 13.1340541,4.06042885 12.5710861,4.06042885 Z M16.3068811,4.10804094 L14.8251991,4.10804094 L14.8251991,1.97305068 L16.3068811,1.97305068 L16.3068811,4.10804094 Z M18.7763999,4.10804094 L17.2947179,4.10804094 L17.2947179,1.97305068 L18.7763999,1.97305068 L18.7763999,4.10804094 L18.7763999,4.10804094 Z" id="Shape" fill-rule="nonzero"></path>
            </g>
        </g>
    </g>
</svg>