<?xml version="1.0" encoding="UTF-8" standalone="no"?>
<svg width="50px" height="50px" viewBox="0 0 50 50" version="1.1" xmlns="http://www.w3.org/2000/svg" xmlns:xlink="http://www.w3.org/1999/xlink">
    <!-- Generator: Sketch 44.1 (41455) - http://www.bohemiancoding.com/sketch -->
    <title>icon-amenity-dining</title>
    <desc>Created with Sketch.</desc>
    <defs>
        <rect id="path-1" x="0" y="0" width="50" height="50" rx="25"></rect>
    </defs>
    <g id="Icons" stroke="none" stroke-width="1" fill="none" fill-rule="evenodd">
        <g id="icon-amenity-dining">
            <g id="Rectangle">
                <use fill="#FFFFFF" fill-rule="evenodd" xlink:href="#path-1"></use>
                <rect stroke="#933031" stroke-width="1.2" x="0.6" y="0.6" width="48.8" height="48.8" rx="24.4"></rect>
            </g>
            <g id="Group-5" stroke-width="1" fill-rule="evenodd" transform="translate(10.000000, 16.000000)" fill="#933031">
                <g id="Group">
                    <path d="M14.3126,17.7034667 C9.43126667,17.7034667 5.46093333,13.7325333 5.46093333,8.8524 C5.46093333,3.97226667 9.43186667,0.00133333333 14.3126,0.00133333333 C19.1932667,0.00133333333 23.1636667,3.97226667 23.1636667,8.8524 C23.1636667,13.7325333 19.1932667,17.7034667 14.3126,17.7034667 Z M14.3126,3.7856 C11.5184,3.7856 9.24573333,6.05826667 9.24573333,8.8518 C9.24573333,11.6453333 11.5184,13.918 14.3126,13.918 C17.1060667,13.918 19.3788,11.6453333 19.3788,8.8518 C19.3788667,6.05826667 17.1061333,3.7856 14.3126,3.7856 Z M14.3126,12.7233333 C12.1776,12.7233333 10.4410667,10.9874 10.4410667,8.85246667 C10.4410667,6.71746667 12.1776,4.9816 14.3126,4.9816 C16.4469333,4.9816 18.1834667,6.71813333 18.1834667,8.85246667 C18.1835333,10.9868 16.4469333,12.7233333 14.3126,12.7233333 Z" id="Combined-Shape" fill-rule="nonzero"></path>
                    <path d="M2.57433333,6.38593333 L3.11366667,16.6465333 C3.11366667,17.1393333 2.8198,17.5932 2.45706667,17.5932 L1.47213333,17.5932 C1.1094,17.5932 0.815466667,17.1392667 0.815466667,16.6465333 L1.34586667,6.30373333 C0.5668,5.89 0.0084,4.826 0.0084,3.56626667 C0.0084,1.9496 0.9232,0.638866667 2.05286667,0.638866667 C3.18186667,0.638866667 4.09733333,1.94953333 4.09733333,3.56686667 C4.09666667,4.92353333 3.44833333,6.0538 2.57433333,6.38593333 Z" id="Path"></path>
                    <path d="M29.5992,6.75633333 C29.5992,7.06486667 29.2906667,7.43206667 28.9107333,7.43206667 L28.2171333,7.43206667 L28.7054667,16.1938667 C28.7054667,16.6503333 28.4116,16.9945333 28.0488,16.9945333 L27.0638667,16.9945333 C26.7012,16.9945333 26.4072667,16.6503333 26.4072667,16.1938667 L26.8828,7.43266667 L26.1561333,7.43266667 C25.7762,7.43266667 25.4676,7.0648 25.4676,6.75693333 L25.1233333,5.04206667 C25.1233333,5.00446667 25.1406,4.9694 25.1495333,4.9324 L25.1495333,1.45606667 C25.1495333,1.12646667 25.4166667,0.858066667 25.7468667,0.858066667 C26.0770667,0.858066667 26.3448667,1.12586667 26.3448667,1.45606667 L26.3448667,4.44466667 L26.3448667,5.04266667 C26.3448667,5.2078 26.4787333,5.34166667 26.6438,5.34166667 C26.809,5.34166667 26.9428,5.2078 26.9428,5.04266667 L26.9428,4.44466667 L26.9428,1.45606667 C26.9428,1.12646667 27.2099333,0.858066667 27.5408,0.858066667 C27.8716667,0.858066667 28.1381333,1.12586667 28.1381333,1.45606667 L28.1381333,4.44466667 L28.1381333,5.04266667 C28.1381333,5.2078 28.272,5.34166667 28.4370667,5.34166667 C28.6022667,5.34166667 28.7360667,5.2078 28.7360667,5.04266667 L28.7360667,4.44466667 L28.7360667,1.45606667 C28.7360667,1.12646667 29.0032,0.858066667 29.3334,0.858066667 C29.6636,0.858066667 29.9314,1.12586667 29.9314,1.45606667 L29.9314,4.9904 C29.9332667,5.0076 29.9441333,5.02353333 29.9441333,5.042 L29.5992,6.75633333 Z" id="Path"></path>
                </g>
            </g>
        </g>
    </g>
</svg>