<?xml version="1.0" encoding="UTF-8" standalone="no"?>
<svg width="50px" height="50px" viewBox="0 0 50 50" version="1.1" xmlns="http://www.w3.org/2000/svg" xmlns:xlink="http://www.w3.org/1999/xlink">
    <!-- Generator: Sketch 44.1 (41455) - http://www.bohemiancoding.com/sketch -->
    <title>icon-amenity-adultsonly</title>
    <desc>Created with Sketch.</desc>
    <defs>
        <rect id="path-1" x="0" y="0" width="50" height="50" rx="25"></rect>
    </defs>
    <g id="Icons" stroke="none" stroke-width="1" fill="none" fill-rule="evenodd">
        <g id="icon-amenity-adultsonly">
            <g id="Rectangle">
                <use fill="#FFFFFF" fill-rule="evenodd" xlink:href="#path-1"></use>
                <rect stroke="#933031" stroke-width="1.2" x="0.6" y="0.6" width="48.8" height="48.8" rx="24.4"></rect>
            </g>
            <path d="M28.4143686,19.6657395 L28.4143686,17.0729556 L32.4873242,17.0729556 L32.4873242,13 L35.0999762,13 L35.0999762,17.0729556 L39.1729317,17.0729556 L39.1729317,19.6657395 L35.0999762,19.6657395 L35.0999762,23.7585631 L32.4873242,23.7585631 L32.4873242,19.6657395 L28.4143686,19.6657395 Z M11.6323015,35.3103592 C12.0160884,34.3980788 12.9220636,33.4323344 14.3502543,32.413097 C15.5896973,31.525983 16.3918629,30.8905421 16.756775,30.5067551 C17.3167264,29.9090542 17.5966979,29.2547388 17.5966979,28.5437892 C17.5966979,27.9649631 17.4362648,27.4836637 17.1153938,27.0998768 C16.7945228,26.7160899 16.3352437,26.5241993 15.7375427,26.5241993 C14.9196362,26.5241993 14.3628389,26.8293368 14.0671342,27.4396209 C13.8972613,27.7919499 13.7965974,28.3518929 13.7651395,29.1194667 L11.1509974,29.1194667 C11.1950385,27.9555228 11.4058036,27.0149444 11.7832989,26.2977033 C12.50054,24.9324285 13.7745677,24.2498013 15.60542,24.2498013 C17.0524854,24.2498013 18.2038289,24.6508841 19.059485,25.4530617 C19.9151411,26.2552392 20.3429627,27.3169289 20.3429627,28.6381626 C20.3429627,29.6511084 20.040971,30.5507921 19.4369785,31.3372407 C19.0406084,31.8594426 18.3894387,32.4414058 17.4834499,33.0831479 L16.4075936,33.8475721 C15.7343936,34.3257329 15.2735416,34.6717651 15.0250238,34.8856791 C14.7765061,35.0995931 14.5673139,35.3481071 14.397441,35.6312286 L20.3712747,35.6312286 L20.3712747,38 L11,38 C11.0251664,37.0185121 11.2359314,36.1219742 11.6323015,35.3103592 Z M22.485238,28.5626639 L22.485238,26.7318207 C23.3346025,26.6940712 23.9291487,26.6374477 24.2688945,26.5619487 C24.8099712,26.4424085 25.2503758,26.2033317 25.5901216,25.8447111 C25.8229104,25.5993392 25.9990722,25.2721814 26.1186124,24.8632282 C26.1878199,24.6178562 26.2224231,24.4354029 26.2224231,24.3158627 L28.4590718,24.3158627 L28.4590718,38 L25.7033696,38 L25.7033696,28.5626639 L22.485238,28.5626639 Z" id="Combined-Shape" fill="#933031" fill-rule="evenodd"></path>
        </g>
    </g>
</svg>