<?xml version="1.0" encoding="UTF-8" standalone="no"?>
<svg width="50px" height="50px" viewBox="0 0 50 50" version="1.1" xmlns="http://www.w3.org/2000/svg" xmlns:xlink="http://www.w3.org/1999/xlink">
    <!-- Generator: Sketch 44.1 (41455) - http://www.bohemiancoding.com/sketch -->
    <title>icon-amenity-minibar</title>
    <desc>Created with Sketch.</desc>
    <defs>
        <rect id="path-1" x="0" y="0" width="50" height="50" rx="25"></rect>
    </defs>
    <g id="Icons" stroke="none" stroke-width="1" fill="none" fill-rule="evenodd">
        <g id="icon-amenity-minibar">
            <g id="Rectangle">
                <use fill="#FFFFFF" fill-rule="evenodd" xlink:href="#path-1"></use>
                <rect stroke="#933031" stroke-width="1.2" x="0.6" y="0.6" width="48.8" height="48.8" rx="24.4"></rect>
            </g>
            <path d="M24.3119368,25.1121392 C24.3119368,24.0408655 24.047564,23.0046745 23.5401185,22.1150788 L23.4198352,21.9045829 L15.8895957,21.9045829 L15.7718182,22.1150788 C15.2656258,23.0034215 15,24.0408655 15,25.1121392 C15,27.8448268 16.7390969,30.1089104 18.9956629,30.483543 L18.9956629,36.8648258 C17.6938461,36.9174498 16.7240615,37.1154161 16.7240615,37.3497181 C16.7240615,37.6278734 18.0459255,37.8508988 19.6772686,37.8508988 C21.3098646,37.8508988 22.6342345,37.6278734 22.6342345,37.3497181 C22.6342345,37.1154161 21.6644499,36.9174498 20.3626331,36.8648258 L20.3626331,30.4785312 C22.5966459,30.0800925 24.3119368,27.8247795 24.3119368,25.1121392 Z M19.6547154,29.70546 C17.5472507,29.70546 15.830707,27.6456074 15.830707,25.1096333 C15.830707,24.2651438 16.0199027,23.4494723 16.3820057,22.7340369 L22.9286781,22.7340369 C23.2895282,23.4494723 23.4812298,24.2663968 23.4812298,25.1096333 C23.4824828,27.6468604 21.7634331,29.70546 19.6547154,29.70546 Z M32.2844682,14.8717652 L28.972917,14.8717652 L28.972917,12 L32.2844682,12 L32.2844682,14.8717652 Z M32.2844682,18.4301479 L32.2844682,15.7550961 L28.972917,15.7550961 L28.972917,18.4314009 C27.5746229,19.0616356 26.5973206,20.4674474 26.5973206,22.1038022 L26.5973206,24.7262301 L26.5973206,33.0871765 L26.5973206,38 L34.6588116,38 L34.6588116,33.0871765 L34.6588116,24.7262301 L34.6588116,22.1038022 C34.6600646,20.4674474 33.6852682,19.0616356 32.2844682,18.4301479 Z M33.9471351,33.9467014 L27.3804154,33.9467014 L27.3804154,26.0681413 L33.9471351,26.0681413 L33.9471351,33.9467014 Z M23.1341622,25.1985928 C23.1341622,25.1985928 22.9600019,29.3646571 19.7110983,29.3646571 C16.4621946,29.3646571 16.0236615,25.1985928 16.0236615,25.1985928 L23.1341622,25.1985928 L23.1341622,25.1985928 Z" id="Shape" fill="#933031" fill-rule="nonzero"></path>
        </g>
    </g>
</svg>