<?xml version="1.0" encoding="UTF-8" standalone="no"?>
<svg width="50px" height="50px" viewBox="0 0 50 50" version="1.1" xmlns="http://www.w3.org/2000/svg" xmlns:xlink="http://www.w3.org/1999/xlink">
    <!-- Generator: Sketch 44.1 (41455) - http://www.bohemiancoding.com/sketch -->
    <title>icon-amenity-golf</title>
    <desc>Created with Sketch.</desc>
    <defs>
        <rect id="path-1" x="0" y="0" width="50" height="50" rx="25"></rect>
    </defs>
    <g id="Icons" stroke="none" stroke-width="1" fill="none" fill-rule="evenodd">
        <g id="icon-amenity-golf">
            <g id="Rectangle">
                <use fill="#FFFFFF" fill-rule="evenodd" xlink:href="#path-1"></use>
                <rect stroke="#933031" stroke-width="1.2" x="0.6" y="0.6" width="48.8" height="48.8" rx="24.4"></rect>
            </g>
            <g id="Group-2" stroke-width="1" fill-rule="evenodd" transform="translate(17.000000, 10.000000)" fill="#933031">
                <path d="M4.99439024,5.06097561 C4.38463415,5.06097561 3.85615854,5.27439024 3.40902439,5.70121951 C2.96189024,6.12804878 2.73829268,6.64634146 2.73829268,7.25609756 C2.73829268,7.86585366 2.96189024,8.38414634 3.40902439,8.81097561 C3.85615854,9.23780488 4.38463415,9.45121951 4.99439024,9.45121951 C5.60414634,9.45121951 6.12243902,9.23780488 6.54926829,8.81097561 C6.97609756,8.38414634 7.1895122,7.86585366 7.1895122,7.25609756 C7.1895122,6.64634146 6.97609756,6.12804878 6.54926829,5.70121951 C6.12243902,5.27439024 5.60414634,5.06097561 4.99439024,5.06097561 Z" id="Shape" fill-rule="nonzero"></path>
                <path d="M16.274939,9.3902439 C16.2338415,9.1870122 16.0712805,8.94310976 15.7871341,8.65853659 L2.73835366,0 L1.51884146,1.76829268 C1.23426829,2.17481707 1.2952439,2.52036585 1.70176829,2.80487805 C2.10829268,3.08945122 2.45378049,3.02847561 2.73835366,2.62195122 L3.47006098,1.58536585 L14.0798171,8.59756098 L5.36030488,10.1829268 C5.07573171,10.2235976 4.83182927,10.3760366 4.62859756,10.6402439 C4.42536585,10.9044512 4.36439024,11.1788415 4.44567073,11.4634146 L6.33591463,18.8414634 L0.238353659,27.9878049 C0.0351219512,28.3130488 -0.0157317073,28.6585366 0.0859146341,29.0243902 C0.187560976,29.3902439 0.40097561,29.6545122 0.726158537,29.8170732 C1.05134146,29.9796341 1.38670732,30.0203659 1.7322561,29.9390244 C2.07780488,29.8576829 2.35219512,29.6545122 2.55542683,29.3292683 C6.78304878,22.9065854 8.91719512,19.674878 8.95786585,19.6341463 L9.2627439,20.9756098 L8.28713415,28.2317073 C8.24652439,28.5569512 8.32786585,28.8719512 8.53103659,29.1768293 C8.73420732,29.4817073 9.01884146,29.6646341 9.38469512,29.7256098 C9.75054878,29.7865854 10.0859146,29.7052439 10.3907927,29.4817073 C10.6956707,29.2581707 10.8683537,28.9837805 10.9090854,28.6585366 L11.8846951,21.2195122 C11.9253049,20.9756098 11.9253049,20.7114634 11.8846951,20.4268293 L9.68957317,11.7073171 L15.3603049,10.7317073 C15.6448171,10.6504268 15.8785976,10.4878049 16.0615244,10.2439024 C16.2444512,10 16.3155488,9.71542683 16.274939,9.3902439 Z" id="Shape" fill-rule="nonzero"></path>
            </g>
        </g>
    </g>
</svg>