<?xml version="1.0" encoding="UTF-8" standalone="no"?>
<svg width="50px" height="50px" viewBox="0 0 50 50" version="1.1" xmlns="http://www.w3.org/2000/svg" xmlns:xlink="http://www.w3.org/1999/xlink">
    <!-- Generator: Sketch 44.1 (41455) - http://www.bohemiancoding.com/sketch -->
    <title>icon-amenity-refrigerator</title>
    <desc>Created with Sketch.</desc>
    <defs>
        <rect id="path-1" x="0" y="0" width="50" height="50" rx="25"></rect>
    </defs>
    <g id="Icons" stroke="none" stroke-width="1" fill="none" fill-rule="evenodd">
        <g id="icon-amenity-refrigerator">
            <g id="Rectangle">
                <use fill="#FFFFFF" fill-rule="evenodd" xlink:href="#path-1"></use>
                <rect stroke="#933031" stroke-width="1.2" x="0.6" y="0.6" width="48.8" height="48.8" rx="24.4"></rect>
            </g>
            <g id="refrigerator" stroke-width="1" fill-rule="evenodd" transform="translate(18.000000, 12.000000)" fill="#933031">
                <path d="M13.9991686,0 L0.906277136,0 C0.408854503,0 0.00558429561,0.403270208 0.00558429561,0.900692841 L0.00558429561,6.71316397 L14.8998614,6.71316397 L14.8998614,0.900692841 C14.8998614,0.403270208 14.4965312,0 13.9991686,0 Z M2.80103464,4.68756582 C2.80103464,4.98605543 2.55910855,5.22798152 2.26061894,5.22798152 C1.96212933,5.22798152 1.72020323,4.98605543 1.72020323,4.68756582 L1.72020323,2.02553811 C1.72020323,1.7270485 1.96212933,1.4851224 2.26061894,1.4851224 C2.55910855,1.4851224 2.80103464,1.7270485 2.80103464,2.02553811 L2.80103464,4.68756582 Z" id="Shape" fill-rule="nonzero"></path>
                <path d="M0.00558429561,23.8683603 C0.00558429561,24.3657829 0.408854503,24.7690531 0.906277136,24.7690531 L2.0485358,24.7690531 L2.0485358,25.0931824 C2.0485358,25.5685081 2.43391224,25.9538845 2.90923788,25.9538845 C3.38456351,25.9538845 3.76987991,25.5685081 3.76987991,25.0931824 L3.76987991,24.7690531 L11.1355058,24.7690531 L11.1355058,25.0931824 C11.1355058,25.5685081 11.5208822,25.9538845 11.9962079,25.9538845 C12.4715335,25.9538845 12.8569099,25.5685081 12.8569099,25.0931824 L12.8569099,24.7690531 L13.9991686,24.7690531 C14.4965312,24.7690531 14.8998614,24.3657829 14.8998614,23.8683603 L14.8998614,8.51454965 L0.00558429561,8.51454965 L0.00558429561,23.8683603 Z M1.72020323,11.1525589 C1.72020323,10.8540693 1.96212933,10.6121432 2.26061894,10.6121432 C2.55910855,10.6121432 2.80103464,10.8540693 2.80103464,11.1525589 L2.80103464,13.8145866 C2.80103464,14.1130762 2.55910855,14.3550023 2.26061894,14.3550023 C1.96212933,14.3550023 1.72020323,14.1130762 1.72020323,13.8145866 L1.72020323,11.1525589 Z" id="Shape" fill-rule="nonzero"></path>
            </g>
        </g>
    </g>
</svg>