<?xml version="1.0" encoding="UTF-8" standalone="no"?>
<svg width="50px" height="50px" viewBox="0 0 50 50" version="1.1" xmlns="http://www.w3.org/2000/svg" xmlns:xlink="http://www.w3.org/1999/xlink">
    <!-- Generator: Sketch 44.1 (41455) - http://www.bohemiancoding.com/sketch -->
    <title>icon-amenity-drycleaning</title>
    <desc>Created with Sketch.</desc>
    <defs>
        <rect id="path-1" x="0" y="0" width="50" height="50" rx="25"></rect>
    </defs>
    <g id="Icons" stroke="none" stroke-width="1" fill="none" fill-rule="evenodd">
        <g id="icon-amenity-drycleaning">
            <g id="Rectangle">
                <use fill="#FFFFFF" fill-rule="evenodd" xlink:href="#path-1"></use>
                <rect stroke="#933031" stroke-width="1.2" x="0.6" y="0.6" width="48.8" height="48.8" rx="24.4"></rect>
            </g>
            <g id="Group-2" stroke-width="1" fill-rule="evenodd" transform="translate(12.000000, 12.000000)" fill="#933031">
                <path d="M26.6124875,13.1295955 C25.7325204,12.4469446 18.4311548,6.86182546 14.3858674,6.04095893 L14.3858674,5.51443121 C15.5042329,5.13620945 16.3118489,4.07611294 16.3118489,2.8311191 C16.3118489,1.27016427 15.0426271,0 13.482005,0 C11.9206066,0 10.6504423,1.27016427 10.6504423,2.8311191 C10.6504423,3.33025873 11.054777,3.73498152 11.5543047,3.73498152 C12.0538879,3.73498152 12.4581672,3.33031417 12.4581672,2.8311191 C12.4581672,2.2666694 12.9171672,1.8076694 13.4820604,1.8076694 C14.0460666,1.8076694 14.5042349,2.2666694 14.5042349,2.8311191 C14.5042349,3.39556879 14.0460666,3.85456879 13.4820604,3.85456879 C12.9824772,3.85456879 12.5782534,4.25929158 12.5782534,4.75843121 L12.5782534,6.0405154 C8.5329105,6.86010678 1.23060249,12.4469446 0.349748279,13.1295955 C0.0452636795,13.3662197 -0.0765412486,13.7708871 0.0487564927,14.1363018 C0.174165117,14.5021602 0.517514193,14.7475441 0.904107622,14.7475441 L5.96879756,14.7475441 L5.96879756,12.9398747 L3.64563329,12.9398747 C6.76055731,10.7234353 11.4174752,7.73918686 13.4811179,7.73918686 C15.5430419,7.73918686 20.2008468,10.7234353 23.3166579,12.9398747 L20.9952123,12.9398747 L20.9952123,14.7475441 L26.0590152,14.7475441 C26.4457195,14.7475441 26.7890686,14.5021602 26.9143663,14.1363018 C27.0397195,13.7708871 26.9179146,13.3662197 26.6124875,13.1295955 Z" id="XMLID_73_" fill-rule="nonzero"></path>
                <path d="M18.9426899,12.6 L8.66844148,12.6 C8.35508624,12.6 8.1,12.8546982 8.1,13.168885 L8.1,21.8648809 L8.67110267,21.8648809 L8.67110267,22.8314476 L8.1,22.8314476 L8.1,25.0795996 C8.1,25.3937864 8.35508624,25.6484846 8.66844148,25.6484846 L18.9426345,25.6484846 C19.2559897,25.6484846 19.511076,25.3937864 19.511076,25.0795996 L19.511076,22.8314476 L18.9400287,22.8314476 L18.9400287,21.8648809 L19.511076,21.8648809 L19.511076,13.168885 C19.5111314,12.8547536 19.2560452,12.6 18.9426899,12.6 Z M12.7790945,22.8315031 L10.7250986,22.8315031 L10.7250986,21.8649363 L12.7790945,21.8649363 L12.7790945,22.8315031 Z M16.8860883,22.8315031 L14.8320924,22.8315031 L14.8320924,21.8649363 L16.8860883,21.8649363 L16.8860883,22.8315031 Z" id="XMLID_74_" fill-rule="nonzero"></path>
            </g>
        </g>
    </g>
</svg>