<?xml version="1.0" encoding="UTF-8" standalone="no"?>
<svg width="50px" height="50px" viewBox="0 0 50 50" version="1.1" xmlns="http://www.w3.org/2000/svg" xmlns:xlink="http://www.w3.org/1999/xlink">
    <!-- Generator: Sketch 44.1 (41455) - http://www.bohemiancoding.com/sketch -->
    <title>icon-amenity-pool</title>
    <desc>Created with Sketch.</desc>
    <defs>
        <rect id="path-1" x="0" y="0" width="50" height="50" rx="25"></rect>
    </defs>
    <g id="Icons" stroke="none" stroke-width="1" fill="none" fill-rule="evenodd">
        <g id="icon-amenity-pool">
            <g id="Rectangle">
                <use fill="#FFFFFF" fill-rule="evenodd" xlink:href="#path-1"></use>
                <rect stroke="#933031" stroke-width="1.2" x="0.6" y="0.6" width="48.8" height="48.8" rx="24.4"></rect>
            </g>
            <path d="M36.6177126,30.3127443 C37.4654349,29.3426901 38.6543485,28.7090488 40,28.538931 L40,31.7109603 C39.5030264,31.8686538 39.161835,32.1687494 38.9821599,32.3742288 C38.0761389,33.4150062 36.7610704,34.0123301 35.3771902,34.0142416 C33.9885314,34.0142416 32.6744186,33.4159619 31.7664861,32.3742288 C31.5141765,32.0865576 30.9589041,31.6010527 30.0739089,31.6010527 C29.4230647,31.6010527 28.8238292,31.8705652 28.3889774,32.3608488 C27.4829564,33.3844232 26.1764893,33.97219 24.8088563,33.97219 C23.4393119,33.97219 22.1338006,33.3844232 21.2258681,32.3608488 C20.7929277,31.8705652 20.194648,31.6010527 19.5438038,31.6010527 C18.894871,31.6010527 18.2956356,31.8705652 17.859828,32.3598931 C16.9538069,33.3853789 15.6473399,33.9712342 14.2787512,33.9712342 C12.9092068,33.9712342 11.6046512,33.3844232 10.695763,32.3618045 C10.4960178,32.1352992 10.258044,31.9623142 10,31.8342479 L10,28.5714254 C11.2032494,28.7950635 12.2640968,29.4009889 13.0430073,30.2802499 C13.3555272,30.6329099 13.807582,30.8336108 14.2777955,30.8336108 C14.7518318,30.8336108 15.2000637,30.6329099 15.5154508,30.2792941 C16.5007964,29.1658822 17.9324626,28.4653407 19.542848,28.4653407 C21.155145,28.4653407 22.5829882,29.1668379 23.571201,30.2792941 C23.8856324,30.6329099 24.3357757,30.8336108 24.8079006,30.8336108 C25.2809812,30.8336108 25.7292131,30.6319542 26.0426888,30.2783384 C27.0289901,29.1658822 28.4606563,28.4653407 30.0719975,28.4653407 C31.6976744,28.4653407 33.1408092,29.1811737 34.1280663,30.3127443 C34.4396305,30.6720944 34.8955081,30.8775738 35.3714559,30.8775738 C35.8502708,30.8775738 36.3051927,30.6711387 36.6177126,30.3127443 Z M33.2946798,27.2496669 C31.1585571,27.2496669 29.4268875,25.5179973 29.4268875,23.3818746 C29.4268875,21.2457519 31.1585571,19.5140823 33.2946798,19.5140823 C35.4308025,19.5140823 37.1624721,21.2457519 37.1624721,23.3818746 C37.1624721,25.5179973 35.4308025,27.2496669 33.2946798,27.2496669 Z M24.3529787,29.5863983 C23.1325263,28.2092081 21.3797388,27.4178733 19.5457152,27.4197847 C18.0471488,27.4197847 16.6087926,27.9540313 15.4667091,28.8944582 C15.5670596,27.486685 16.4788149,26.2021995 17.897101,25.7014031 L24.2239567,23.4678892 C24.4227461,23.3971661 24.6272698,23.3560702 24.8298821,23.3207086 L24.4972921,21.9731457 C24.4389933,21.7237032 24.0414145,19.7415433 25.3335457,17.8539995 C26.3714559,16.3372744 28.142402,15.3825117 30.5909525,15.0174273 C31.4577891,14.889361 32.2491239,15.4809507 32.374323,16.3372744 C32.5014336,17.1935981 31.9107996,17.9906672 31.0544759,18.1187335 C29.5253265,18.3481059 28.4405862,18.8680167 27.9225868,19.6259013 C27.3998089,20.3914318 27.5469895,21.2429768 27.5489009,21.2515783 C27.5489009,21.2515783 28.7789105,25.3831489 28.8907295,25.6994917 C29.102899,26.30255 29.133482,26.9237669 29.0340873,27.5134451 C27.5880854,27.751419 26.2491239,28.4720307 25.2599554,29.5854426 C25.0296273,29.8444423 24.5823511,29.8425308 24.3529787,29.5863983 Z" id="Combined-Shape" fill="#933031" fill-rule="nonzero"></path>
        </g>
    </g>
</svg>