<?xml version="1.0" encoding="UTF-8" standalone="no"?>
<svg width="50px" height="50px" viewBox="0 0 50 50" version="1.1" xmlns="http://www.w3.org/2000/svg" xmlns:xlink="http://www.w3.org/1999/xlink">
    <!-- Generator: Sketch 44.1 (41455) - http://www.bohemiancoding.com/sketch -->
    <title>icon-amenity-recreation</title>
    <desc>Created with Sketch.</desc>
    <defs>
        <rect id="path-1" x="0" y="0" width="50" height="50" rx="25"></rect>
    </defs>
    <g id="Icons" stroke="none" stroke-width="1" fill="none" fill-rule="evenodd">
        <g id="icon-amenity-recreation">
            <g id="Rectangle">
                <use fill="#FFFFFF" fill-rule="evenodd" xlink:href="#path-1"></use>
                <rect stroke="#933031" stroke-width="1.2" x="0.6" y="0.6" width="48.8" height="48.8" rx="24.4"></rect>
            </g>
            <path d="M31.8027386,24.7095842 C29.7600619,26.3835278 26.9216354,30.0033658 25.4207786,37.6621891 C25.394555,37.7958179 25.2766299,37.8873783 25.147059,37.8747493 C25.0174066,37.8621203 24.9174798,37.7493977 24.9152809,37.6130383 C24.8559926,33.8705792 25.4748548,26.2472538 30.9157761,21.4914858 C30.9262819,21.5027496 30.9360547,21.5145253 30.9468862,21.525533 L31.6578569,22.2517022 L31.4900092,23.2772134 C31.4058003,23.7916757 31.5237253,24.3024687 31.8027386,24.7095842 Z M21.1326397,19.5953396 C21.1505565,19.5911583 21.1679032,19.5856118 21.1855757,19.5810039 C22.4272091,23.0917032 23.6574409,28.7137543 23.5925333,37.1398764 C23.5918003,37.2323755 23.5231464,37.308747 23.4350284,37.3149761 C23.3469104,37.3212053 23.2689724,37.2553296 23.2564306,37.1636838 C22.7229175,33.2571327 21.3882797,25.5017998 18.8256903,21.7032781 C18.838395,21.6744361 18.8512625,21.6456794 18.8626641,21.6159842 L19.4907289,19.9804396 L21.1326397,19.5953396 Z M32.3616609,33.2386158 L32.2299726,33.6293477 C32.2285881,33.6335289 32.2276108,33.6377102 32.2262263,33.6418061 C29.7081032,34.0245168 28.0196088,35.9093994 27.0802804,37.3367356 C26.981901,37.486236 26.794752,37.5393121 26.6377357,37.4623433 C26.480801,37.3853744 26.3998497,37.2008029 26.4463519,37.0258738 C27.3071721,33.7866986 30.0013684,32.5060468 31.7923957,32.0055789 C31.8284736,32.3229259 31.9406979,32.6319104 32.128987,32.9032639 L32.3616609,33.2386158 Z M19.5541706,29.9675267 C20.5386982,31.393839 21.5758359,33.6913835 22.1688001,37.3600311 C22.1890787,37.4850414 22.116027,37.6057851 21.9996494,37.6401736 C21.8831902,37.6744768 21.7606231,37.611417 21.7157497,37.4937452 C21.046069,35.7383955 19.9379157,33.2936545 18.4341271,31.5139001 C18.4698792,31.3984469 18.4962657,31.2785564 18.5109249,31.1546554 L18.5595446,30.7433587 L18.9104693,30.5521313 C19.1725431,30.4092867 19.3903949,30.2075636 19.5541706,29.9675267 Z M33.4080014,21.6559192 L32.0835435,20.3033332 C32.0309333,20.2494891 32.0119578,20.1690217 32.0346796,20.0957222 C32.0574013,20.0224226 32.1179112,19.9690052 32.1907185,19.9579122 L34.020837,19.6793055 L34.8393084,17.9417048 C34.8718844,17.8725865 34.9390724,17.8288115 35.0126126,17.8288115 C35.0861529,17.8288115 35.1533409,17.8725865 35.1859168,17.9417048 L36.0043883,19.6793055 L37.8345068,19.9579122 C37.9073141,19.9690052 37.967824,20.0224226 37.9905457,20.0957222 C38.0132675,20.1690217 37.994292,20.2494891 37.9416003,20.3033332 L36.6173053,21.6559192 L36.9299533,23.5657185 C36.9424136,23.6416633 36.9126066,23.7184614 36.853074,23.7637724 C36.8194393,23.7893717 36.7795337,23.8024274 36.7394653,23.8024274 C36.708681,23.8024274 36.6778152,23.7947476 36.6495556,23.779132 L35.0126941,22.8774364 L33.3757512,23.779132 C33.3474915,23.7947476 33.3166258,23.8024274 33.2858415,23.8024274 C33.245773,23.8024274 33.2058674,23.7893717 33.1722327,23.7637724 C33.1127001,23.7184614 33.0828931,23.6416633 33.0953534,23.5657185 L33.4080014,21.6559192 Z M20.77691,17.9299291 L18.2995068,18.5110351 L17.3517902,20.9789009 C17.3242635,21.0504085 17.260496,21.0993886 17.1871186,21.1051912 C17.1821508,21.1056178 17.1772644,21.1057885 17.172378,21.1057885 C17.1044571,21.1057885 17.0410153,21.0682427 17.0060776,21.0063775 L15.7130556,18.7170248 L13.1801104,18.5351838 C13.106733,18.5299786 13.0425583,18.4815104 13.0145429,18.4101735 C12.9865276,18.3389219 12.9996394,18.2571745 13.0482591,18.1993199 L14.7267364,16.2034214 L14.1090144,13.6231743 C14.0910976,13.5484241 14.1152038,13.4694927 14.1713159,13.4195739 C14.2069052,13.387916 14.2514528,13.371447 14.2964891,13.371447 C14.322387,13.371447 14.3484478,13.3769082 14.3731241,13.3880866 L16.7035282,14.4438052 L18.8547644,13.0308899 C18.8861188,13.0103251 18.921708,13 18.9573787,13 C18.9924793,13 19.0276614,13.0100691 19.0587714,13.0301219 C19.1213173,13.070569 19.1566623,13.1448072 19.1497399,13.22152 L18.911528,15.8699468 L20.8587571,17.5769989 C20.915195,17.6264911 20.9398713,17.7051665 20.9225246,17.7800874 C20.9051779,17.8550082 20.84874,17.9131188 20.77691,17.9299291 Z M37.6152705,32.4370138 C37.6258576,32.5133 37.5942589,32.5893301 37.5338305,32.6331051 L36.5028008,33.3770231 L36.503208,34.6886502 C36.5032894,34.7657896 36.4615107,34.8361879 36.3955444,34.8703204 C36.3683434,34.8843148 36.3391065,34.8912266 36.309951,34.8912266 C36.2682537,34.8912266 36.2268008,34.8770616 36.1924331,34.8494996 L35.19854,34.0519935 L34.0080509,34.4577437 C33.9884239,34.4643996 33.9682268,34.4676422 33.948274,34.4676422 C33.8969668,34.4676422 33.8468812,34.446224 33.8099075,34.406545 C33.7585189,34.3513356 33.741498,34.2704416 33.7660114,34.1977393 L34.182821,32.9608625 L33.4466854,31.8999388 C33.4034407,31.8376469 33.3977399,31.7549609 33.4319447,31.6866959 C33.4653351,31.6200522 33.5313015,31.5784105 33.6029686,31.5784105 C33.6045974,31.5784105 33.6062262,31.5784958 33.607855,31.5784958 L34.8592612,31.6116044 L35.5947454,30.5501687 C35.6314748,30.4971779 35.6898672,30.4666293 35.7511101,30.4666293 C35.7619416,30.4666293 35.7728545,30.467568 35.7837675,30.4695306 C35.856249,30.482501 35.9154559,30.5375396 35.936386,30.6114365 L36.2930115,31.8687075 L37.4836635,32.2736044 C37.5536204,32.2974118 37.6046833,32.3607276 37.6152705,32.4370138 Z M18.1589415,29.0380985 L17.0485078,29.6435239 L16.8946678,30.9452525 C16.8856279,31.0217093 16.8359496,31.0862197 16.7664813,31.1115631 C16.7457141,31.1191576 16.7242954,31.1228268 16.7029581,31.1228268 C16.6530354,31.1228268 16.60409,31.1026033 16.5673606,31.0647162 L15.6747788,30.1450158 L14.4456871,30.3940124 C14.4334711,30.396487 14.4211737,30.3976817 14.4089577,30.3976817 C14.3491808,30.3976817 14.2920099,30.368669 14.2550362,30.3176409 C14.21057,30.2562024 14.2032404,30.1736871 14.2360607,30.1047394 L14.7950645,28.931093 L14.1892327,27.7832167 C14.1536435,27.7157197 14.157634,27.6329484 14.199657,27.5696326 C14.2360607,27.5146792 14.2955933,27.48268 14.3583021,27.48268 C14.3678305,27.48268 14.377359,27.4833626 14.3869689,27.4848986 L15.625019,27.6792832 L16.4796498,26.7208424 C16.516705,26.6792007 16.568175,26.6565879 16.6208667,26.6565879 C16.639435,26.6565879 16.6582476,26.6594038 16.676653,26.6652064 C16.7470986,26.6874778 16.7993016,26.7496843 16.8114361,26.8257145 L17.0175606,28.119422 L18.1516119,28.6749286 C18.2183112,28.7076104 18.2614744,28.7770701 18.2630217,28.8541242 C18.2645691,28.9312637 18.2241749,29.0025153 18.1589415,29.0380985 Z M26.374359,18.0599739 C26.419721,18.1756832 26.4754259,18.2843099 26.5391934,18.3859394 C25.4230589,20.7578075 24.9858893,23.7880918 24.8162499,25.6621372 C24.7965414,25.8800733 24.4938292,25.8826332 24.4691529,25.6652092 C24.0103202,21.6251999 24.446594,18.9392274 25.069691,17.202736 C25.2879501,17.3890141 25.5487208,17.5234962 25.8374254,17.5889453 L26.2241023,17.6765805 L26.374359,18.0599739 Z M26.925626,13.4147953 C26.9182149,13.3380825 26.9529898,13.2636736 27.0152913,13.2228 C27.0466457,13.2022351 27.0823164,13.19191 27.1179057,13.19191 C27.1530877,13.19191 27.1882698,13.2018938 27.2193798,13.222032 L28.2848587,13.9107407 L29.4303115,13.3816015 C29.4553136,13.3699964 29.481863,13.3643645 29.5082495,13.3643645 C29.5527972,13.3643645 29.5969376,13.3805775 29.632364,13.4116381 C29.6888019,13.4611302 29.7135596,13.539891 29.6961315,13.6148118 L29.4002602,14.8893198 L30.234531,15.8672162 C30.2835578,15.9246441 30.2971583,16.0063061 30.269713,16.0778138 C30.2422678,16.1493214 30.1784189,16.1983015 30.1050415,16.204104 L28.85673,16.3030883 L28.2268734,17.436629 C28.1920986,17.4991768 28.1282496,17.5372346 28.0598401,17.5372346 C28.0554423,17.5372346 28.0510446,17.5370639 28.0465654,17.5367226 C27.973188,17.531432 27.9090133,17.4829639 27.8810794,17.4116269 L27.4054701,16.1983015 L26.1819164,15.9209749 C26.1100049,15.9046766 26.0531598,15.8469927 26.0353245,15.7722425 C26.0174077,15.6974069 26.0415953,15.6185608 26.0977075,15.568642 L27.0520208,14.7197665 L26.925626,13.4147953 Z" id="Combined-Shape" fill="#933031" fill-rule="nonzero"></path>
        </g>
    </g>
</svg>