<?xml version="1.0" encoding="UTF-8" standalone="no"?>
<svg width="20px" height="20px" viewBox="0 0 20 20" version="1.1" xmlns="http://www.w3.org/2000/svg" xmlns:xlink="http://www.w3.org/1999/xlink">
    <!-- Generator: Sketch 44.1 (41455) - http://www.bohemiancoding.com/sketch -->
    <title>icon-rating-superb</title>
    <desc>Created with Sketch.</desc>
    <defs></defs>
    <g id="Pages" stroke="none" stroke-width="1" fill="none" fill-rule="evenodd">
        <g id="icon-rating-superb">
            <circle id="Oval-4" fill="#FFC200" cx="10" cy="10" r="10"></circle>
            <path d="M3.6,10.8 C3.90313727,14.1639 6.73026866,16.8 10.1730942,16.8 C13.6159197,16.8 16.4430511,14.1639 16.7461884,10.8 L3.6,10.8 Z" id="Combined-Shape" fill="#FFFFFF"></path>
            <circle id="Oval-5" fill="#333333" cx="7.2" cy="7.2" r="1.6"></circle>
            <circle id="Oval-5" fill="#333333" cx="13.2" cy="7.2" r="1.6"></circle>
            <g id="sunglasses-black-tool" stroke-width="1" transform="translate(1.000000, 4.000000)" fill="#000000">
                <path d="M17.7883665,0.248965116 C15.8658534,-0.0859186047 12.1998848,-0.152197674 9.558,0.650127907 C9.37894241,0.650127907 8.59674346,0.650127907 8.41768586,0.650127907 C5.77580105,-0.152197674 2.10983246,-0.0824302326 0.187319372,0.248965116 C-0.0514240838,0.315244186 -0.0514240838,1.44896512 0.127633508,1.51524419 C0.488890052,1.7140814 0.667947644,2.11524419 0.667947644,2.11524419 C0.667947644,2.11524419 0.787319372,2.51640698 1.08889005,3.98152326 C1.38731937,5.45361628 2.16951832,5.72222093 2.16951832,5.72222093 C2.16951832,5.72222093 3.13077487,5.98733721 4.21140314,5.98733721 C5.29203141,5.98733721 5.95485864,5.92109302 6.67423037,5.51993023 C7.39360209,5.11876744 7.69517277,4.0512907 7.69517277,4.0512907 C7.69517277,4.0512907 8.05642932,3.11640698 8.29517277,2.2512907 C8.35485864,1.98268605 9.558,1.98268605 9.61768586,2.2512907 C9.85646073,3.11989535 10.2177173,4.0512907 10.2177173,4.0512907 C10.2177173,4.0512907 10.519288,5.11876744 11.2386597,5.51993023 C11.9611728,5.92109302 12.6208586,5.98733721 13.7014555,5.98733721 C14.7820838,5.98733721 15.7433403,5.72222093 15.7433403,5.72222093 C15.7433403,5.72222093 16.5255393,5.52338372 16.8239686,3.9885 C17.1255393,2.45361628 17.244911,2.12222093 17.244911,2.12222093 C17.244911,2.12222093 17.4239372,1.72105814 17.7851937,1.52222093 C18.0302513,1.45245349 18.0302513,0.248965116 17.7883665,0.248965116 Z" id="Shape" fill-rule="nonzero"></path>
            </g>
        </g>
    </g>
</svg>