<?xml version="1.0" encoding="UTF-8" standalone="no"?>
<svg width="60px" height="60px" viewBox="0 0 60 60" version="1.1" xmlns="http://www.w3.org/2000/svg" xmlns:xlink="http://www.w3.org/1999/xlink">
    <!-- Generator: Sketch 44.1 (41455) - http://www.bohemiancoding.com/sketch -->
    <title>graphic-free-wifi</title>
    <desc>Created with Sketch.</desc>
    <defs></defs>
    <g id="Pages" stroke="none" stroke-width="1" fill="none" fill-rule="evenodd">
        <g id="Sabre---Details-Styles" transform="translate(-816.000000, -281.000000)">
            <g id="graphic-free-wifi" transform="translate(816.000000, 281.000000)">
                <g>
                    <circle id="Oval-3" fill="#00BEFF" cx="30" cy="30" r="30"></circle>
                    <path d="M19.9414062,30.0078125 L24.0234375,30.0078125 L24.0234375,31.0195312 L21.1367188,31.0195312 L21.1367188,32.34375 L23.6640625,32.34375 L23.6640625,33.34375 L21.1367188,33.34375 L21.1367188,35.7578125 L19.9414062,35.7578125 L19.9414062,30.0078125 Z M26.03125,31 L26.03125,32.546875 L27.3945312,32.546875 C27.6653659,32.546875 27.8684889,32.5156253 28.0039062,32.453125 C28.2434908,32.3437495 28.3632812,32.1276058 28.3632812,31.8046875 C28.3632812,31.4557274 28.247397,31.2213548 28.015625,31.1015625 C27.885416,31.0338538 27.6901055,31 27.4296875,31 L26.03125,31 Z M28.6113281,30.1484375 C28.8287771,30.2395838 29.0130201,30.373697 29.1640625,30.5507812 C29.2890631,30.6966153 29.3880205,30.858072 29.4609375,31.0351562 C29.5338545,31.2122405 29.5703125,31.4140614 29.5703125,31.640625 C29.5703125,31.9140639 29.5013028,32.1829414 29.3632812,32.4472656 C29.2252597,32.7115899 28.9973974,32.898437 28.6796875,33.0078125 C28.9453138,33.1145839 29.133463,33.2662751 29.2441406,33.4628906 C29.3548183,33.6595062 29.4101562,33.9596334 29.4101562,34.3632812 L29.4101562,34.75 C29.4101562,35.0130221 29.4205728,35.1914058 29.4414062,35.2851562 C29.4726564,35.4335945 29.5455723,35.5429684 29.6601562,35.6132812 L29.6601562,35.7578125 L28.3359375,35.7578125 C28.299479,35.6302077 28.2734376,35.5273441 28.2578125,35.4492188 C28.2265623,35.2877596 28.2096354,35.1223967 28.2070312,34.953125 L28.1992188,34.4179688 C28.1940104,34.0507794 28.1269538,33.8059902 27.9980469,33.6835938 C27.86914,33.5611973 27.6276059,33.5 27.2734375,33.5 L26.03125,33.5 L26.03125,35.7578125 L24.8554688,35.7578125 L24.8554688,30 L27.6796875,30 C28.0833354,30.0078125 28.3938791,30.0572912 28.6113281,30.1484375 Z M34.8632812,31.0195312 L31.8164062,31.0195312 L31.8164062,32.2421875 L34.6132812,32.2421875 L34.6132812,33.2421875 L31.8164062,33.2421875 L31.8164062,34.7226562 L35.0039062,34.7226562 L35.0039062,35.7578125 L30.640625,35.7578125 L30.640625,30 L34.8632812,30 L34.8632812,31.0195312 Z M40.1992188,31.0195312 L37.1523438,31.0195312 L37.1523438,32.2421875 L39.9492188,32.2421875 L39.9492188,33.2421875 L37.1523438,33.2421875 L37.1523438,34.7226562 L40.3398438,34.7226562 L40.3398438,35.7578125 L35.9765625,35.7578125 L35.9765625,30 L40.1992188,30 L40.1992188,31.0195312 Z M21.6210938,40 L22.3828125,43.296875 L22.546875,44.2148438 L22.7148438,43.3164062 L23.3632812,40 L24.6328125,40 L25.3164062,43.296875 L25.4921875,44.2148438 L25.6679688,43.3320312 L26.4375,40 L27.6601562,40 L26.0390625,45.7578125 L24.890625,45.7578125 L24.1953125,42.390625 L23.9921875,41.2773438 L23.7890625,42.390625 L23.09375,45.7578125 L21.9765625,45.7578125 L20.34375,40 L21.6210938,40 Z M29.4882812,45.7578125 L28.2929688,45.7578125 L28.2929688,40 L29.4882812,40 L29.4882812,45.7578125 Z M30.1835938,43 L32.4257812,43 L32.4257812,44.0546875 L30.1835938,44.0546875 L30.1835938,43 Z M33.2734375,40.0078125 L37.3554688,40.0078125 L37.3554688,41.0195312 L34.46875,41.0195312 L34.46875,42.34375 L36.9960938,42.34375 L36.9960938,43.34375 L34.46875,43.34375 L34.46875,45.7578125 L33.2734375,45.7578125 L33.2734375,40.0078125 Z M39.2617188,45.7578125 L38.0664062,45.7578125 L38.0664062,40 L39.2617188,40 L39.2617188,45.7578125 Z" id="FREE-WI-FI" fill="#FFFFFF"></path>
                    <g id="Group-9" transform="translate(20.000000, 5.000000)">
                        <rect id="Rectangle-3" x="0" y="0" width="20" height="20"></rect>
                        <g id="Group-8" transform="translate(0.000000, 3.000000)" fill-rule="nonzero" fill="#FFFFFF">
                            <path d="M3.24693878,6.96632653 C2.83061224,7.38265306 2.83061224,8.06020408 3.24693878,8.48061224 C3.66326531,8.89693878 4.34081633,8.89693878 4.76122449,8.48061224 C7.64285714,5.59897959 12.3326531,5.59897959 15.2142857,8.48061224 C15.422449,8.68877551 15.6959184,8.79489796 15.9693878,8.79489796 C16.2428571,8.79489796 16.5163265,8.68877551 16.7244898,8.48061224 C17.1408163,8.06428571 17.1408163,7.38673469 16.7244898,6.96632653 C13.0102041,3.24795918 6.96122449,3.24795918 3.24693878,6.96632653 Z" id="Shape"></path>
                            <path d="M6.13673469,9.85612245 C5.72040816,10.272449 5.72040816,10.95 6.13673469,11.3704082 C6.55306122,11.7867347 7.23061224,11.7867347 7.65102041,11.3704082 C8.93673469,10.0806122 11.0346939,10.0806122 12.3204082,11.3704082 C12.5285714,11.5785714 12.8020408,11.6846939 13.0755102,11.6846939 C13.3489796,11.6846939 13.622449,11.5785714 13.8306122,11.3704082 C14.2469388,10.9540816 14.2469388,10.2765306 13.8306122,9.86020408 C11.7122449,7.73367347 8.25918367,7.73367347 6.13673469,9.85612245 Z" id="Shape"></path>
                            <circle id="Oval" cx="9.98571429" cy="13.7010204" r="1.4244898"></circle>
                            <path d="M19.6591837,4.02755102 C14.3244898,-1.30306122 5.64693878,-1.30306122 0.312244898,4.02755102 C-0.104081633,4.44387755 -0.104081633,5.12142857 0.312244898,5.54183673 C0.728571429,5.95816327 1.40612245,5.95816327 1.82653061,5.54183673 C6.3244898,1.03979592 13.6469388,1.03979592 18.1489796,5.54183673 C18.3571429,5.75 18.6306122,5.85612245 18.9040816,5.85612245 C19.177551,5.85612245 19.4510204,5.75 19.6591837,5.54183673 C20.0755102,5.1255102 20.0755102,4.44795918 19.6591837,4.02755102 Z" id="Shape"></path>
                        </g>
                    </g>
                </g>
            </g>
        </g>
    </g>
</svg>