<?xml version="1.0" encoding="UTF-8" standalone="no"?>
<svg width="60px" height="60px" viewBox="0 0 60 60" version="1.1" xmlns="http://www.w3.org/2000/svg" xmlns:xlink="http://www.w3.org/1999/xlink">
    <!-- Generator: Sketch 44.1 (41455) - http://www.bohemiancoding.com/sketch -->
    <title>graphic-breakfast</title>
    <desc>Created with Sketch.</desc>
    <defs></defs>
    <g id="Pages" stroke="none" stroke-width="1" fill="none" fill-rule="evenodd">
        <g id="Sabre---Details-Styles" transform="translate(-918.000000, -281.000000)">
            <g id="graphic-breakfast" transform="translate(918.000000, 281.000000)">
                <g>
                    <circle id="Oval-3" fill="#00BEFF" cx="30" cy="30" r="30"></circle>
                    <path d="M7.33007812,31.1679688 L7.33007812,32.4375 L8.74414062,32.4375 C8.99674605,32.4375 9.20182213,32.3899744 9.359375,32.2949219 C9.51692787,32.1998693 9.59570312,32.0312512 9.59570312,31.7890625 C9.59570312,31.520832 9.4915375,31.3437504 9.28320312,31.2578125 C9.10351473,31.1979164 8.87435035,31.1679688 8.59570312,31.1679688 L7.33007812,31.1679688 Z M7.33007812,33.390625 L7.33007812,34.9257812 L8.74414062,34.9257812 C8.99674605,34.9257812 9.19335867,34.8919274 9.33398437,34.8242188 C9.58919398,34.6992181 9.71679687,34.4596372 9.71679687,34.1054688 C9.71679687,33.8059881 9.5931002,33.600261 9.34570312,33.4882812 C9.2076816,33.4257809 9.01367312,33.3932292 8.76367187,33.390625 L7.33007812,33.390625 Z M10.4785156,30.78125 C10.6555998,31.0260429 10.7441406,31.3190087 10.7441406,31.6601562 C10.7441406,32.0117205 10.6555998,32.2942698 10.4785156,32.5078125 C10.3795568,32.6276048 10.2337249,32.7369787 10.0410156,32.8359375 C10.3352879,32.9427089 10.5572909,33.111978 10.7070312,33.34375 C10.8567716,33.575522 10.9316406,33.8567692 10.9316406,34.1875 C10.9316406,34.5286475 10.845704,34.8346341 10.6738281,35.1054688 C10.5644526,35.2851571 10.4277352,35.4361973 10.2636719,35.5585938 C10.0787751,35.6992195 9.86067834,35.7955727 9.609375,35.8476562 C9.35807166,35.8997398 9.08528793,35.9257812 8.79101562,35.9257812 L6.18164062,35.9257812 L6.18164062,30.1679688 L8.97851562,30.1679688 C9.68424832,30.1783855 10.1842433,30.3828105 10.4785156,30.78125 Z M13.1425781,31.1679688 L13.1425781,32.7148438 L14.5058594,32.7148438 C14.7766941,32.7148438 14.979817,32.6835941 15.1152344,32.6210938 C15.3548189,32.5117182 15.4746094,32.2955745 15.4746094,31.9726562 C15.4746094,31.6236962 15.3587251,31.3893235 15.1269531,31.2695312 C14.9967441,31.2018226 14.8014336,31.1679688 14.5410156,31.1679688 L13.1425781,31.1679688 Z M15.7226562,30.3164062 C15.9401053,30.4075525 16.1243482,30.5416658 16.2753906,30.71875 C16.4003912,30.8645841 16.4993486,31.0260408 16.5722656,31.203125 C16.6451827,31.3802092 16.6816406,31.5820301 16.6816406,31.8085938 C16.6816406,32.0820326 16.6126309,32.3509101 16.4746094,32.6152344 C16.3365879,32.8795586 16.1087255,33.0664057 15.7910156,33.1757812 C16.056642,33.2825526 16.2447911,33.4342438 16.3554687,33.6308594 C16.4661464,33.8274749 16.5214844,34.1276021 16.5214844,34.53125 L16.5214844,34.9179688 C16.5214844,35.1809909 16.5319009,35.3593745 16.5527344,35.453125 C16.5839845,35.6015632 16.6569005,35.7109371 16.7714844,35.78125 L16.7714844,35.9257812 L15.4472656,35.9257812 C15.4108071,35.7981764 15.3847657,35.6953129 15.3691406,35.6171875 C15.3378905,35.4557284 15.3209636,35.2903654 15.3183594,35.1210938 L15.3105469,34.5859375 C15.3053385,34.2187482 15.2382819,33.9739589 15.109375,33.8515625 C14.9804681,33.7291661 14.7389341,33.6679688 14.3847656,33.6679688 L13.1425781,33.6679688 L13.1425781,35.9257812 L11.9667969,35.9257812 L11.9667969,30.1679688 L14.7910156,30.1679688 C15.1946635,30.1757813 15.5052072,30.22526 15.7226562,30.3164062 Z M21.9746094,31.1875 L18.9277344,31.1875 L18.9277344,32.4101562 L21.7246094,32.4101562 L21.7246094,33.4101562 L18.9277344,33.4101562 L18.9277344,34.890625 L22.1152344,34.890625 L22.1152344,35.9257812 L17.7519531,35.9257812 L17.7519531,30.1679688 L21.9746094,30.1679688 L21.9746094,31.1875 Z M24.6269531,33.75 L26.0878906,33.75 L25.3691406,31.484375 L24.6269531,33.75 Z M24.7011719,30.1679688 L26.0605469,30.1679688 L28.0996094,35.9257812 L26.7949219,35.9257812 L26.4238281,34.7421875 L24.3027344,34.7421875 L23.9042969,35.9257812 L22.6464844,35.9257812 L24.7011719,30.1679688 Z M28.8496094,30.1679688 L30.0332031,30.1679688 L30.0332031,32.5390625 L32.2558594,30.1679688 L33.8105469,30.1679688 L31.4511719,32.5390625 L33.9316406,35.9257812 L32.3847656,35.9257812 L30.6074219,33.4101562 L30.0332031,34 L30.0332031,35.9257812 L28.8496094,35.9257812 L28.8496094,30.1679688 Z M34.6074219,30.1757812 L38.6894531,30.1757812 L38.6894531,31.1875 L35.8027344,31.1875 L35.8027344,32.5117188 L38.3300781,32.5117188 L38.3300781,33.5117188 L35.8027344,33.5117188 L35.8027344,35.9257812 L34.6074219,35.9257812 L34.6074219,30.1757812 Z M40.6308594,33.75 L42.0917969,33.75 L41.3730469,31.484375 L40.6308594,33.75 Z M40.7050781,30.1679688 L42.0644531,30.1679688 L44.1035156,35.9257812 L42.7988281,35.9257812 L42.4277344,34.7421875 L40.3066406,34.7421875 L39.9082031,35.9257812 L38.6503906,35.9257812 L40.7050781,30.1679688 Z M45.7050781,34.1484375 C45.7415366,34.4114596 45.8131505,34.6080723 45.9199219,34.7382812 C46.1152354,34.9752616 46.4498674,35.09375 46.9238281,35.09375 C47.2076837,35.09375 47.4381502,35.0625003 47.6152344,35 C47.9511736,34.8802077 48.1191406,34.6575537 48.1191406,34.3320312 C48.1191406,34.1419261 48.0358081,33.9947922 47.8691406,33.890625 C47.7024731,33.789062 47.440757,33.6992191 47.0839844,33.6210938 L46.4746094,33.484375 C45.875648,33.3489577 45.4615897,33.2018237 45.2324219,33.0429688 C44.8443991,32.7773424 44.6503906,32.361982 44.6503906,31.796875 C44.6503906,31.2812474 44.8378888,30.8528663 45.2128906,30.5117188 C45.5878925,30.1705712 46.1386682,30 46.8652344,30 C47.4720082,30 47.9895812,30.1608057 48.4179688,30.4824219 C48.8463563,30.8040381 49.0709634,31.2708303 49.0917969,31.8828125 L47.9355469,31.8828125 C47.9147134,31.5364566 47.7636733,31.2903653 47.4824219,31.1445312 C47.2949209,31.0481766 47.0618504,31 46.7832031,31 C46.4733057,31 46.2259124,31.0624994 46.0410156,31.1875 C45.8561189,31.3125006 45.7636719,31.486978 45.7636719,31.7109375 C45.7636719,31.9166677 45.8548168,32.070312 46.0371094,32.171875 C46.1542975,32.2395837 46.404295,32.31901 46.7871094,32.4101562 L47.7792969,32.6484375 C48.2141949,32.7526047 48.5423166,32.8919262 48.7636719,33.0664062 C49.1074236,33.3372409 49.2792969,33.7291641 49.2792969,34.2421875 C49.2792969,34.7682318 49.078127,35.2050764 48.6757812,35.5527344 C48.2734355,35.9003924 47.7050818,36.0742188 46.9707031,36.0742188 C46.2206994,36.0742188 45.6308615,35.9029965 45.2011719,35.5605469 C44.7714822,35.2180972 44.5566406,34.7473988 44.5566406,34.1484375 L45.7050781,34.1484375 Z M54.3535156,30.1679688 L54.3535156,31.1875 L52.6308594,31.1875 L52.6308594,35.9257812 L51.4199219,35.9257812 L51.4199219,31.1875 L49.6894531,31.1875 L49.6894531,30.1679688 L54.3535156,30.1679688 Z M11.0449219,45.9257812 L9.84960937,45.9257812 L9.84960937,40.1679688 L11.0449219,40.1679688 L11.0449219,45.9257812 Z M12.1464844,40.1679688 L13.4082031,40.1679688 L15.7011719,44.1875 L15.7011719,40.1679688 L16.8222656,40.1679688 L16.8222656,45.9257812 L15.6191406,45.9257812 L13.2675781,41.8359375 L13.2675781,45.9257812 L12.1464844,45.9257812 L12.1464844,40.1679688 Z M18.5019531,40.7695312 C18.9707055,40.2955705 19.5670537,40.0585938 20.2910156,40.0585938 C21.2597705,40.0585938 21.9680967,40.3762989 22.4160156,41.0117188 C22.6634127,41.3684914 22.7962239,41.7265607 22.8144531,42.0859375 L21.6113281,42.0859375 C21.5332027,41.8098945 21.4329433,41.6015632 21.3105469,41.4609375 C21.0917958,41.2109363 20.7675803,41.0859375 20.3378906,41.0859375 C19.9003884,41.0859375 19.5553398,41.262368 19.3027344,41.6152344 C19.0501289,41.9681007 18.9238281,42.4674447 18.9238281,43.1132812 C18.9238281,43.7591178 19.0572903,44.2428369 19.3242187,44.5644531 C19.5911472,44.8860693 19.9303365,45.046875 20.3417969,45.046875 C20.763674,45.046875 21.0852854,44.9088555 21.3066406,44.6328125 C21.4290371,44.4843743 21.5305986,44.2617202 21.6113281,43.9648438 L22.8027344,43.9648438 C22.6985672,44.5924511 22.4322938,45.1028626 22.0039062,45.4960938 C21.5755187,45.8893249 21.0266961,46.0859375 20.3574219,46.0859375 C19.5292927,46.0859375 18.8782576,45.8203152 18.4042969,45.2890625 C17.9303362,44.7552057 17.6933594,44.0234421 17.6933594,43.09375 C17.6933594,42.0885366 17.9628879,41.3138048 18.5019531,40.7695312 Z M23.7207031,40.1679688 L24.9238281,40.1679688 L24.9238281,44.890625 L27.7753906,44.890625 L27.7753906,45.9257812 L23.7207031,45.9257812 L23.7207031,40.1679688 Z M28.6074219,40.1679688 L29.8300781,40.1679688 L29.8300781,43.7070312 C29.8300781,44.1028666 29.8769527,44.3919262 29.9707031,44.5742188 C30.1165372,44.897137 30.4342423,45.0585938 30.9238281,45.0585938 C31.4108097,45.0585938 31.7272128,44.897137 31.8730469,44.5742188 C31.9667973,44.3919262 32.0136719,44.1028666 32.0136719,43.7070312 L32.0136719,40.1679688 L33.2363281,40.1679688 L33.2363281,43.7070312 C33.2363281,44.3190135 33.141277,44.7955712 32.9511719,45.1367188 C32.5970034,45.7617219 31.9212289,46.0742188 30.9238281,46.0742188 C29.9264273,46.0742188 29.2493507,45.7617219 28.8925781,45.1367188 C28.702473,44.7955712 28.6074219,44.3190135 28.6074219,43.7070312 L28.6074219,40.1679688 Z M35.5527344,41.1679688 L35.5527344,44.9257812 L36.6621094,44.9257812 C37.2298205,44.9257812 37.6256499,44.6458361 37.8496094,44.0859375 C37.9720058,43.7786443 38.0332031,43.4127625 38.0332031,42.9882812 C38.0332031,42.4023408 37.9414072,41.9524755 37.7578125,41.6386719 C37.5742178,41.3248682 37.2089871,41.1679688 36.6621094,41.1679688 L35.5527344,41.1679688 Z M37.7558594,40.2929688 C38.1595072,40.4257819 38.4863269,40.6692691 38.7363281,41.0234375 C38.93685,41.3098973 39.0735673,41.61979 39.1464844,41.953125 C39.2194014,42.28646 39.2558594,42.6041652 39.2558594,42.90625 C39.2558594,43.6718788 39.1022151,44.3203098 38.7949219,44.8515625 C38.3782531,45.5677119 37.7350304,45.9257812 36.8652344,45.9257812 L34.3847656,45.9257812 L34.3847656,40.1679688 L36.8652344,40.1679688 C37.222007,40.1731771 37.518879,40.2148434 37.7558594,40.2929688 Z M44.4199219,41.1875 L41.3730469,41.1875 L41.3730469,42.4101562 L44.1699219,42.4101562 L44.1699219,43.4101562 L41.3730469,43.4101562 L41.3730469,44.890625 L44.5605469,44.890625 L44.5605469,45.9257812 L40.1972656,45.9257812 L40.1972656,40.1679688 L44.4199219,40.1679688 L44.4199219,41.1875 Z M46.6660156,41.1679688 L46.6660156,44.9257812 L47.7753906,44.9257812 C48.3431018,44.9257812 48.7389312,44.6458361 48.9628906,44.0859375 C49.0852871,43.7786443 49.1464844,43.4127625 49.1464844,42.9882812 C49.1464844,42.4023408 49.0546884,41.9524755 48.8710938,41.6386719 C48.6874991,41.3248682 48.3222684,41.1679688 47.7753906,41.1679688 L46.6660156,41.1679688 Z M48.8691406,40.2929688 C49.2727885,40.4257819 49.5996081,40.6692691 49.8496094,41.0234375 C50.0501312,41.3098973 50.1868486,41.61979 50.2597656,41.953125 C50.3326827,42.28646 50.3691406,42.6041652 50.3691406,42.90625 C50.3691406,43.6718788 50.2154963,44.3203098 49.9082031,44.8515625 C49.4915344,45.5677119 48.8483116,45.9257812 47.9785156,45.9257812 L45.4980469,45.9257812 L45.4980469,40.1679688 L47.9785156,40.1679688 C48.3352882,40.1731771 48.6321603,40.2148434 48.8691406,40.2929688 Z" id="BREAKFAST-INCLUDED" fill="#FFFFFF"></path>
                    <path d="M36.5356906,15.8008451 C38.7773481,15.744 39.8187845,14.7147606 39.8187845,13.4499718 C39.8187845,12.3532394 39.0348619,11.4342535 37.3658011,11.1712113 C37.3740884,10.759662 37.3744199,10.3647324 37.3744199,10 L27,10 C27,11.7780845 27.0016575,14.2518873 27.9637569,16.0504789 C29.8879558,16.1461972 31.599116,16.6269296 32.8866298,17.367493 C33.2858011,17.5971831 33.6453591,17.8508732 33.9565746,18.1263099 C34.0560773,18.2148732 34.15,18.3059155 34.2398895,18.3989859 C36.0838122,18.3160563 37.3746409,18.1249577 37.3746409,17.9023662 C37.3746409,17.7230423 36.5309392,17.5643944 35.2371823,17.4659718 C35.8104972,17.0254648 36.2291713,16.4507042 36.5356906,15.8008451 Z M38.4844199,13.4747042 C38.4724862,14.1570704 38.1417127,14.6161127 36.921547,14.7646197 C37.1567403,13.9421972 37.270221,13.0595493 37.3245856,12.2067606 C38.2237017,12.4203944 38.4950829,12.8791549 38.4844199,13.4747042 Z M28.2525414,10.6928451 L29.8743094,10.6928451 C29.1469061,13.1177465 30.3738122,16.3414085 30.3738122,16.3414085 C27.7222652,14.2690704 28.2525414,10.6928451 28.2525414,10.6928451 Z" id="Shape" fill="#FFFFFF" fill-rule="nonzero"></path>
                    <path d="M33.7110891,6.84669976 C32.8352327,7.14540399 32.1100394,7.64489695 32.0021941,8.64089695 C31.9587686,9.04247441 32.5738515,9.03791103 32.6169454,8.64089695 C32.8229675,6.73526314 36.9483819,7.68861526 36.0884924,5.21481244 C35.9570559,4.83655892 35.3632438,4.99931948 35.495951,5.381573 C35.87352,6.46613638 34.4406471,6.59808004 33.7110891,6.84669976 Z" id="Shape" fill="#FFFFFF" fill-rule="nonzero"></path>
                    <path d="M35.8043506,7.68029197 C35.0001517,7.87364408 34.2650136,8.22491169 34.0141849,9.0874469 C33.9014225,9.47584126 34.4945716,9.64074267 34.6067263,9.25409479 C34.8837429,8.30175676 36.1105937,8.28586943 36.8938534,8.0538131 C37.7351794,7.80485535 38.2162291,7.2102638 38.1007595,6.29820746 C38.0510357,5.90322155 37.4359529,5.89798211 37.4863948,6.29820746 C37.6256766,7.40119338 36.6303727,7.48153141 35.8043506,7.68029197 Z" id="Shape" fill="#FFFFFF" fill-rule="nonzero"></path>
                    <path d="M27.3885635,25.2223099 C31.4628729,25.2223099 34.7774586,23.3782535 34.7774586,21.1112676 C34.7774586,20.2138028 34.2569613,19.3836056 33.3770718,18.7069859 C33.3273481,18.6687324 33.2769613,18.6315493 33.2251381,18.5943099 C32.7062983,18.2222535 32.0753039,17.9015211 31.3607182,17.6471549 C30.5292818,17.3507606 29.5854696,17.1443944 28.5727624,17.0530704 C28.1872376,17.0185915 27.7918232,17 27.388895,17 C23.3145856,16.9999437 20,18.844 20,21.1116056 C19.9996685,23.3781972 23.3142541,25.2223099 27.3885635,25.2223099 Z M24.3359116,19.3734648 C24.6170718,19.3734648 24.8454696,19.6061972 24.8454696,19.8930704 C24.8454696,20.0625915 24.9388398,20.2374648 25.1032597,20.4009014 C25.3450829,19.8863099 26.2623757,19.5027042 27.3603867,19.5027042 C28.4858564,19.5027042 29.4239227,19.9056338 29.6362431,20.439831 C29.8260221,20.2655775 29.9316575,20.076169 29.9316575,19.8931268 C29.9316575,19.6062535 30.1601105,19.3735211 30.4412707,19.3735211 C30.7224309,19.3735211 30.950663,19.6062535 30.950663,19.8931268 C30.950663,21.1718873 29.3861326,22.1736338 27.3886188,22.1736338 C25.391105,22.1736338 23.8263536,21.1719437 23.8263536,19.8931268 C23.8262983,19.6061972 24.0545856,19.3734648 24.3359116,19.3734648 Z" id="Shape" fill="#FFFFFF" fill-rule="nonzero"></path>
                </g>
            </g>
        </g>
    </g>
</svg>