<?xml version="1.0" encoding="UTF-8" standalone="no"?>
<svg width="60px" height="60px" viewBox="0 0 60 60" version="1.1" xmlns="http://www.w3.org/2000/svg" xmlns:xlink="http://www.w3.org/1999/xlink">
    <!-- Generator: Sketch 44.1 (41455) - http://www.bohemiancoding.com/sketch -->
    <title>graphic-pool</title>
    <desc>Created with Sketch.</desc>
    <defs></defs>
    <g id="Pages" stroke="none" stroke-width="1" fill="none" fill-rule="evenodd">
        <g id="Sabre---Details-Styles" transform="translate(-1020.000000, -281.000000)">
            <g id="graphic-pool" transform="translate(1020.000000, 281.000000)">
                <circle id="Oval-3" fill="#00BEFF" cx="30" cy="30" r="30"></circle>
                <path d="M22.28125,31.3671875 C22.1236971,31.2395827 21.9029962,31.1757812 21.6191406,31.1757812 L20.4980469,31.1757812 L20.4980469,32.8710938 L21.6191406,32.8710938 C21.9029962,32.8710938 22.1236971,32.802084 22.28125,32.6640625 C22.4388029,32.526041 22.5175781,32.3072932 22.5175781,32.0078125 C22.5175781,31.7083318 22.4388029,31.4947923 22.28125,31.3671875 Z M23.1933594,33.4414062 C22.8496077,33.7226577 22.3587271,33.8632812 21.7207031,33.8632812 L20.4980469,33.8632812 L20.4980469,35.9335938 L19.3027344,35.9335938 L19.3027344,30.1757812 L21.8105469,30.1757812 C22.3886748,30.1757812 22.8496077,30.3242173 23.1933594,30.6210938 C23.5371111,30.9179702 23.7089844,31.3776011 23.7089844,32 C23.7089844,32.6796909 23.5371111,33.1601548 23.1933594,33.4414062 Z M28.2929687,34.546875 C28.5729181,34.1953107 28.7128906,33.6953157 28.7128906,33.046875 C28.7128906,32.4010384 28.5729181,31.9016945 28.2929687,31.5488281 C28.0130194,31.1959618 27.634768,31.0195312 27.1582031,31.0195312 C26.6816382,31.0195312 26.3014337,31.1953107 26.0175781,31.546875 C25.7337225,31.8984393 25.5917969,32.3984343 25.5917969,33.046875 C25.5917969,33.6953157 25.7337225,34.1953107 26.0175781,34.546875 C26.3014337,34.8984393 26.6816382,35.0742188 27.1582031,35.0742188 C27.634768,35.0742188 28.0130194,34.8984393 28.2929687,34.546875 Z M29.0449219,35.421875 C28.6100239,35.8697939 27.9811239,36.09375 27.1582031,36.09375 C26.3352823,36.09375 25.7063824,35.8697939 25.2714844,35.421875 C24.6881481,34.8723931 24.3964844,34.0807343 24.3964844,33.046875 C24.3964844,31.9921822 24.6881481,31.2005235 25.2714844,30.671875 C25.7063824,30.2239561 26.3352823,30 27.1582031,30 C27.9811239,30 28.6100239,30.2239561 29.0449219,30.671875 C29.6256539,31.2005235 29.9160156,31.9921822 29.9160156,33.046875 C29.9160156,34.0807343 29.6256539,34.8723931 29.0449219,35.421875 Z M34.515625,34.546875 C34.7955743,34.1953107 34.9355469,33.6953157 34.9355469,33.046875 C34.9355469,32.4010384 34.7955743,31.9016945 34.515625,31.5488281 C34.2356757,31.1959618 33.8574243,31.0195312 33.3808594,31.0195312 C32.9042945,31.0195312 32.52409,31.1953107 32.2402344,31.546875 C31.9563788,31.8984393 31.8144531,32.3984343 31.8144531,33.046875 C31.8144531,33.6953157 31.9563788,34.1953107 32.2402344,34.546875 C32.52409,34.8984393 32.9042945,35.0742188 33.3808594,35.0742188 C33.8574243,35.0742188 34.2356757,34.8984393 34.515625,34.546875 Z M35.2675781,35.421875 C34.8326801,35.8697939 34.2037802,36.09375 33.3808594,36.09375 C32.5579386,36.09375 31.9290386,35.8697939 31.4941406,35.421875 C30.9108044,34.8723931 30.6191406,34.0807343 30.6191406,33.046875 C30.6191406,31.9921822 30.9108044,31.2005235 31.4941406,30.671875 C31.9290386,30.2239561 32.5579386,30 33.3808594,30 C34.2037802,30 34.8326801,30.2239561 35.2675781,30.671875 C35.8483102,31.2005235 36.1386719,31.9921822 36.1386719,33.046875 C36.1386719,34.0807343 35.8483102,34.8723931 35.2675781,35.421875 Z M37.0566406,30.1757812 L38.2597656,30.1757812 L38.2597656,34.8984375 L41.1113281,34.8984375 L41.1113281,35.9335938 L37.0566406,35.9335938 L37.0566406,30.1757812 Z M9.88476562,43.7578125 L11.3457031,43.7578125 L10.6269531,41.4921875 L9.88476562,43.7578125 Z M9.95898437,40.1757812 L11.3183594,40.1757812 L13.3574219,45.9335938 L12.0527344,45.9335938 L11.6816406,44.75 L9.56054687,44.75 L9.16210937,45.9335938 L7.90429687,45.9335938 L9.95898437,40.1757812 Z M16.8691406,40.1757812 L18.1191406,40.1757812 L16.1542969,45.9335938 L15.0175781,45.9335938 L13.0722656,40.1757812 L14.3574219,40.1757812 L15.6074219,44.546875 L16.8691406,40.1757812 Z M19.8183594,43.7578125 L21.2792969,43.7578125 L20.5605469,41.4921875 L19.8183594,43.7578125 Z M19.8925781,40.1757812 L21.2519531,40.1757812 L23.2910156,45.9335938 L21.9863281,45.9335938 L21.6152344,44.75 L19.4941406,44.75 L19.0957031,45.9335938 L17.8378906,45.9335938 L19.8925781,40.1757812 Z M25.1230469,45.9335938 L23.9277344,45.9335938 L23.9277344,40.1757812 L25.1230469,40.1757812 L25.1230469,45.9335938 Z M26.2441406,40.1757812 L27.4472656,40.1757812 L27.4472656,44.8984375 L30.2988281,44.8984375 L30.2988281,45.9335938 L26.2441406,45.9335938 L26.2441406,40.1757812 Z M32.7050781,43.7578125 L34.1660156,43.7578125 L33.4472656,41.4921875 L32.7050781,43.7578125 Z M32.7792969,40.1757812 L34.1386719,40.1757812 L36.1777344,45.9335938 L34.8730469,45.9335938 L34.5019531,44.75 L32.3808594,44.75 L31.9824219,45.9335938 L30.7246094,45.9335938 L32.7792969,40.1757812 Z M38.0761719,41.1757812 L38.0761719,42.4453125 L39.4902344,42.4453125 C39.7428398,42.4453125 39.9479159,42.3977869 40.1054687,42.3027344 C40.2630216,42.2076818 40.3417969,42.0390637 40.3417969,41.796875 C40.3417969,41.5286445 40.2376312,41.3515629 40.0292969,41.265625 C39.8496085,41.2057289 39.6204441,41.1757812 39.3417969,41.1757812 L38.0761719,41.1757812 Z M38.0761719,43.3984375 L38.0761719,44.9335938 L39.4902344,44.9335938 C39.7428398,44.9335938 39.9394524,44.8997399 40.0800781,44.8320312 C40.3352877,44.7070306 40.4628906,44.4674497 40.4628906,44.1132812 C40.4628906,43.8138006 40.3391939,43.6080735 40.0917969,43.4960938 C39.9537754,43.4335934 39.7597669,43.4010417 39.5097656,43.3984375 L38.0761719,43.3984375 Z M41.2246094,40.7890625 C41.4016936,41.0338554 41.4902344,41.3268212 41.4902344,41.6679688 C41.4902344,42.019533 41.4016936,42.3020823 41.2246094,42.515625 C41.1256505,42.6354173 40.9798187,42.7447912 40.7871094,42.84375 C41.0813817,42.9505214 41.3033847,43.1197905 41.453125,43.3515625 C41.6028653,43.5833345 41.6777344,43.8645817 41.6777344,44.1953125 C41.6777344,44.53646 41.5917977,44.8424466 41.4199219,45.1132812 C41.3105463,45.2929696 41.1738289,45.4440098 41.0097656,45.5664062 C40.8248689,45.707032 40.6067721,45.8033852 40.3554687,45.8554688 C40.1041654,45.9075523 39.8313817,45.9335938 39.5371094,45.9335938 L36.9277344,45.9335938 L36.9277344,40.1757812 L39.7246094,40.1757812 C40.4303421,40.186198 40.9303371,40.390623 41.2246094,40.7890625 Z M42.6855469,40.1757812 L43.8886719,40.1757812 L43.8886719,44.8984375 L46.7402344,44.8984375 L46.7402344,45.9335938 L42.6855469,45.9335938 L42.6855469,40.1757812 Z M51.8300781,41.1953125 L48.7832031,41.1953125 L48.7832031,42.4179688 L51.5800781,42.4179688 L51.5800781,43.4179688 L48.7832031,43.4179688 L48.7832031,44.8984375 L51.9707031,44.8984375 L51.9707031,45.9335938 L47.6074219,45.9335938 L47.6074219,40.1757812 L51.8300781,40.1757812 L51.8300781,41.1953125 Z" id="POOL-AVAILABLE" fill="#FFFFFF"></path>
                <g id="Group-13" stroke-width="1" transform="translate(20.000000, 5.000000)">
                    <rect id="Rectangle-5" x="0" y="0" width="20" height="20"></rect>
                    <g id="swimming" transform="translate(0.000000, 3.000000)" fill-rule="nonzero" fill="#FFFFFF">
                        <path d="M17.406875,10.48125 C17.2025,10.715625 16.905,10.850625 16.591875,10.850625 C16.280625,10.850625 15.9825,10.71625 15.77875,10.48125 C15.133125,9.74125 14.189375,9.273125 13.12625,9.273125 C12.0725,9.273125 11.13625,9.73125 10.49125,10.45875 C10.28625,10.69 9.993125,10.821875 9.68375,10.821875 C9.375,10.821875 9.080625,10.690625 8.875,10.459375 C8.22875,9.731875 7.295,9.273125 6.240625,9.273125 C5.1875,9.273125 4.25125,9.73125 3.606875,10.459375 C3.400625,10.690625 3.1075,10.821875 2.7975,10.821875 L2.7975,10.821875 C2.49,10.821875 2.194375,10.690625 1.99,10.46 C1.480625,9.885 0.786875,9.48875 0,9.3425 L0,11.47625 C0.16875,11.56 0.324375,11.673125 0.455,11.82125 C1.049375,12.49 1.9025,12.87375 2.798125,12.87375 C3.693125,12.87375 4.5475,12.490625 5.14,11.82 C5.425,11.5 5.816875,11.32375 6.24125,11.32375 C6.666875,11.32375 7.058125,11.5 7.34125,11.820625 C7.935,12.49 8.78875,12.874375 9.684375,12.874375 C10.57875,12.874375 11.433125,12.49 12.025625,11.820625 C12.31,11.5 12.701875,11.32375 13.1275,11.32375 C13.70625,11.32375 14.069375,11.64125 14.234375,11.829375 C14.828125,12.510625 15.6875,12.901875 16.595625,12.901875 C17.500625,12.900625 18.360625,12.51 18.953125,11.829375 C19.070625,11.695 19.29375,11.49875 19.61875,11.395625 L19.61875,9.32125 C18.73875,9.4325 17.96125,9.846875 17.406875,10.48125 Z" id="Shape"></path>
                        <circle id="Oval" cx="15.23375" cy="5.94875" r="2.529375"></circle>
                        <path d="M9.38625,10.00625 C9.53625,10.17375 9.82875,10.175 9.979375,10.005625 C10.62625,9.2775 11.501875,8.80625 12.4475,8.650625 C12.5125,8.265 12.4925,7.85875 12.35375,7.464375 C12.280625,7.2575 11.47625,4.555625 11.47625,4.555625 C11.475,4.55 11.37875,3.993125 11.720625,3.4925 C12.059375,2.996875 12.76875,2.656875 13.76875,2.506875 C14.32875,2.423125 14.715,1.901875 14.631875,1.341875 C14.55,0.781875 14.0325,0.395 13.465625,0.47875 C11.864375,0.7175 10.70625,1.341875 10.0275,2.33375 C9.1825,3.568125 9.4425,4.864375 9.480625,5.0275 L9.698125,5.90875 C9.565625,5.931875 9.431875,5.95875 9.301875,6.005 L5.164375,7.465625 C4.236875,7.793125 3.640625,8.633125 3.575,9.55375 C4.321875,8.93875 5.2625,8.589375 6.2425,8.589375 C7.441875,8.588125 8.588125,9.105625 9.38625,10.00625 Z" id="Shape"></path>
                    </g>
                </g>
            </g>
        </g>
    </g>
</svg>