<?xml version="1.0" encoding="UTF-8" standalone="no"?>
<svg width="20px" height="19px" viewBox="0 0 20 19" version="1.1" xmlns="http://www.w3.org/2000/svg" xmlns:xlink="http://www.w3.org/1999/xlink">
    <!-- Generator: Sketch 44.1 (41455) - http://www.bohemiancoding.com/sketch -->
    <title>icon-heart-checked</title>
    <desc>Created with Sketch.</desc>
    <defs></defs>
    <g id="Pages" stroke="none" stroke-width="1" fill="none" fill-rule="evenodd">
        <g id="Sabre---Details-Styles" transform="translate(-1122.000000, -676.000000)" fill-rule="nonzero" fill="#933031">
            <g id="icon-hear-checked" transform="translate(1122.000000, 675.000000)">
                <path d="M9.94,4.2504 C10.7472,2.3372 12.5912,1.0004 14.736,1.0004 C17.6252,1.0004 19.706,3.472 19.9676,6.4176 C19.9676,6.4176 20.1088,7.1488 19.798,8.4652 C19.3748,10.258 18.38,11.8508 17.0388,13.0664 L9.94,19.4 L2.9608,13.066 C1.6196,11.8508 0.6248,10.2576 0.2016,8.4648 C-0.1092,7.1484 0.032,6.4172 0.032,6.4172 C0.2936,3.4716 2.3744,1 5.2636,1 C7.4088,1 9.1328,2.3372 9.94,4.2504 Z" id="Shape"></path>
            </g>
        </g>
    </g>
</svg>