<?xml version="1.0" encoding="UTF-8" standalone="no"?>
<svg width="19px" height="20px" viewBox="0 0 19 20" version="1.1" xmlns="http://www.w3.org/2000/svg" xmlns:xlink="http://www.w3.org/1999/xlink">
    <!-- Generator: Sketch 44.1 (41455) - http://www.bohemiancoding.com/sketch -->
    <title>icon-share</title>
    <desc>Created with Sketch.</desc>
    <defs></defs>
    <g id="Pages" stroke="none" stroke-width="1" fill="none" fill-rule="evenodd">
        <g id="Sabre---Details-Styles" transform="translate(-981.000000, -675.000000)" fill-rule="nonzero" fill="#4A67B6">
            <g id="icon-share" transform="translate(981.000000, 675.000000)">
                <path d="M15.1948052,13.220339 C14.2929091,13.220339 13.445039,13.5728814 12.8071948,14.2132203 C12.6302597,14.3908475 12.477974,14.5861017 12.3462857,14.7925424 L6.51148052,11.2369492 C6.66579221,10.8491525 6.75324675,10.4274576 6.75324675,9.98508475 C6.75324675,9.54271186 6.66579221,9.12101695 6.51181818,8.73322034 L12.347974,5.20474576 C12.9476623,6.14983051 13.9981299,6.77966102 15.1948052,6.77966102 C17.0566753,6.77966102 18.5714286,5.25898305 18.5714286,3.38983051 C18.5714286,1.52067797 17.0566753,0 15.1948052,0 C13.3329351,0 11.8181818,1.52067797 11.8181818,3.38983051 C11.8181818,3.81559322 11.9002338,4.22169492 12.0434026,4.59728814 L6.19981818,8.13050847 C5.59607792,7.20711864 4.55675325,6.59525424 3.37662338,6.59525424 C1.51475325,6.59525424 0,8.1159322 0,9.98508475 C0,11.8542373 1.51475325,13.3749153 3.37662338,13.3749153 C4.55675325,13.3749153 5.59574026,12.7630508 6.19948052,11.839661 L12.0423896,15.4 C11.8971948,15.7816949 11.8181818,16.1894915 11.8181818,16.6101695 C11.8181818,17.5155932 12.1693506,18.3671186 12.8071948,19.0071186 C13.445039,19.6474576 14.2929091,20 15.1948052,20 C16.0967013,20 16.9445714,19.6474576 17.5824156,19.0071186 C18.2202597,18.3671186 18.5714286,17.5155932 18.5714286,16.6101695 C18.5714286,15.7047458 18.2202597,14.8532203 17.5824156,14.2132203 C16.9445714,13.5728814 16.0967013,13.220339 15.1948052,13.220339 Z" id="Shape"></path>
            </g>
        </g>
    </g>
</svg>