<?xml version="1.0" encoding="UTF-8" standalone="no"?>
<svg width="20px" height="19px" viewBox="0 0 20 19" version="1.1" xmlns="http://www.w3.org/2000/svg" xmlns:xlink="http://www.w3.org/1999/xlink">
    <!-- Generator: Sketch 44.1 (41455) - http://www.bohemiancoding.com/sketch -->
    <title>icon-heart-unchecked</title>
    <desc>Created with Sketch.</desc>
    <defs></defs>
    <g id="Pages" stroke="none" stroke-width="1" fill="none" fill-rule="evenodd">
        <g id="Sabre---Details-Styles" transform="translate(-918.000000, -676.000000)" stroke="#933031" fill-rule="nonzero">
            <g id="icon-heart-unchecked" transform="translate(918.000000, 675.000000)">
                <path d="M9.94285247,18.7273751 L16.7030194,12.6959254 C18.0033551,11.517363 18.9213078,10.0027654 19.3113788,8.35030949 C19.490207,7.59287911 19.5267793,7.00115668 19.4860281,6.58912951 C19.4815547,6.54389987 19.4777833,6.51816889 19.4695602,6.46183113 C19.2183223,3.63290759 17.2416277,1.5004 14.736,1.5004 C12.8416332,1.5004 11.1498743,2.6690385 10.4006762,4.44476431 L9.94,5.5366444 L9.47932385,4.44476431 C8.71697882,2.63787815 7.12946568,1.5 5.2636,1.5 C2.7579723,1.5 0.781277678,3.63250759 0.522930286,6.51200218 C0.521816694,6.51776889 0.518045253,6.54349987 0.513571862,6.58872951 C0.47282074,7.00075668 0.509393038,7.59247911 0.688225871,8.34992937 C1.07834698,10.0025974 1.99644432,11.5175314 3.29682469,12.6957468 L9.94285247,18.7273751 Z" id="Shape"></path>
            </g>
        </g>
    </g>
</svg>