<?xml version="1.0" encoding="UTF-8" standalone="no"?>
<svg width="20px" height="20px" viewBox="0 0 20 20" version="1.1" xmlns="http://www.w3.org/2000/svg" xmlns:xlink="http://www.w3.org/1999/xlink">
    <!-- Generator: Sketch 44.1 (41455) - http://www.bohemiancoding.com/sketch -->
    <title>icon-telephone</title>
    <desc>Created with Sketch.</desc>
    <defs></defs>
    <g id="Pages" stroke="none" stroke-width="1" fill="none" fill-rule="evenodd">
        <g id="Sabre---Details-Styles" transform="translate(-612.000000, -193.000000)" fill="#4A67B6">
            <g id="icon-telephone" transform="translate(612.000000, 193.000000)">
                <g id="phone-receiver">
                    <path d="M19.9595855,15.7829758 C20.0018998,16.1077163 19.9031088,16.3900692 19.6636269,16.6300346 L16.8520207,19.4252249 C16.7251813,19.5664014 16.55962,19.6865052 16.3552677,19.7852249 C16.1509154,19.884083 15.9501209,19.9476125 15.7528843,19.9758131 C15.738791,19.9758131 15.6964076,19.9794464 15.6259067,19.9865052 C15.555544,19.9935294 15.4639378,19.997128 15.3511917,19.997128 C15.0833506,19.997128 14.6499482,19.9512457 14.0509845,19.8594464 C13.4520207,19.7676471 12.7192055,19.5417301 11.8525389,19.1817993 C10.9856649,18.8217993 10.0026943,18.2817301 8.90345423,17.5617993 C7.80421416,16.8419031 6.63443869,15.8535986 5.39423143,14.5970934 C4.40770294,13.6229758 3.59029361,12.6912111 2.94200345,11.8018339 C2.2937133,10.9123875 1.77226252,10.0900346 1.37765112,9.33474048 C0.983005181,8.57944637 0.687046632,7.89474048 0.489740933,7.28062284 C0.292435233,6.66650519 0.158549223,6.13709343 0.0880829016,5.69238754 C0.0176165803,5.24768166 -0.0105699482,4.8982699 0.00352331606,4.64415225 C0.0176165803,4.3900346 0.0246632124,4.24885813 0.0246632124,4.22062284 C0.0528497409,4.02297578 0.11626943,3.82179931 0.21492228,3.61709343 C0.31357513,3.41238754 0.433367876,3.24650519 0.574300518,3.11944637 L3.38590674,0.302975779 C3.58321244,0.10532872 3.80870466,0.00650519031 4.06238342,0.00650519031 C4.24559585,0.00650519031 4.40766839,0.0594463668 4.54860104,0.16532872 C4.68953368,0.271211073 4.80932642,0.401799308 4.90797927,0.557093426 L7.16994819,4.85591696 C7.29678756,5.08179931 7.33202073,5.32885813 7.27564767,5.59709343 C7.21927461,5.86532872 7.09948187,6.09121107 6.91626943,6.27474048 L5.88041451,7.31238754 C5.85222798,7.34062284 5.82756477,7.38650519 5.80642487,7.4500346 C5.78528497,7.51356401 5.77471503,7.56650519 5.77471503,7.60885813 C5.83108808,7.90532872 5.95792746,8.24415225 6.15523316,8.62532872 C6.32435233,8.96415225 6.58507772,9.37709343 6.93740933,9.86415225 C7.28974093,10.3512111 7.79005181,10.9123529 8.43834197,11.5476471 C9.07253886,12.197128 9.63626943,12.7017647 10.1295337,13.0618339 C10.6226943,13.4216955 11.0350604,13.6865052 11.3662522,13.855917 C11.6974439,14.0253287 11.9511226,14.1276817 12.1272539,14.162872 L12.3914335,14.2158478 C12.41962,14.2158478 12.4655268,14.2052249 12.5288774,14.184083 C12.5922971,14.162872 12.6381002,14.1382007 12.6663212,14.1099308 L13.8712608,12.8816955 C14.1250777,12.6558478 14.4208981,12.5429066 14.759171,12.5429066 C14.9988256,12.5429066 15.188981,12.5852249 15.3299136,12.6699654 L15.351019,12.6699654 L19.4309845,15.084083 C19.7270466,15.2677509 19.9031779,15.5006228 19.9595855,15.7829758 Z" id="Shape" fill-rule="nonzero"></path>
                </g>
            </g>
        </g>
    </g>
</svg>