<?xml version="1.0" encoding="UTF-8" standalone="no"?>
<svg width="15px" height="20px" viewBox="0 0 15 20" version="1.1" xmlns="http://www.w3.org/2000/svg" xmlns:xlink="http://www.w3.org/1999/xlink">
    <!-- Generator: Sketch 44.1 (41455) - http://www.bohemiancoding.com/sketch -->
    <title>icon-pin-map</title>
    <desc>Created with Sketch.</desc>
    <defs></defs>
    <g id="Pages" stroke="none" stroke-width="1" fill="none" fill-rule="evenodd">
        <g id="Sabre---Details-Styles" transform="translate(-164.000000, -193.000000)" fill-rule="nonzero" fill="#4A67B6">
            <g id="icon-pin-map" transform="translate(161.000000, 193.000000)">
                <path d="M15.2486497,2.0475 L15.2486497,2.0475 C12.4468076,-0.6825 7.90378133,-0.6825 5.10154448,2.0475 L5.10154448,2.0475 C2.57680764,4.5075 2.29259712,9.13942308 4.43522869,11.9228846 L10.1750971,19.9998077 L15.9149655,11.9228846 C18.0575971,9.13942308 17.7733866,4.5075 15.2486497,2.0475 Z M10.2449655,9.23057692 C8.93680764,9.23057692 7.87654448,8.1975 7.87654448,6.92288462 C7.87654448,5.64826923 8.93680764,4.61519231 10.2449655,4.61519231 C11.5531234,4.61519231 12.6133866,5.64826923 12.6133866,6.92288462 C12.6133866,8.1975 11.5531234,9.23057692 10.2449655,9.23057692 Z" id="Shape"></path>
            </g>
        </g>
    </g>
</svg>