<?xml version="1.0" encoding="UTF-8" standalone="no"?>
<svg width="209px" height="69px" viewBox="0 0 209 69" version="1.1" xmlns="http://www.w3.org/2000/svg" xmlns:xlink="http://www.w3.org/1999/xlink">
    <!-- Generator: Sketch 44.1 (41455) - http://www.bohemiancoding.com/sketch -->
    <title>logo-sherpa</title>
    <desc>Created with Sketch.</desc>
    <defs>
        <polygon id="path-1" points="42.8557509 17.8823529 0.000146620234 17.8823529 0.000146620234 0.834382169 42.8557509 0.834382169"></polygon>
    </defs>
    <g id="Pages" stroke="none" stroke-width="1" fill="none" fill-rule="evenodd">
        <g id="Sabre---Details-Styles" transform="translate(-104.000000, -16.000000)">
            <g id="logo-sherpa" transform="translate(102.000000, 15.000000)">
                <path d="M59.5032759,46.7724138 C59.5032759,45.8036733 59.8578988,44.8349474 60.5671552,43.8662069 C61.2764116,42.8974664 62.0980988,42.4131034 63.0322414,42.4131034 C63.5512095,42.4131034 64.1307152,42.6120382 64.7707759,43.0099138 C65.4108365,43.4077893 65.9989916,43.8489056 66.5352586,44.3332759 C67.0715257,44.8176461 67.8240181,45.2587624 68.7927586,45.6566379 C69.7614991,46.0545135 70.7821211,46.2534483 71.8546552,46.2534483 C73.2039723,46.2534483 74.3802823,45.9680201 75.3836207,45.3971552 C76.386959,44.8262902 76.8886207,43.9700057 76.8886207,42.8282759 C76.8886207,41.686546 76.3264137,40.6832227 75.2019828,39.8182759 C74.0775518,38.953329 72.7109563,38.1662392 71.1021552,37.4569828 C69.493354,36.7477263 67.8759277,35.9519872 66.2498276,35.0697414 C64.6237275,34.1874956 63.2484826,32.9333415 62.1240517,31.3072414 C60.9996208,29.6811413 60.4374138,27.7436894 60.4374138,25.4948276 C60.4374138,21.8966487 61.7348146,19.2067043 64.3296552,17.4249138 C66.9244957,15.6431233 70.0555564,14.7522414 73.722931,14.7522414 C74.6224758,14.7522414 75.5652537,14.8041374 76.5512931,14.907931 C77.5373325,15.0117247 78.6444479,15.2106594 79.8726724,15.5047414 C81.1008969,15.7988233 82.1042202,16.2745369 82.8826724,16.9318966 C83.6611246,17.5892562 84.0503448,18.3849953 84.0503448,19.3191379 C84.0503448,20.2186827 83.7649166,21.1528112 83.1940517,22.1215517 C82.6231868,23.0902922 81.836097,23.5746552 80.8327586,23.5746552 C80.4175841,23.5746552 79.5353516,23.2459803 78.1860345,22.5886207 C76.8367174,21.9312611 75.3490311,21.6025862 73.722931,21.6025862 C71.9930373,21.6025862 70.6956365,21.9053131 69.8306897,22.5107759 C68.9657428,23.1162387 68.5332759,23.8514325 68.5332759,24.7163793 C68.5332759,25.5121304 68.9397948,26.2386749 69.7528448,26.8960345 C70.5658949,27.5533941 71.5778675,28.1156011 72.7887931,28.5826724 C73.9997187,29.0497437 75.3230675,29.6551974 76.7588793,30.3990517 C78.1946911,31.142906 79.5180399,31.9559439 80.7289655,32.8381897 C81.9398911,33.7204354 82.9518638,34.9572909 83.7649138,36.5487931 C84.5779638,38.1402953 84.9844828,39.9566565 84.9844828,41.997931 C84.9844828,45.6307078 83.790874,48.4590416 81.4036207,50.4830172 C79.0163674,52.5069929 75.8853067,53.5189655 72.0103448,53.5189655 C68.654351,53.5189655 65.7308745,52.8270184 63.2398276,51.4431034 C60.7487806,50.0591885 59.5032759,48.5023075 59.5032759,46.7724138 Z M88.5653448,50.5089655 L88.5653448,16.6205172 C88.5653448,15.8939619 88.9372664,15.3058068 89.6811207,14.8560345 C90.424975,14.4062621 91.3850516,14.1813793 92.5613793,14.1813793 C93.6685113,14.1813793 94.6199386,14.4062621 95.4156897,14.8560345 C96.2114408,15.3058068 96.6093103,15.8939619 96.6093103,16.6205172 L96.6093103,31.93 C97.1282785,30.822868 97.9499656,29.8887394 99.0743966,29.1275862 C100.198827,28.366433 101.522176,27.9858621 103.044483,27.9858621 C105.431736,27.9858621 107.498928,29.0583801 109.246121,31.2034483 C110.993313,33.3485165 111.866897,35.9087208 111.866897,38.8841379 L111.866897,50.5089655 C111.866897,51.3047166 111.469027,51.9188197 110.673276,52.3512931 C109.877525,52.7837665 108.926097,53 107.818966,53 C106.781029,53 105.85555,52.7751172 105.0425,52.3253448 C104.22945,51.8755725 103.822931,51.2701187 103.822931,50.5089655 L103.822931,38.8841379 C103.822931,37.8807996 103.451009,36.9812683 102.707155,36.1855172 C101.963301,35.3897661 101.089718,34.9918966 100.086379,34.9918966 C99.1868346,34.9918966 98.3824461,35.3465194 97.6731897,36.0557759 C96.9639332,36.7650323 96.6093103,37.7078102 96.6093103,38.8841379 L96.6093103,50.5089655 C96.6093103,51.1317273 96.2027914,51.7025836 95.3897414,52.2215517 C94.5766913,52.7405198 93.6339134,53 92.5613793,53 C91.4196495,53 90.4682222,52.7491692 89.707069,52.2475 C88.9459157,51.7458308 88.5653448,51.1663251 88.5653448,50.5089655 Z M115.343966,42.5168966 L115.343966,38.7284483 C115.343966,35.787629 116.511626,33.262022 118.846983,31.1515517 C121.182339,29.0410814 123.993374,27.9858621 127.280172,27.9858621 C130.359383,27.9858621 132.988782,28.9113413 135.168448,30.7623276 C137.348114,32.6133139 138.437931,34.9745833 138.437931,37.8462069 C138.437931,38.9533389 138.299542,39.8528701 138.022759,40.5448276 C137.745976,41.2367851 137.330807,41.721148 136.777241,41.997931 C136.223675,42.274714 135.713364,42.4563501 135.246293,42.5428448 C134.779222,42.6293395 134.165119,42.6725862 133.403966,42.6725862 L123.387931,42.6725862 L123.387931,42.9839655 C123.387931,44.2640869 123.872294,45.2933582 124.841034,46.0718103 C125.809775,46.8502625 127.089877,47.2394828 128.681379,47.2394828 C129.892305,47.2394828 131.163758,46.9194572 132.495776,46.2793966 C133.827794,45.6393359 134.718676,45.3193103 135.168448,45.3193103 C136.033395,45.3193103 136.742641,45.7258293 137.296207,46.5388793 C137.849773,47.3519294 138.126552,48.1217205 138.126552,48.8482759 C138.126552,49.92081 137.201072,50.96738 135.350086,51.9880172 C133.4991,53.0086545 131.207025,53.5189655 128.473793,53.5189655 C124.598831,53.5189655 121.441823,52.5069929 119.002672,50.4830172 C116.563522,48.4590416 115.343966,45.8036946 115.343966,42.5168966 Z M123.387931,38.1575862 L129.823103,38.1575862 C130.549659,38.1575862 130.912931,37.7424179 130.912931,36.912069 C130.912931,35.9433285 130.541009,35.1821867 129.797155,34.6286207 C129.053301,34.0750547 128.162419,33.7982759 127.124483,33.7982759 C126.121144,33.7982759 125.247561,34.0750547 124.503707,34.6286207 C123.759853,35.1821867 123.387931,35.9433285 123.387931,36.912069 L123.387931,38.1575862 Z M142.018793,50.5089655 L142.018793,30.7363793 C142.018793,30.009824 142.390715,29.4216689 143.134569,28.9718966 C143.878423,28.5221242 144.821201,28.2972414 145.962931,28.2972414 C146.966269,28.2972414 147.813905,28.5221242 148.505862,28.9718966 C149.19782,29.4216689 149.543793,30.009824 149.543793,30.7363793 L149.543793,32.6565517 C150.097359,31.4110283 150.953644,30.3212116 152.112672,29.387069 C153.271701,28.4529264 154.473959,27.9858621 155.719483,27.9858621 L157.224483,27.9858621 C157.985636,27.9858621 158.651635,28.3318356 159.2225,29.0237931 C159.793365,29.7157506 160.078793,30.5287884 160.078793,31.462931 C160.078793,32.4316715 159.793365,33.262008 159.2225,33.9539655 C158.651635,34.645923 157.985636,34.9918966 157.224483,34.9918966 L155.719483,34.9918966 C154.231774,34.9918966 152.917075,35.7097917 151.775345,37.1456034 C150.633615,38.5814152 150.062759,40.4410231 150.062759,42.7244828 L150.062759,50.5089655 C150.062759,51.1317273 149.65624,51.7025836 148.84319,52.2215517 C148.03014,52.7405198 147.070063,53 145.962931,53 C144.855799,53 143.92167,52.7491692 143.160517,52.2475 C142.399364,51.7458308 142.018793,51.1663251 142.018793,50.5089655 Z M162.517931,61.7705172 L162.517931,30.7363793 C162.517931,30.009824 162.889853,29.4216689 163.633707,28.9718966 C164.377561,28.5221242 165.285742,28.2972414 166.358276,28.2972414 C167.43081,28.2972414 168.313043,28.5221242 169.005,28.9718966 C169.696957,29.4216689 170.042931,30.009824 170.042931,30.7363793 L170.042931,31.93 C170.700291,30.822868 171.651718,29.8887394 172.897241,29.1275862 C174.142765,28.366433 175.526659,27.9858621 177.048966,27.9858621 C179.643806,27.9858621 181.840738,29.0497307 183.639828,31.1775 C185.438917,33.3052693 186.338448,35.8741229 186.338448,38.8841379 L186.338448,42.5168966 C186.338448,45.423118 185.430268,47.9833223 183.613879,50.1975862 C181.797491,52.4118502 179.695702,53.5189655 177.308448,53.5189655 C175.855338,53.5189655 174.497391,53.1124466 173.234569,52.2993966 C171.971747,51.4863465 171.080865,50.5089712 170.561897,49.3672414 L170.561897,61.7705172 C170.561897,62.393279 170.155378,62.9641353 169.342328,63.4831034 C168.529278,64.0020716 167.569201,64.2615517 166.462069,64.2615517 C165.354937,64.2615517 164.420808,64.0107209 163.659655,63.5090517 C162.898502,63.0073825 162.517931,62.4278768 162.517931,61.7705172 Z M170.561897,43.1915517 C170.561897,43.7451177 170.951117,44.4370648 171.729569,45.2674138 C172.508021,46.0977628 173.416202,46.512931 174.454138,46.512931 C175.457476,46.512931 176.348358,46.1064121 177.12681,45.2933621 C177.905263,44.480312 178.294483,43.5548328 178.294483,42.5168966 L178.294483,38.8841379 C178.294483,37.8807996 177.905263,36.9812683 177.12681,36.1855172 C176.348358,35.3897661 175.422879,34.9918966 174.350345,34.9918966 C173.347006,34.9918966 172.464774,35.3465194 171.703621,36.0557759 C170.942467,36.7650323 170.561897,37.7078102 170.561897,38.8841379 L170.561897,43.1915517 Z M188.72569,46.6167241 C188.72569,43.7451006 189.77226,41.7211553 191.865431,40.5448276 C193.958602,39.3684999 196.959923,38.7803448 200.869483,38.7803448 L202.737759,38.7803448 L202.737759,38.2613793 C202.737759,37.2234431 202.426382,36.3239119 201.803621,35.5627586 C201.180859,34.8016054 200.194834,34.4210345 198.845517,34.4210345 C197.184819,34.4210345 195.818224,34.7064627 194.74569,35.2773276 C193.673156,35.8481925 193.015806,36.1336207 192.773621,36.1336207 C191.943272,36.1336207 191.285922,35.7271018 190.801552,34.9140517 C190.317181,34.1010017 190.075,33.1755224 190.075,32.1375862 C190.075,30.9958564 191.035077,30.0184811 192.955259,29.205431 C194.875441,28.392381 196.873438,27.9858621 198.94931,27.9858621 C202.928066,27.9858621 205.894789,28.954588 207.849569,30.892069 C209.804349,32.8295499 210.781724,35.2513648 210.781724,38.1575862 L210.781724,50.5089655 C210.781724,51.200923 210.409803,51.789078 209.665948,52.2734483 C208.922094,52.7578185 207.979316,53 206.837586,53 C205.834248,53 204.986613,52.7578185 204.294655,52.2734483 C203.602698,51.789078 203.256724,51.200923 203.256724,50.5089655 L203.256724,49.3672414 C200.869471,52.1350713 198.240072,53.5189655 195.368448,53.5189655 C193.465565,53.5189655 191.882736,52.9308105 190.619914,51.7544828 C189.357091,50.578155 188.72569,48.865586 188.72569,46.6167241 Z M196.821552,45.475 C196.821552,46.9281107 197.4962,47.6546552 198.845517,47.6546552 C199.710464,47.6546552 200.575398,47.1702922 201.440345,46.2015517 C202.305292,45.2328112 202.737759,44.1256959 202.737759,42.8801724 L202.737759,42.6725862 L202.530172,42.6725862 C201.388443,42.6725862 200.445665,42.7244822 199.70181,42.8282759 C198.957956,42.9320695 198.291957,43.200199 197.703793,43.6326724 C197.115629,44.0651458 196.821552,44.6792489 196.821552,45.475 Z" id="Sherpa" fill="#933031"></path>
                <path d="M62.5,58 L153.5,58 C154.880712,58 156,59.1192881 156,60.5 C156,61.8807119 154.880712,63 153.5,63 L62.5,63 C61.1192881,63 60,61.8807119 60,60.5 C60,59.1192881 61.1192881,58 62.5,58 Z" id="Rectangle-8" fill="#ECC359"></path>
                <g id="graphic-sherpa" transform="translate(2.000000, 1.000000)" stroke-width="1">
                    <g id="Group-4">
                        <path d="M14.1310392,44.8181818 L38.050779,44.8181818 L38.050779,44.8181818 C43.9895979,44.8181818 49.0458227,49.138695 49.9720561,55.0048404 L52.1818182,69 L0,69 L2.20976204,55.0048404 L2.20976204,55.0048404 C3.13599553,49.138695 8.19222025,44.8181818 14.1310392,44.8181818 Z" id="Rectangle-4" fill="#0F2D7F"></path>
                        <path d="M2.32741843,53.0120525 C10.1367468,58.7535683 18.1621636,61.7037618 26.3176943,61.7037618 C34.4732251,61.7037618 42.4986419,58.7535683 50.3079703,53.0120525 C52.7245965,51.2353187 53.2433318,47.8359287 51.4665979,45.4193025 C49.6898641,43.0026762 46.2904741,42.483941 43.8738479,44.2606748 C37.8343664,48.7009771 32.0109734,50.8416928 26.3176943,50.8416928 C20.6244153,50.8416928 14.8010223,48.7009771 8.76154077,44.2606748 C6.34491454,42.483941 2.94552456,43.0026762 1.16879074,45.4193025 C-0.607943085,47.8359287 -0.0892078003,51.2353187 2.32741843,53.0120525 Z" id="Path-7" fill="#ECC359" fill-rule="nonzero"></path>
                        <path d="M47.0909091,39.2712751 C47.0909091,41.4471297 46.2633398,43.5120024 44.8249071,44.9532388 C41.1651041,48.6212388 33.6476128,52.6176024 26.5839672,52.6176024 C19.5197839,52.6176024 12.1490934,48.6192024 8.57317654,44.9517115 C7.16862095,43.5120024 6.36363636,41.4725842 6.36363636,39.3267661 L6.36363636,22.2594933 C6.36363636,18.4509842 8.86086308,15.2355661 12.1942628,14.7519297 L25.7429546,12.7883661 C26.301658,12.7074206 26.8668141,12.7069115 27.4255175,12.7868388 L41.2484525,14.7621115 C44.5872296,15.2391297 47.0909091,18.4576024 47.0909091,22.2712024 L47.0909091,39.2712751 Z" id="Fill-1" fill="#FFF0D0"></path>
                        <g id="Group-3" transform="translate(12.727273, 36.181818)" fill-rule="nonzero" fill="#030E1F">
                            <path d="M1.06434904,1.93586075 L8.05586419,2.65062438 C8.55318497,2.70146698 8.99755919,2.33952491 9.04840179,1.84220413 C9.09924439,1.34488335 8.73730232,0.900509127 8.23998154,0.849666527 L1.24846638,0.13490289 C0.751145605,0.0840602901 0.306771386,0.446002368 0.255928785,0.943323147 C0.205086185,1.44064393 0.567028263,1.88501815 1.06434904,1.93586075 Z" id="Stroke-3"></path>
                            <path d="M25.4994852,0.134902205 L18.5074558,0.849665842 C18.0101347,0.900504741 17.6481893,1.34487627 17.6990282,1.84219743 C17.7498671,2.33951858 18.1942386,2.70146397 18.6915598,2.65062507 L25.6835892,1.93586143 C26.1809103,1.88502253 26.5428557,1.44065101 26.4920168,0.943329848 C26.4411779,0.44600869 25.9968064,0.0840633057 25.4994852,0.134902205 Z" id="Stroke-5"></path>
                            <path d="M16.0568625,6.75349091 C16.0568625,8.29960298 14.7867182,9.55704577 13.2158457,9.55704577 C11.6445195,9.55704577 10.3743147,8.29966227 10.3743147,6.75349091 C10.3743147,6.25357799 9.96905525,5.8483185 9.46914233,5.8483185 C8.96922941,5.8483185 8.56396992,6.25357799 8.56396992,6.75349091 C8.56396992,9.30362244 10.6487819,11.3673906 13.2158457,11.3673906 C15.7824939,11.3673906 17.8672073,9.3035243 17.8672073,6.75349091 C17.8672073,6.25357799 17.4619478,5.8483185 16.9620349,5.8483185 C16.462122,5.8483185 16.0568625,6.25357799 16.0568625,6.75349091 Z" id="Stroke-7"></path>
                        </g>
                        <g id="Group-2" transform="translate(1.272727, 4.090909)">
                            <path d="M2.75289624,47.5864582 C0.430618916,36.4500945 -8.29231956,0.767912727 25.2218035,0.767912727 L25.2218035,18.0378036 C25.2218035,18.0378036 9.95216162,20.0573673 7.53577961,27.30784 C5.9390854,32.0983855 7.22826814,45.7634036 7.45967309,49.1610764 C7.69107805,52.55824 3.6944573,52.1026036 2.75289624,47.5864582 Z M47.6902994,47.5864582 C46.7487383,52.1026036 42.7521175,52.55824 42.9840367,49.1610764 C43.2154417,45.7634036 44.5041102,32.0978764 42.907416,27.30784 C40.491034,20.0573673 25.2219063,18.0378036 25.2219063,18.0378036 L25.2219063,0.767912727 C58.7360294,0.767912727 50.0125767,36.4495855 47.6902994,47.5864582 Z" id="Combined-Shape" fill="#4A67B6"></path>
                            <g id="Group-14" transform="translate(2.545455, 47.518036)" fill="#00BEFF">
                                <path d="M3.24213774,10.9455055 L2.41885032,10.9455055 C1.67629752,10.9455055 1.06847383,10.34376 1.06847383,9.60863273 L1.06847383,1.65408727 C1.06847383,0.91896 1.67629752,0.317214545 2.41885032,0.317214545 L3.24213774,0.317214545 C3.98469054,0.317214545 4.592,0.91896 4.592,1.65408727 L4.592,9.60863273 C4.592,10.34376 3.98469054,10.9455055 3.24213774,10.9455055" id="Fill-12"></path>
                            </g>
                            <path d="M7.89296602,48.7538109 C7.89296602,50.0978109 6.76628099,51.1872655 5.37579431,51.1872655 C3.98582185,51.1872655 2.85913682,50.0978109 2.85913682,48.7538109 C2.85913682,47.4098109 3.98582185,46.3203564 5.37579431,46.3203564 C6.76628099,46.3203564 7.89296602,47.4098109 7.89296602,48.7538109" id="Fill-15" fill="#0F2D7F"></path>
                            <g id="Group-22" transform="translate(43.272727, 47.518036)" fill="#00BEFF">
                                <path d="M1.38313315,10.9455055 L2.20642057,10.9455055 C2.94845914,10.9455055 3.55628283,10.34376 3.55628283,9.60863273 L3.55628283,1.65408727 C3.55628283,0.91896 2.94845914,0.317214545 2.20642057,0.317214545 L1.38313315,0.317214545 C0.640580349,0.317214545 0.0327566575,0.91896 0.0327566575,1.65408727 L0.0327566575,9.60863273 C0.0327566575,10.34376 0.640580349,10.9455055 1.38313315,10.9455055" id="Fill-20"></path>
                            </g>
                            <path d="M42.5504867,48.7538109 C42.5504867,50.0978109 43.6771717,51.1872655 45.0676584,51.1872655 C46.4576309,51.1872655 47.5843159,50.0978109 47.5843159,48.7538109 C47.5843159,47.4098109 46.4576309,46.3203564 45.0676584,46.3203564 C43.6771717,46.3203564 42.5504867,47.4098109 42.5504867,48.7538109" id="Fill-23" fill="#0F2D7F"></path>
                        </g>
                        <path d="M30.8746373,3.96887273 C30.8746373,6.16101818 28.8881543,7.93825455 26.4373186,7.93825455 C23.986483,7.93825455 22,6.16101818 22,3.96887273 C22,1.77672727 23.986483,0 26.4373186,0 C28.8881543,0 30.8746373,1.77672727 30.8746373,3.96887273" id="Fill-25" fill="#00BEFF"></path>
                        <path d="M44.3540496,21.9108364 C44.3540496,23.0914182 43.2376492,23.9578909 42.0806244,23.6728 C38.7993021,22.8648727 32.5164004,21.5249455 26.9277135,21.5249455 C21.2701194,21.5249455 14.6503949,22.8979636 11.2574839,23.7028364 C10.104573,23.9762182 9,23.1102545 9,21.9362909 L9,15.3552727 C9,9.08378182 14.1351331,4 20.4699725,4 L32.8845914,4 C39.2189164,4 44.3540496,9.08378182 44.3540496,15.3552727 L44.3540496,21.9108364 Z" id="Fill-27" fill="#0F2D7F"></path>
                    </g>
                    <g id="Page-1" transform="translate(5.000000, 14.000000)">
                        <g id="Group-3" transform="translate(0.000000, 0.283324)">
                            <mask id="mask-2" fill="white">
                                <use xlink:href="#path-1"></use>
                            </mask>
                            <g id="Clip-2"></g>
                            <path d="M10.8331683,17.8819059 C9.07331463,17.8819059 7.31555854,17.3152588 5.70463171,16.1897882 C5.61443659,16.1272 5.52529024,16.0601412 5.43824146,15.9897294 C4.69255854,15.5884941 1.0449,13.3453765 0.0831682927,7.44755294 C-0.298587805,5.10608235 0.659997561,2.74337647 2.4691439,1.56761176 C3.35955854,0.989788235 4.34750976,0.745023529 5.33336341,0.863494118 C7.53475366,1.12390588 10.7146561,1.72296471 13.7886317,2.30302353 C17.0062902,2.90990588 20.3340707,3.53690588 21.4269,3.53690588 L21.4279488,3.53690588 L21.4289976,3.53690588 C22.5218268,3.53690588 25.8485585,2.90990588 29.0662171,2.30302353 C32.1412415,1.72296471 35.3211439,1.12390588 37.5225341,0.863494118 C38.5062902,0.746141176 39.4973878,0.989788235 40.3857049,1.56761176 L40.3867537,1.56761176 C42.1959,2.74337647 43.1544854,5.10608235 42.7727293,7.44755294 C41.8109976,13.3464941 38.1622902,15.5884941 37.4176561,15.9897294 C37.3306073,16.0590235 37.241461,16.1272 37.1512659,16.1897882 C34.2094366,18.2473765 30.7746805,18.4373765 27.7300707,16.7150824 L24.3760707,14.8184353 C23.4730707,14.3076706 22.4452659,14.0416706 21.445778,14.0651412 C20.3969976,14.0629059 19.3828268,14.3076706 18.4798268,14.8184353 L15.1258268,16.7150824 C13.7477293,17.4940824 12.2888756,17.8819059 10.8331683,17.8819059" id="Fill-1" fill="#030E1F" mask="url(#mask-2)"></path>
                        </g>
                        <path d="M21.5780293,12.1125 C22.869078,12.1125 24.1852976,12.4623235 25.3599317,13.1273235 L28.7139317,15.0228529 C31.096761,16.3718529 33.6851512,16.2220882 36.0008585,14.6037353 C36.075322,14.5523235 36.1476878,14.4942059 36.2179561,14.4360882 L36.4382,14.2952647 C36.5713951,14.2304412 39.8551268,12.5651471 40.7056878,7.34797059 C40.9385171,5.92632353 40.3574927,4.45102941 39.295078,3.75920588 C38.7979561,3.43732353 38.2788098,3.30544118 37.7544195,3.36802941 C35.6191024,3.62061765 32.4738098,4.21408824 29.4312976,4.78744118 C25.8224439,5.46697059 22.7054683,6.05485294 21.4291024,6.05485294 L21.4280537,6.05485294 L21.4270049,6.05485294 C20.150639,6.05485294 17.0336634,5.46697059 13.423761,4.78744118 C10.3812488,4.21408824 7.2359561,3.62061765 5.1016878,3.36802941 C4.57834634,3.30655882 4.05815122,3.43732353 3.56102927,3.75920588 C2.49861463,4.45102941 1.91759024,5.92520588 2.15041951,7.34797059 C3.01041951,12.6255 6.38434634,14.2796176 6.41790732,14.2952647 L6.63710244,14.4360882 C6.70737073,14.4942059 6.77973659,14.5512059 6.85315122,14.6026176 C9.16990732,16.2220882 11.7582976,16.3718529 14.1421756,15.0228529 L17.4961756,13.1273235 C18.7106634,12.4388529 20.0541512,12.0879118 21.4458829,12.1136176 C21.4899317,12.1125 21.5339805,12.1125 21.5780293,12.1125" id="Fill-4" fill="#ECC359"></path>
                    </g>
                </g>
            </g>
        </g>
    </g>
</svg>